<?xml version="1.0" encoding="UTF-8" standalone="no"?>
<svg
   xmlns:dc="http://purl.org/dc/elements/1.1/"
   xmlns:cc="http://creativecommons.org/ns#"
   xmlns:rdf="http://www.w3.org/1999/02/22-rdf-syntax-ns#"
   xmlns:svg="http://www.w3.org/2000/svg"
   xmlns="http://www.w3.org/2000/svg"
   xmlns:sodipodi="http://sodipodi.sourceforge.net/DTD/sodipodi-0.dtd"
   xmlns:inkscape="http://www.inkscape.org/namespaces/inkscape"
   version="1.1"
   id="Roundel of the Italian Air Force"
   width="600"
   height="600"
   sodipodi:version="0.32"
   inkscape:version="0.48.2 r9819"
   sodipodi:docname="cristo.svg">
  <metadata
     id="metadata1983">
    <rdf:RDF>
      <cc:Work
         rdf:about="">
        <dc:format>image/svg+xml</dc:format>
        <dc:type
           rdf:resource="http://purl.org/dc/dcmitype/StillImage" />
        <dc:title></dc:title>
      </cc:Work>
    </rdf:RDF>
  </metadata>
  <defs
     id="defs1981" />
  <sodipodi:namedview
     inkscape:window-height="856"
     inkscape:window-width="1280"
     inkscape:pageshadow="2"
     inkscape:pageopacity="0.0"
     guidetolerance="10.0"
     gridtolerance="10.0"
     objecttolerance="10.0"
     borderopacity="1.0"
     bordercolor="#666666"
     pagecolor="#ffffff"
     id="base"
     showguides="true"
     inkscape:guide-bbox="true"
     inkscape:zoom="0.98897059"
     inkscape:cx="356.83435"
     inkscape:cy="289.64161"
     inkscape:window-x="-4"
     inkscape:window-y="0"
     inkscape:current-layer="Roundel of the Italian Air Force"
     showgrid="false"
     inkscape:window-maximized="0" />
  <path
     style="fill:#d7110e;fill-opacity:1;fill-rule:evenodd;stroke:none;stroke-width:1px;stroke-linecap:butt;stroke-linejoin:miter;stroke-opacity:1"
     d="M 180,103.34375 L 256.84375,148.03125 L 256.84375,256.59375 L 148.21875,256.59375 L 103.53125,179.75 L 103.53125,419.84375 L 148.21875,343 L 256.84375,343 L 256.84375,451.96875 L 180,496.65625 L 420.09375,496.65625 L 343.25,451.96875 L 343.25,343 L 451.78125,343 L 496.46875,419.84375 L 496.46875,179.75 L 451.78125,256.59375 L 343.25,256.59375 L 343.25,148.03125 L 420.09375,103.34375 L 180,103.34375 z M 284.03125,148.25 L 316.0625,148.25 L 316.0625,283.78125 L 451.5625,283.78125 L 451.5625,315.8125 L 316.0625,315.8125 L 316.0625,451.75 L 284.03125,451.75 L 284.03125,315.8125 L 148.4375,315.8125 L 148.4375,283.78125 L 284.03125,283.78125 L 284.03125,148.25 z "
     id="path1893"
     sodipodi:nodetypes="cccccccccccccccccccccccccccccccccc" />
</svg>
