<?xml version="1.0" encoding="UTF-8" standalone="no"?>
<!-- Creator: CorelDRAW -->

<svg
   xmlns:dc="http://purl.org/dc/elements/1.1/"
   xmlns:cc="http://creativecommons.org/ns#"
   xmlns:rdf="http://www.w3.org/1999/02/22-rdf-syntax-ns#"
   xmlns:svg="http://www.w3.org/2000/svg"
   xmlns="http://www.w3.org/2000/svg"
   xmlns:sodipodi="http://sodipodi.sourceforge.net/DTD/sodipodi-0.dtd"
   xmlns:inkscape="http://www.inkscape.org/namespaces/inkscape"
   xml:space="preserve"
   width="956.69293"
   height="637.78998"
   shape-rendering="geometricPrecision"
   text-rendering="geometricPrecision"
   image-rendering="optimizeQuality"
   fill-rule="evenodd"
   clip-rule="evenodd"
   viewBox="0 0 27000000 20200000"
   version="1.0"
   id="svg2"
   sodipodi:version="0.32"
   inkscape:version="0.48.2 r9819"
   sodipodi:docname="rupba.svg"
   inkscape:output_extension="org.inkscape.output.svg.inkscape"
   sodipodi:modified="true"><metadata
   id="metadata1109"><rdf:RDF><cc:Work
       rdf:about=""><dc:format>image/svg+xml</dc:format><dc:type
         rdf:resource="http://purl.org/dc/dcmitype/StillImage" /><dc:title></dc:title></cc:Work></rdf:RDF></metadata><defs
   id="defs1107">
  <metadata
   id="CorelCorpID_0Corel-Layer" />
  
  
  
  
  
  
  
  
  
  
  
  
  
  
  
  
  
  
  
  
  
  
  
  
 </defs><sodipodi:namedview
   inkscape:window-height="852"
   inkscape:window-width="1440"
   inkscape:pageshadow="2"
   inkscape:pageopacity="0.0"
   guidetolerance="10.0"
   gridtolerance="10.0"
   objecttolerance="10.0"
   borderopacity="1.0"
   bordercolor="#666666"
   pagecolor="#ffffff"
   id="base"
   height="637.79px"
   width="956.69293px"
   inkscape:zoom="1.6180875"
   inkscape:cx="473.92068"
   inkscape:cy="217.734"
   inkscape:window-x="0"
   inkscape:window-y="0"
   inkscape:current-layer="g6517"
   showgrid="false"
   inkscape:window-maximized="1" />
 
<g
   id="g6517"><path
     d="M 0,0 L 27000000,0 L 27000000,20200000 L -1.7589628e-009,20200000 L -1.7589628e-009,-1.6552804e-010 L 0,0 z M 13500000,7081590 C 16400380,7081590 18752440,9433650 18752440,12334020 C 18752440,15234390 16400380,17586460 13500000,17586460 C 10599640,17586460 8247570,15234390 8247570,12334020 C 8247570,9433650 10599640,7081590 13500000,7081590 z "
     id="path8"
     style="fill:#ffffff" /><path
     id="path1343"
     d="M 17775200,15710200 C 16126430,15660820 8566460,10941570 8514620,10190490 L 8932090,9494280 C 9681980,10583920 17410740,15173120 18169760,15010440 L 17775200,15710200 z "
     style="fill:#fde100" /><path
     id="path1355"
     d="M 8096090,12633400 C 9111040,13179290 11365320,13454420 13498520,13473330 C 15440830,13476410 17971240,13173080 18917480,12671660 L 18891450,12125290 C 18595410,12587920 15883760,13031690 13477480,13013540 C 11071200,12995380 8836690,12623720 8091820,12142620 L 8096150,12633290 M 8096090,12633400 L 8096090,12633400 L 8096090,12633400 z "
     style="fill:#fde100" /><path
     id="path1349"
     d="M 13514500,10645400 C 15164630,10632370 17200880,10419920 18372770,9952860 L 18120290,9542650 C 17427620,9926010 15380150,10178120 13500540,10215800 C 11277440,10195340 9708250,9988340 8921980,9460770 L 8683640,9897610 C 10128960,10509210 11609990,10639110 13514500,10645400 z "
     style="fill:#fde100" /><path
     id="path1361"
     d="M 13493800,15616500 C 11159610,15602600 9159540,14980220 8737220,14877360 L 9045190,15359480 C 9791230,15673300 11742400,16140980 13516220,16089190 C 15290050,16037460 16840260,15900040 17932720,15368240 L 18248510,14868600 C 17504010,15219240 14970420,15612950 13493800,15616500 z "
     style="fill:#fde100" /><g
     id="_179101224">
   <path
   id="_114444704"
   d="M 13496700,7474400 C 16174410,7474400 18345940,9645930 18345940,12323640 C 18345940,15001350 16174410,17172880 13496700,17172880 C 10818990,17172880 8647460,15001350 8647460,12323640 C 8647460,9645930 10818990,7474400 13496700,7474400 z M 13496700,7001200 C 16435710,7001200 18819140,9384630 18819140,12323640 C 18819140,15262650 16435710,17646080 13496700,17646080 C 10557690,17646080 8174260,15262650 8174260,12323640 C 8174260,9384630 10557690,7001200 13496700,7001200 z "
   style="fill:#fde100" />
   <path
   id="_187392304"
   d="M 13500300,6909390 C 16493550,6909390 18920980,9336820 18920980,12330070 C 18920980,15323320 16493550,17750750 13500300,17750750 C 10507050,17750750 8079620,15323320 8079620,12330070 C 8079620,9336820 10507050,6909390 13500300,6909390 z M 13500300,7071520 C 16404030,7071520 18758850,9426340 18758850,12330070 C 18758850,15233800 16404030,17588620 13500300,17588620 C 10596570,17588620 8241750,15233800 8241750,12330070 C 8241750,9426340 10596570,7071520 13500300,7071520 z "
   style="fill:#fde100;stroke:#000000;stroke-width:15160;stroke-linecap:round;stroke-linejoin:round" />
   <path
   id="_178013784"
   d="M 13505100,7331780 C 16262470,7331780 18498600,9567910 18498600,12325280 C 18498600,15082650 16262470,17318780 13505100,17318780 C 10747730,17318780 8511600,15082650 8511600,12325280 C 8511600,9567910 10747730,7331780 13505100,7331780 L 13505100,7331780 z M 13505100,7497400 C 16171020,7497400 18332980,9659360 18332980,12325280 C 18332980,14991200 16171020,17153160 13505100,17153160 C 10839180,17153160 8677220,14991200 8677220,12325280 C 8677220,9659360 10839180,7497400 13505100,7497400 L 13505100,7497400 z "
   style="fill:#fde100;stroke:#000000;stroke-width:15160;stroke-linecap:round;stroke-linejoin:round" />
  </g><g
     id="_102166264">
   <path
   id="path1397"
   d="M 13476900,8666190 C 15487860,8656120 17241900,8947360 18044380,9358440 L 18337110,9864830 C 17639640,9488920 15747280,9098050 13479790,9156530 C 11632290,9167890 9658210,9359940 8667720,9888360 L 9017190,9303900 C 9830060,8882390 11747030,8668540 13476900,8666270 M 13476900,8666190 L 13476900,8666190 L 13476900,8666190 z "
   style="fill:#fde100" />
   <path
   id="path1403"
   d="M 13503500,9084340 C 14650430,9081310 15758730,9145990 16640170,9305020 C 17460980,9457770 18243810,9687070 18355700,9810400 L 18442480,9963730 C 18170250,9785980 17492850,9588070 16623070,9423120 C 15749600,9258960 14642060,9204570 13501480,9207560 C 12206900,9203120 11201070,9271480 10337930,9421970 C 9425040,9592790 8791670,9836820 8635390,9952760 L 8720430,9790660 C 9024030,9635780 9505750,9449070 10315220,9303330 C 11207860,9140280 12224330,9091370 13503540,9084340 L 13503500,9084340 z M 13503000,8621320 C 14600620,8618440 15684420,8679610 16529180,8831460 C 17195470,8961180 17854390,9163670 18095670,9343860 L 18222580,9545520 C 18006810,9305700 17194640,9078420 16477680,8951110 C 15639370,8806530 14600620,8749310 13503000,8740150 C 12351100,8743390 11286500,8813950 10460430,8964360 C 9672330,9114330 9163750,9291880 8948560,9430550 L 9060180,9262090 C 9357120,9105750 9836880,8962190 10441020,8844790 C 11273220,8693270 12344310,8624540 13503000,8621320 z "
   style="fill:#fde100;stroke:#000000;stroke-width:15160;stroke-linecap:round;stroke-linejoin:round" />
  </g><line
     id="path1379"
     x1="13342800"
     y1="6904590"
     x2="13671200"
     y2="6904590"
     style="fill:none;stroke:#000000;stroke-width:15160;stroke-linecap:round;stroke-linejoin:round" /><line
     id="path1381"
     x1="13343400"
     y1="17762600"
     x2="13673400"
     y2="17762600"
     style="fill:none;stroke:#000000;stroke-width:15160;stroke-linecap:round;stroke-linejoin:round" /><line
     id="path1389"
     x1="8076270"
     y1="12121600"
     x2="8076270"
     y2="12523100"
     style="fill:none;stroke:#000000;stroke-width:15150;stroke-linecap:round;stroke-linejoin:round" /><line
     id="path1391"
     x1="18907700"
     y1="12138200"
     x2="18907700"
     y2="12539600"
     style="fill:none;stroke:#000000;stroke-width:15150;stroke-linecap:round;stroke-linejoin:round" /><line
     id="path1399"
     x1="18095300"
     y1="9440220"
     x2="18294500"
     y2="9760050"
     style="fill:none;stroke:#000000;stroke-width:15190;stroke-linecap:round;stroke-linejoin:round" /><g
     id="_179388520">
   <polygon
   id="path1377"
   points="13281600,17774000 13751700,17774000 13751700,6900760 13281600,6900760 13281600,17774000 "
   style="fill:#fde100" />
   <path
   id="path1385"
   d="M 13676100,6842570 L 13793950,6842570 L 13794960,17825470 L 13677000,17825470 L 13676140,6842570 L 13676100,6842570 z M 13216510,6842650 L 13335290,6842650 L 13335440,17825350 L 13216570,17825350 L 13216570,6842650 L 13216510,6842650 L 13216510,6842650 z "
   style="fill:#fde100;stroke:#000000;stroke-width:15160;stroke-linecap:round;stroke-linejoin:round" />
  </g><line
     id="path1407"
     x1="8741030"
     y1="14904900"
     x2="8905420"
     y2="15188000"
     style="fill:none;stroke:#000000;stroke-width:15160;stroke-linecap:round;stroke-linejoin:round" /><line
     id="path1421"
     x1="18284900"
     y1="14910200"
     x2="17882200"
     y2="15535000"
     style="fill:none;stroke:#000000;stroke-width:15160;stroke-linecap:round;stroke-linejoin:round" /><line
     id="path1423"
     x1="8957930"
     y1="9337830"
     x2="8583340"
     y2="10032000"
     style="fill:none;stroke:#000000;stroke-width:15160;stroke-linecap:round;stroke-linejoin:round" /><g
     id="_187934656">
   <path
   id="path1405"
   d="M 16187600,14576500 C 15193400,14390900 14197330,14363950 13501690,14372130 C 10150510,14411410 9067950,15060260 8935840,15256730 L 8685380,14848430 C 9538550,14230000 11363450,13883230 13519840,13918650 C 14639550,13936990 15605820,14011340 16418700,14168780 L 16187540,14576600 M 16187600,14576500 L 16187600,14576500 L 16187600,14576500 z "
   style="fill:#fde100" />
   <path
   id="path1411"
   d="M 13482500,14314500 C 14316970,14326930 15137740,14359090 15934220,14483840 C 16027450,14498440 15995010,14493450 16087580,14510710 L 16023610,14623640 C 15940310,14608270 15981830,14614710 15897380,14601240 C 15150120,14481960 14355870,14435650 13485680,14439880 C 12248880,14430210 10997960,14545710 9908870,14858280 C 9565240,14953900 8996370,15174830 8938370,15357390 L 8874740,15252470 C 8893070,15144550 9236910,14920590 9879660,14740010 C 11127100,14382790 12293920,14322580 13482500,14314390 L 13482500,14314500 z M 13524810,13845360 C 14490640,13863420 15488060,13908080 16457570,14100130 L 16390940,14217660 C 15515490,14043860 14679080,13985900 13530500,13968250 C 12289780,13970510 10973670,14058960 9777040,14406860 C 9390720,14519400 8723960,14762680 8701720,14955310 L 8638090,14842590 C 8652570,14667640 9229770,14439390 9749100,14288360 C 10954940,13937780 12274470,13847620 13524810,13845360 z "
   style="fill:#fde100;stroke:#000000;stroke-width:14550;stroke-linecap:round;stroke-linejoin:round" />
  </g><g
     id="_117634160">
   <path
   id="path1419"
   d="M 8970240,9296680 C 10630290,9275130 18297260,13981710 18319820,14848400 L 17844850,15576480 C 17630730,14570360 9850960,9990260 8567560,10076560 L 8970240,9296680 z "
   style="fill:#fde100" />
   <path
   id="path1427"
   d="M 8520060,10048600 C 8828170,9839620 11092570,10848400 13461930,12277040 C 15824990,13709790 18083040,15328860 17879210,15631850 L 17812170,15737290 L 17781420,15761550 C 17788000,15756850 17821990,15715310 17778100,15602960 C 17677400,15271680 16075680,13993520 13418030,12388860 C 10827190,10843960 8667910,9912840 8452050,10179000 L 8520100,10048600 L 8520060,10048600 z M 18367390,14901610 C 18562200,14516770 16461870,12934560 13857880,11394100 C 11194030,9884290 9274090,8995550 8923380,9260560 L 8845460,9402400 C 8844780,9410200 8848300,9392730 8864760,9380020 C 8928520,9324380 9034230,9328130 9081910,9327260 C 9685780,9336320 11410370,10129990 13830120,11517220 C 14890340,12134720 18308990,14327210 18295960,14943810 C 18296870,14996820 18300330,15007730 18280410,15033970 L 18367390,14901710 L 18367390,14901610 z "
   style="fill:#fde100;stroke:#000000;stroke-width:15160;stroke-linecap:round;stroke-linejoin:round" />
  </g><g
     id="_150467912">
   <path
   id="path1387"
   d="M 8077610,12100000 C 8755220,11476160 11255240,11071680 13473390,11082160 C 15691520,11092620 18318420,11548370 18889910,12086690 L 18895640,12551940 C 18417050,12101770 16376170,11564910 13477770,11558910 C 10579330,11552890 8474910,12104510 8077530,12563960 L 8077610,12100000 z "
   style="fill:#fde100" />
   <path
   id="path1395"
   d="M 13502900,11493400 C 14778970,11491050 16017070,11614310 16999140,11805540 C 18012550,12008130 18725650,12261520 18969510,12546180 L 18969230,12687100 C 18675160,12332900 17715530,12073240 16976330,11924800 C 16001770,11735220 14771960,11612830 13502900,11615180 C 12163770,11617670 10916860,11744500 9956510,11931870 C 9185920,12084790 8158290,12388530 8029970,12688150 L 8029970,12541410 C 8100430,12334020 8865640,12024090 9939190,11809190 C 10906710,11620520 12155930,11495860 13502900,11493400 z M 13503440,11029950 C 14779510,11027640 16017610,11150970 16999680,11342090 C 18013060,11544760 18726190,11798070 18970050,12082710 L 18969760,12223650 C 18675700,11869540 17716070,11609880 16976870,11461450 C 16002310,11271780 14772480,11149380 13503440,11151830 C 12164310,11154230 10923420,11281160 9963010,11468420 C 9219380,11609400 8149770,11925190 8030470,12224800 L 8030470,12077950 C 8100930,11872820 8881600,11551790 9939720,11345740 C 10907250,11157070 12156470,11032510 13503440,11029950 z "
   style="fill:#fde100;stroke:#000000;stroke-width:15160;stroke-linecap:round;stroke-linejoin:round" />
  </g><g
     id="_154585992">
   <path
   id="path1365"
   d="M 16905100,15752300 C 16635670,15817460 16391730,15868660 16239950,15893320 C 15611760,16022760 14675050,16121790 13794820,16141050 L 13794800,16021950 C 14654770,16004850 15500660,15900840 16198040,15776120 C 16545070,15706580 16831660,15642030 17067280,15583470 C 17014590,15641040 16960500,15697340 16905100,15752300 z M 13216580,16138040 C 11987630,16099670 10904560,15931640 10082480,15729810 C 10028730,15675770 9976240,15620470 9925080,15563960 C 10992540,15840200 12122070,15973240 13216580,16015250 L 13216580,16138040 z M 9035880,15404360 C 9002510,15390890 8970400,15377480 8939670,15364160 L 8875420,15253700 L 8885920,15237100 L 8937390,15257060 C 8969360,15306790 9002350,15355770 9035880,15404360 z M 17363890,15226550 C 17024160,15304960 16602930,15387000 16111920,15455650 C 15442410,15546870 15009180,15635410 13794770,15669380 L 13794760,15547670 C 14908630,15512990 15434370,15423750 16094120,15333790 C 16605130,15254340 17014080,15173030 17332920,15100260 C 17358860,15123360 17383690,15145830 17407450,15167700 C 17393090,15187440 17378580,15207050 17363890,15226550 z M 13216580,15665990 C 11643400,15604450 10420340,15388540 9630760,15205870 C 9593520,15155880 9557390,15105030 9522070,15053570 C 10702580,15320200 11915740,15503440 13216580,15547170 L 13216580,15665990 z M 8769040,14976370 C 8744040,14968690 8721850,14961770 8702600,14955740 L 8641630,14838770 L 8702880,14854710 C 8724430,14895570 8746480,14936130 8769040,14976370 z "
   style="fill:#fde100;stroke:#000000;stroke-width:14550;stroke-linecap:round;stroke-linejoin:round" />
   <path
   id="path1359"
   d="M 18969400,12554900 L 18969460,12685200 C 18955390,12702020 18934000,12719670 18905780,12738030 C 18909320,12690530 18912170,12642870 18914490,12595040 C 18936400,12581280 18954800,12567890 18969360,12554900 L 18969400,12554900 z M 18289090,12976580 C 17905230,13087470 17391080,13200370 16817250,13293240 L 16784580,13298200 L 16782420,13296610 L 16768290,13286270 L 16738860,13264810 L 16736670,13263220 L 16734480,13261630 L 16732280,13260040 L 16731660,13259580 C 16714380,13247020 16697020,13234440 16679540,13221810 L 16679330,13221660 L 16677110,13220040 L 16674890,13218430 L 16667020,13212740 L 16666000,13212010 L 16663780,13210390 L 16659310,13207180 L 16657070,13205560 L 16643790,13196020 L 16643640,13195920 C 16696400,13188360 16748240,13180700 16799140,13172900 C 17268920,13105040 17855430,12973560 18306090,12835960 C 18301120,12883050 18295390,12929900 18289090,12976580 z M 15130930,13471280 C 14719950,13497560 14274710,13514930 13794570,13520320 L 13794560,13398430 C 14209760,13393760 14598600,13380080 14961570,13359440 L 14961770,13359570 L 14998980,13384000 L 14999040,13384040 L 15001710,13385800 L 15009460,13390900 C 15039730,13410850 15069740,13430670 15099560,13450430 L 15102200,13452170 L 15104810,13453910 L 15111510,13458350 L 15117890,13462590 L 15120500,13464330 L 15125720,13467800 L 15128330,13469540 L 15130930,13471280 z M 13216580,13520900 C 12022820,13509570 11059230,13420220 10300670,13303780 C 9643150,13208020 9107050,13075450 8718220,12955740 C 8712500,12911900 8707260,12867910 8702710,12823720 C 9288130,13004810 10011080,13133100 10318710,13183440 C 11072020,13299100 12029480,13387720 13216580,13399010 L 13216580,13520900 z M 8094070,12724850 C 8067190,12711940 8045910,12700760 8030440,12691590 L 8031160,12539600 C 8048230,12550950 8066350,12562160 8085360,12573300 C 8087650,12623980 8090450,12674520 8094070,12724850 z M 18969970,12091460 L 18970010,12221750 C 18958350,12235680 18941660,12250220 18920220,12265230 C 18919690,12220110 18918630,12175160 18917000,12130310 C 18938060,12116980 18955790,12103950 18969920,12091350 L 18969970,12091460 z M 18329470,12501450 C 17941720,12616010 17411690,12733570 16817800,12829680 C 16635720,12857600 16441820,12884020 16235930,12908340 L 16207630,12888750 L 16207600,12888730 L 16205230,12887080 L 16204250,12886410 L 16192900,12878570 C 16163000,12857960 16132880,12837290 16102520,12816530 L 16100120,12814880 L 16097700,12813230 L 16096980,12812730 L 16095300,12811580 L 16092870,12809930 L 16083590,12803610 L 16083210,12803350 C 16339830,12774980 16578580,12743270 16799710,12709350 C 17278510,12640190 17878580,12504970 18332510,12364510 C 18332050,12410290 18331120,12455960 18329470,12501450 z M 14469240,13040810 C 14252530,13048720 14027660,13054170 13794560,13056780 L 13794550,12935060 C 13962930,12933160 14126990,12929770 14286740,12925050 L 14286760,12925060 C 14348160,12963830 14409000,13002380 14468950,13040620 L 14469240,13040810 z M 13216610,13057350 C 12023110,13046010 11059660,12956750 10301210,12840220 C 9621570,12741300 9071620,12603030 8679990,12480260 C 8678640,12437750 8677890,12395080 8677580,12352310 C 9267350,12537620 10007120,12668880 10319260,12719890 C 11072460,12835610 12029740,12924310 13216610,12935630 L 13216610,13057350 z M 8080640,12254640 C 8060290,12244570 8043680,12235670 8031000,12228150 L 8031720,12076150 C 8048380,12087230 8066030,12098210 8084550,12109090 C 8082610,12157450 8081310,12205960 8080640,12254640 z "
   style="fill:#fde100;stroke:#000000;stroke-width:15160;stroke-linecap:round;stroke-linejoin:round" />
   <path
   id="path1347"
   d="M 8844400,9399790 C 8831840,9433570 8835660,9473910 8854710,9520440 L 8934750,9365410 C 8933040,9358590 8931530,9351580 8930200,9344500 C 8906420,9352220 8883740,9363490 8864760,9380050 C 8848300,9392760 8844780,9410230 8845460,9402430 L 8918110,9270190 L 8917360,9270180 L 8853250,9382220 L 8844450,9399790 L 8844400,9399790 z M 10220020,10683410 C 10451230,10840220 10705790,11007060 10979360,11182350 C 11048380,11173810 11118220,11165590 11188840,11157680 L 11148350,11131410 C 10815800,10962650 10504510,10812600 10220020,10683410 z M 11780660,11687240 C 12150720,11917270 12542730,12157520 12948860,12405130 L 12949020,12405230 C 13037550,12459210 13126760,12513550 13216540,12568190 L 13216540,12424140 L 13168510,12394890 L 13168390,12394810 C 12762740,12147750 12368670,11905110 11994580,11670640 C 11922690,11675840 11851380,11681380 11780660,11687240 z M 14796240,13490220 C 15114090,13666360 15419550,13829880 15708520,13979590 C 15777880,13988400 15847180,13997790 15916400,14007810 C 15806270,13930240 15691670,13850630 15572640,13769090 C 15397560,13676920 15216430,13579670 15029900,13477470 C 14953170,13482030 14875290,13486290 14796240,13490220 z M 18192680,15044860 C 18238100,15049600 18268680,15046090 18283150,15033890 C 18285720,15029310 18292280,15017860 18300520,15003430 L 18280410,15034000 C 18300330,15007760 18296870,14996850 18295960,14943840 C 18296010,14941400 18295540,14938720 18295480,14936240 C 18284540,14938970 18272450,14940670 18259230,14941280 L 18200310,15031600 L 18192680,15044860 z M 17810290,15738800 C 17786730,15775010 17747820,15782330 17682770,15778130 C 17717490,15736060 17751370,15693280 17784820,15650150 C 17787630,15649970 17790370,15649750 17793080,15649510 C 17812240,15727120 17787000,15757600 17781420,15761580 L 17810290,15738800 z M 16314650,15298300 C 15847780,15083730 15294110,14803470 14681810,14470720 C 14777970,14476590 14873240,14483340 14967670,14490990 C 15560900,14807660 16094690,15067190 16539000,15259820 C 16466780,15272620 16392010,15285470 16314650,15298300 z M 13216540,13638680 C 13149170,13598910 13081430,13558740 13013340,13518140 C 13080320,13519290 13148040,13520230 13216540,13520880 L 13216540,13638680 z M 13794560,13833530 L 13826040,13851950 L 13794560,13851140 L 13794560,13833530 z M 11980460,12893090 C 11753320,12753640 11532190,12616370 11318650,12482040 L 11318260,12481800 C 10975380,12266100 10652070,12057970 10354690,11860380 C 10411940,11850950 10469970,11841740 10528790,11832740 C 10865950,12055270 11210350,12273280 11531010,12471790 L 11531380,12472020 C 11790980,12632720 12035020,12780650 12246960,12907700 C 12156520,12903270 12067670,12898410 11980460,12893090 z M 9681900,11399320 C 9377800,11183030 9119650,10985960 8918990,10813510 C 8933740,10768790 8948960,10724290 8964970,10680160 C 9196050,10888010 9502410,11122840 9843370,11364920 C 9788720,11376100 9734900,11387580 9681900,11399320 z M 8467280,10314270 C 8437550,10249300 8434130,10195850 8459750,10155140 L 8522550,10044110 L 8526120,10045220 C 8524140,10046380 8521900,10047380 8520060,10048630 L 8520100,10048630 L 8452050,10179030 C 8468290,10159010 8495740,10145870 8533330,10139150 C 8534190,10142920 8535120,10146750 8536170,10150600 C 8512380,10204720 8489350,10259250 8467280,10314270 z "
   style="fill:#fde100;stroke:#000000;stroke-width:15160;stroke-linecap:round;stroke-linejoin:round" />
   <path
   id="path1353"
   d="M 18440800,9962620 C 18435510,9970600 18419460,9981530 18393260,9994940 C 18379950,9967100 18366460,9939420 18352700,9911840 C 18385560,9928920 18414970,9945850 18440800,9962620 z M 17835040,10188540 C 17501940,10283620 17047410,10392060 16510610,10484790 C 15806590,10592130 14904990,10685060 13794290,10699810 L 13794280,10577580 C 14896640,10561590 15786990,10462630 16485870,10358640 C 17036000,10269910 17467110,10169030 17777360,10075700 C 17797060,10113040 17816300,10150640 17835040,10188540 z M 13216560,10700340 C 12994500,10697880 12780700,10692400 12575170,10684490 C 12490760,10639100 12407420,10594540 12325250,10550950 C 12605350,10565160 12902450,10574830 13216560,10578350 L 13216560,10700340 z M 18219460,9546240 C 18207720,9555670 18191610,9566190 18171100,9577620 L 18092720,9442020 L 18092760,9442000 C 18141750,9472650 18182280,9503710 18212760,9535020 L 18219460,9546160 L 18219460,9546240 z M 18171100,9577620 L 18170640,9577860 C 18144050,9532850 18116880,9488230 18089050,9444070 L 18092720,9442020 L 18171100,9577620 z M 18138930,9412520 L 18139080,9412400 L 18143860,9420360 L 18138930,9412520 z M 17608690,9781640 C 17304430,9867330 16891960,9960310 16373810,10043060 C 15698640,10139820 14854380,10227180 13794250,10241090 L 13794240,10115990 C 14847930,10101740 15682390,10012900 16353020,9916700 C 16847060,9848740 17238840,9754640 17528920,9665090 L 17531840,9664190 L 17533100,9663800 L 17533660,9664630 L 17534960,9666590 C 17560070,9704580 17584640,9742910 17608690,9781640 z M 13216560,10241400 C 12600710,10234290 12051050,10204080 11570110,10159980 C 11465120,10107120 11362670,10056240 11262770,10007370 C 11810580,10066250 12465190,10108060 13216560,10116440 L 13216560,10241400 z "
   style="fill:#fde100;stroke:#000000;stroke-width:15160;stroke-linecap:round;stroke-linejoin:round" />
  </g><g
     id="_171681880">
   <g
   id="g49">
    <path
   id="path1429"
   d="M 11254700,12826400 C 11254700,13442830 11507150,14000430 11916150,14407920 C 12325930,14816280 12882770,15073950 13500180,15073950 C 14120830,15073950 14684050,14821890 15092060,14415100 C 15500060,14008380 15752980,13447040 15753030,12828430 L 15753010,12828430 L 15753010,9828160 L 11254230,9822800 L 11254700,12826400 z "
   style="fill:#ffffff" />
    <g
   id="g52">
     <path
   id="_180417144"
   d="M 12739300,11899800 C 12739300,12120330 12739300,12340870 12739300,12561400 C 12739300,12802480 12542070,12999710 12300990,12999710 L 12300990,12999710 C 12059910,12999710 11862680,12802480 11862680,12561400 C 11862680,12340870 11862680,12120330 11862680,11899800 C 12154880,11899800 12447100,11899800 12739300,11899800 z M 12304240,12294020 C 12256440,12294020 12217440,12332950 12217440,12380750 C 12217440,12428500 12256440,12467450 12304240,12467450 C 12352060,12467450 12391040,12428500 12391040,12380750 C 12391040,12333040 12352060,12294020 12304240,12294020 z M 12072240,12060380 C 12024420,12060380 11985440,12099330 11985440,12147030 C 11985440,12194780 12024420,12233730 12072240,12233730 C 12120040,12233730 12159020,12194780 12159020,12147030 C 12159020,12099330 12120040,12060380 12072240,12060380 z M 12073210,12538170 C 12025410,12538170 11986410,12577120 11986410,12624820 C 11986410,12672650 12025410,12711580 12073210,12711580 C 12121000,12711580 12160010,12672650 12160010,12624820 C 12160010,12577120 12121000,12538170 12073210,12538170 z M 12547080,12537630 C 12499260,12537630 12460270,12576500 12460270,12624200 C 12460270,12672020 12499260,12710960 12547080,12710960 C 12594870,12710960 12633860,12672020 12633860,12624200 C 12633860,12576500 12594870,12537630 12547080,12537630 z M 12547620,12060800 C 12499830,12060800 12460840,12099750 12460840,12147390 C 12460840,12195200 12499830,12234140 12547620,12234140 C 12595440,12234140 12634420,12195200 12634420,12147390 C 12634420,12099750 12595440,12060800 12547620,12060800 z M 11861120,12536700 L 11861120,12536700 L 11861120,12536700 z "
   style="fill:#003082" />
     <path
   id="_175378416"
   d="M 13953600,11899800 C 13953600,12120330 13953600,12340870 13953600,12561400 C 13953600,12802480 13756370,12999710 13515290,12999710 L 13515290,12999710 C 13274210,12999710 13076980,12802480 13076980,12561400 C 13076980,12340870 13076980,12120330 13076980,11899800 C 13369180,11899800 13661400,11899800 13953600,11899800 z M 13518540,12294020 C 13470740,12294020 13431740,12332950 13431740,12380750 C 13431740,12428500 13470740,12467450 13518540,12467450 C 13566360,12467450 13605340,12428500 13605340,12380750 C 13605340,12333040 13566360,12294020 13518540,12294020 z M 13286540,12060380 C 13238720,12060380 13199740,12099330 13199740,12147030 C 13199740,12194780 13238720,12233730 13286540,12233730 C 13334340,12233730 13373320,12194780 13373320,12147030 C 13373320,12099330 13334340,12060380 13286540,12060380 z M 13287510,12538170 C 13239710,12538170 13200710,12577120 13200710,12624820 C 13200710,12672650 13239710,12711580 13287510,12711580 C 13335300,12711580 13374310,12672650 13374310,12624820 C 13374310,12577120 13335300,12538170 13287510,12538170 z M 13761380,12537630 C 13713560,12537630 13674570,12576500 13674570,12624200 C 13674570,12672020 13713560,12710960 13761380,12710960 C 13809170,12710960 13848160,12672020 13848160,12624200 C 13848160,12576500 13809170,12537630 13761380,12537630 z M 13761920,12060800 C 13714130,12060800 13675140,12099750 13675140,12147390 C 13675140,12195200 13714130,12234140 13761920,12234140 C 13809740,12234140 13848720,12195200 13848720,12147390 C 13848720,12099750 13809740,12060800 13761920,12060800 z M 13075420,12536700 L 13075420,12536700 L 13075420,12536700 z "
   style="fill:#003082" />
     <path
   id="_177142696"
   d="M 15165300,11902200 C 15165300,12122730 15165300,12343270 15165300,12563800 C 15165300,12804880 14968070,13002110 14726990,13002110 L 14726990,13002110 C 14485910,13002110 14288680,12804880 14288680,12563800 C 14288680,12343270 14288680,12122730 14288680,11902200 C 14580880,11902200 14873100,11902200 15165300,11902200 z M 14730240,12296420 C 14682440,12296420 14643440,12335350 14643440,12383150 C 14643440,12430900 14682440,12469850 14730240,12469850 C 14778060,12469850 14817040,12430900 14817040,12383150 C 14817040,12335440 14778060,12296420 14730240,12296420 z M 14498240,12062780 C 14450420,12062780 14411440,12101730 14411440,12149430 C 14411440,12197180 14450420,12236130 14498240,12236130 C 14546040,12236130 14585020,12197180 14585020,12149430 C 14585020,12101730 14546040,12062780 14498240,12062780 z M 14499210,12540570 C 14451410,12540570 14412410,12579520 14412410,12627220 C 14412410,12675050 14451410,12713980 14499210,12713980 C 14547000,12713980 14586010,12675050 14586010,12627220 C 14586010,12579520 14547000,12540570 14499210,12540570 z M 14973080,12540030 C 14925260,12540030 14886270,12578900 14886270,12626600 C 14886270,12674420 14925260,12713360 14973080,12713360 C 15020870,12713360 15059860,12674420 15059860,12626600 C 15059860,12578900 15020870,12540030 14973080,12540030 z M 14973620,12063200 C 14925830,12063200 14886840,12102150 14886840,12149790 C 14886840,12197600 14925830,12236540 14973620,12236540 C 15021440,12236540 15060420,12197600 15060420,12149790 C 15060420,12102150 15021440,12063200 14973620,12063200 z M 14287120,12539100 L 14287120,12539100 L 14287120,12539100 z "
   style="fill:#003082" />
     <path
   id="_119819464"
   d="M 13953300,10380200 C 13953300,10600730 13953300,10821270 13953300,11041800 C 13953300,11282880 13756070,11480110 13514990,11480110 L 13514990,11480110 C 13273910,11480110 13076680,11282880 13076680,11041800 C 13076680,10821270 13076680,10600730 13076680,10380200 C 13368880,10380200 13661100,10380200 13953300,10380200 z M 13518240,10774420 C 13470440,10774420 13431440,10813350 13431440,10861150 C 13431440,10908900 13470440,10947850 13518240,10947850 C 13566060,10947850 13605040,10908900 13605040,10861150 C 13605040,10813440 13566060,10774420 13518240,10774420 z M 13286240,10540780 C 13238420,10540780 13199440,10579730 13199440,10627430 C 13199440,10675180 13238420,10714130 13286240,10714130 C 13334040,10714130 13373020,10675180 13373020,10627430 C 13373020,10579730 13334040,10540780 13286240,10540780 z M 13287210,11018570 C 13239410,11018570 13200410,11057520 13200410,11105220 C 13200410,11153050 13239410,11191980 13287210,11191980 C 13335000,11191980 13374010,11153050 13374010,11105220 C 13374010,11057520 13335000,11018570 13287210,11018570 z M 13761080,11018030 C 13713260,11018030 13674270,11056900 13674270,11104600 C 13674270,11152420 13713260,11191360 13761080,11191360 C 13808870,11191360 13847860,11152420 13847860,11104600 C 13847860,11056900 13808870,11018030 13761080,11018030 z M 13761620,10541200 C 13713830,10541200 13674840,10580150 13674840,10627790 C 13674840,10675600 13713830,10714540 13761620,10714540 C 13809440,10714540 13848420,10675600 13848420,10627790 C 13848420,10580150 13809440,10541200 13761620,10541200 z M 13075120,11017100 L 13075120,11017100 L 13075120,11017100 z "
   style="fill:#003082" />
     <path
   id="_117577800"
   d="M 13949400,13405800 C 13949400,13626330 13949400,13846870 13949400,14067400 C 13949400,14308480 13752170,14505710 13511090,14505710 L 13511090,14505710 C 13270010,14505710 13072780,14308480 13072780,14067400 C 13072780,13846870 13072780,13626330 13072780,13405800 C 13364980,13405800 13657200,13405800 13949400,13405800 z M 13514340,13800020 C 13466540,13800020 13427540,13838950 13427540,13886750 C 13427540,13934500 13466540,13973450 13514340,13973450 C 13562160,13973450 13601140,13934500 13601140,13886750 C 13601140,13839040 13562160,13800020 13514340,13800020 z M 13282340,13566380 C 13234520,13566380 13195540,13605330 13195540,13653030 C 13195540,13700780 13234520,13739730 13282340,13739730 C 13330140,13739730 13369120,13700780 13369120,13653030 C 13369120,13605330 13330140,13566380 13282340,13566380 z M 13283310,14044170 C 13235510,14044170 13196510,14083120 13196510,14130820 C 13196510,14178650 13235510,14217580 13283310,14217580 C 13331100,14217580 13370110,14178650 13370110,14130820 C 13370110,14083120 13331100,14044170 13283310,14044170 z M 13757180,14043630 C 13709360,14043630 13670370,14082500 13670370,14130200 C 13670370,14178020 13709360,14216960 13757180,14216960 C 13804970,14216960 13843960,14178020 13843960,14130200 C 13843960,14082500 13804970,14043630 13757180,14043630 z M 13757720,13566800 C 13709930,13566800 13670940,13605750 13670940,13653390 C 13670940,13701200 13709930,13740140 13757720,13740140 C 13805540,13740140 13844520,13701200 13844520,13653390 C 13844520,13605750 13805540,13566800 13757720,13566800 z M 13071220,14042700 L 13071220,14042700 L 13071220,14042700 z "
   style="fill:#003082" />
    </g>
   </g>
   <g
   id="g59">
    <path
   id="path1433"
   d="M 10166400,13037700 L 10166400,13040320 L 10166400,13040320 C 10166400,13949000 10542690,14776520 11146270,15377270 C 11751000,15979150 12583950,16353410 13495140,16353410 C 14411030,16353410 15242260,15981890 15844430,15382310 C 16446560,14782740 16819710,13955220 16819820,13043260 L 16819710,13043260 L 16819710,8555990 L 10170460,8554800 L 10166400,13037700 M 15482940,9898390 L 15483180,12753970 L 15480730,13056040 L 15480770,13056040 C 15480770,13135630 15475980,13226250 15466750,13303310 C 15412670,13754880 15205020,14148300 14897550,14454450 C 14537530,14812920 14040550,15035120 13492980,15035120 C 12948180,15035120 12462690,14805110 12101130,14445180 C 11730290,14076130 11515340,13569950 11515340,13046570 L 11514570,9891130 L 15482980,9898280 M 15482940,9898390 L 15482940,9898390 L 15482940,9898390 z "
   style="fill:#dc241f" />
    <g
   id="g62">
     <g
   id="g64">
      <g
   id="g66">
       <g
   id="g68">
        <path
   id="path1499"
   d="M 10359600,9703140 L 10601450,9703670 L 11078220,9703670 L 11320710,9703670 L 11276860,9330240 L 10399470,9332470 M 10399410,9332470 L 10399410,9332470 L 10399410,9332470 z "
   style="fill:#ffe805" />
        <path
   id="path1501"
   d="M 10399400,9332550 L 10359590,9703140 L 10601440,9703670 C 10603760,9397060 10833540,9346060 10839110,9347190 C 10844320,9346880 11072100,9414990 11078170,9703670 L 11320630,9703670 L 11276850,9330240 L 10399400,9332470 L 10399400,9332550 z "
   style="fill:none;stroke:#000000;stroke-width:13210" />
        <path
   id="path1509"
   d="M 10703500,9703060 C 10704580,9509560 10835620,9454810 10836290,9454900 C 10836350,9454900 10973110,9511370 10974200,9703060 L 10703500,9703060"
   style="fill:none;stroke:#000000;stroke-width:13150" />
       </g>
       <g
   id="g73">
        <g
   id="g75">
         <g
   id="g77">
          <path
   id="path1511"
   d="M 10364300,9178950 L 11313160,9178950 C 11333130,9178950 11349510,9197430 11349510,9220100 C 11349510,9242620 11333130,9261270 11313160,9261270 L 10364300,9261270 C 10344330,9261270 10327940,9242730 10327940,9220100 C 10327940,9197430 10344330,9178950 10364300,9178950 z "
   style="fill:#ffe805" />
          <path
   id="path1513"
   d="M 10364300,9178840 L 11313160,9178840 C 11333130,9178840 11349510,9197430 11349510,9220010 L 11349510,9220010 C 11349510,9242620 11333130,9261160 11313160,9261160 L 10364300,9261160 C 10344330,9261160 10327940,9242730 10327940,9220010 L 10327940,9220010 C 10327940,9197430 10344330,9178840 10364300,9178840 z "
   style="fill:none;stroke:#000000;stroke-width:13200" />
         </g>
         <g
   id="g81">
          <path
   id="path1515"
   d="M 10384300,9261270 L 11291930,9261270 C 11311030,9261270 11326750,9279750 11326750,9302380 C 11326750,9325030 11311100,9343530 11291930,9343530 L 10384300,9343530 C 10365180,9343530 10349530,9325030 10349530,9302380 C 10349530,9279750 10365180,9261270 10384300,9261270 z "
   style="fill:#ffe805" />
          <path
   id="path1517"
   d="M 10384300,9261270 L 11291870,9261270 C 11310990,9261270 11326640,9279750 11326640,9302380 L 11326640,9302380 C 11326640,9325030 11310990,9343530 11291870,9343530 L 10384300,9343530 C 10365180,9343530 10349530,9325030 10349530,9302380 L 10349530,9302380 C 10349530,9279750 10365180,9261270 10384300,9261270 z "
   style="fill:none;stroke:#000000;stroke-width:13200" />
         </g>
        </g>
        <g
   id="g85">
         <g
   id="g87">
          <path
   id="_146595224"
   d="M 10989500,8827830 L 11059550,8827990 L 11059550,8878930 L 11110810,8878930 L 11110810,8826790 L 11182610,8826990 L 11182610,8878930 L 11233980,8878930 L 11233980,8826790 L 11305830,8826910 L 11305720,8944390 C 11305720,8962740 11291200,8974700 11274390,8974700 L 11262780,8974700 L 11268060,9177790 L 11027100,9177910 L 11033450,8974700 L 11022260,8974700 C 11005350,8974700 10989660,8960930 10989590,8944000 L 10989440,8827830 L 10989500,8827830 z "
   style="fill:#ffe805" />
          <g
   id="g90">
           <path
   id="path1537"
   d="M 10989500,8827830 L 11059540,8827980 L 11059540,8878930 L 11110800,8878930 L 11110800,8826790 L 11182590,8826990 L 11182590,8878930 L 11233970,8878930 L 11233970,8826790 L 11305820,8826900 L 11305710,8944390 C 11305710,8962740 11291190,8974700 11274390,8974700 L 11022260,8974700 C 11005350,8974700 10989650,8960930 10989580,8943990 L 10989430,8827830 L 10989500,8827830 z "
   style="fill:none;stroke:#000000;stroke-width:13230" />
           <polygon
   id="path1541"
   points="11262400,8974700 11268100,9177800 11027100,9177910 11033900,8974700 11260500,8974700 11262400,8974700 "
   style="fill:none;stroke:#000000;stroke-width:13260" />
          </g>
         </g>
         <g
   id="g94">
          <path
   id="path1519"
   d="M 10948200,8789970 L 10963700,9177140 L 10712380,9176140 L 10728310,8789970 M 10677610,8643090 L 10749270,8643210 L 10749270,8694090 L 10801550,8694090 L 10801550,8642050 L 10874910,8642280 L 10874910,8694090 L 10927380,8694090 L 10927380,8642050 L 11000850,8642170 L 11000740,8759680 C 11000740,8778000 10985910,8789970 10968750,8789970 L 10948200,8789970 L 10728310,8789970 L 10711100,8789970 C 10693790,8789970 10677770,8776220 10677770,8759220 L 10677610,8643090 z "
   style="fill:#ffe805" />
          <g
   id="g97">
           <path
   id="path1521"
   d="M 10677600,8643100 L 10749250,8643210 L 10749250,8694090 L 10801550,8694090 L 10801550,8642060 L 10874960,8642280 L 10874960,8694090 L 10927390,8694090 L 10927390,8642060 L 11000830,8642060 L 11000740,8759570 C 11000740,8778000 10985910,8789970 10968690,8789970 L 10711040,8789970 C 10693730,8789970 10677750,8776100 10677710,8759220 L 10677550,8643100 L 10677600,8643100 z "
   style="fill:none;stroke:#000000;stroke-width:13240" />
           <polyline
   id="path1525"
   points="1.09475e+007,8.80032e+006 1.09637e+007,9.17714e+006 1.07124e+007,9.17621e+006 1.0729e+007,8.79933e+006 1.09475e+007,8.80032e+006 "
   style="fill:none;stroke:#000000;stroke-width:13200" />
          </g>
         </g>
         <g
   id="g101">
          <path
   id="_189868136"
   d="M 10369800,8827830 L 10439850,8827990 L 10439850,8878930 L 10491110,8878930 L 10491110,8826790 L 10562900,8826990 L 10562900,8878930 L 10614280,8878930 L 10614280,8826790 L 10686130,8826910 L 10686020,8944390 C 10686020,8962740 10671500,8974700 10654690,8974700 L 10643080,8974700 L 10648360,9177790 L 10407400,9177910 L 10413750,8974700 L 10402560,8974700 C 10385650,8974700 10369960,8960930 10369890,8944000 L 10369740,8827830 L 10369800,8827830 z "
   style="fill:#ffe805" />
          <g
   id="g104">
           <path
   id="path1537_0"
   d="M 10369800,8827830 L 10439850,8827980 L 10439850,8878930 L 10491110,8878930 L 10491110,8826790 L 10562900,8826990 L 10562900,8878930 L 10614270,8878930 L 10614270,8826790 L 10686130,8826900 L 10686020,8944390 C 10686020,8962740 10671490,8974700 10654690,8974700 L 10402560,8974700 C 10385650,8974700 10369960,8960930 10369890,8943990 L 10369740,8827830 L 10369800,8827830 z "
   style="fill:none;stroke:#000000;stroke-width:13230" />
           <polygon
   id="path1541_1"
   points="10642700,8974700 10648400,9177800 10407400,9177910 10414200,8974700 10640800,8974700 10642700,8974700 "
   style="fill:none;stroke:#000000;stroke-width:13260" />
          </g>
         </g>
        </g>
       </g>
       <g
   id="g108">
        <path
   id="path1503"
   d="M 10343500,9704840 L 11333300,9704840 C 11354120,9704840 11371160,9725460 11371160,9750650 C 11371160,9775690 11354160,9796280 11333300,9796280 L 10343500,9796280 C 10322630,9796280 10305590,9775770 10305590,9750650 C 10305590,9725460 10322630,9704840 10343500,9704840 z "
   style="fill:#ffe805" />
        <path
   id="path1505"
   d="M 10343400,9704840 L 11333200,9704840 C 11354070,9704840 11371110,9725460 11371110,9750650 L 11371110,9750650 C 11371110,9775770 11354070,9796280 11333200,9796280 L 10343400,9796280 C 10322540,9796280 10305500,9775770 10305500,9750650 L 10305500,9750650 C 10305500,9725460 10322540,9704840 10343400,9704840 z "
   style="fill:none;stroke:#000000;stroke-width:13210" />
       </g>
      </g>
      <path
   id="path1545"
   d="M 11123600,9049040 C 11123450,9013730 11172480,9012910 11171860,9049040 L 11171860,9118370 L 11123600,9118370 L 11123600,9049040 z M 10813490,8919270 C 10811950,8882650 10864690,8882220 10864070,8919270 L 10864070,9009010 L 10813490,9009010 L 10813490,8919270 z M 10502040,9049740 C 10501890,9014350 10550950,9013640 10550330,9049740 L 10550330,9119080 L 10502040,9119080 L 10502040,9049740 z "
   style="fill:#000000" />
     </g>
     <g
   id="g113">
      <g
   id="g115">
       <g
   id="g117">
        <path
   id="path1499_2"
   d="M 13029800,9703140 L 13271640,9703670 L 13748420,9703670 L 13990900,9703670 L 13947060,9330240 L 13069670,9332470 M 13069600,9332470 L 13069600,9332470 L 13069600,9332470 z "
   style="fill:#ffe805" />
        <path
   id="path1501_3"
   d="M 13069600,9332550 L 13029800,9703140 L 13271640,9703670 C 13273960,9397060 13503750,9346060 13509310,9347190 C 13514520,9346880 13742310,9414990 13748380,9703670 L 13990840,9703670 L 13947060,9330240 L 13069600,9332470 L 13069600,9332550 z "
   style="fill:none;stroke:#000000;stroke-width:13210" />
        <path
   id="path1509_4"
   d="M 13373600,9703060 C 13374680,9509560 13505720,9454810 13506380,9454900 C 13506450,9454900 13643210,9511370 13644290,9703060 L 13373600,9703060"
   style="fill:none;stroke:#000000;stroke-width:13150" />
       </g>
       <g
   id="g122">
        <g
   id="g124">
         <g
   id="g126">
          <path
   id="path1511_5"
   d="M 13034400,9178950 L 13983250,9178950 C 14003230,9178950 14019610,9197430 14019610,9220100 C 14019610,9242620 14003230,9261270 13983250,9261270 L 13034400,9261270 C 13014420,9261270 12998040,9242730 12998040,9220100 C 12998040,9197430 13014420,9178950 13034400,9178950 z "
   style="fill:#ffe805" />
          <path
   id="path1513_6"
   d="M 13034400,9178840 L 13983250,9178840 C 14003230,9178840 14019610,9197430 14019610,9220010 L 14019610,9220010 C 14019610,9242620 14003230,9261160 13983250,9261160 L 13034400,9261160 C 13014420,9261160 12998040,9242730 12998040,9220010 L 12998040,9220010 C 12998040,9197430 13014420,9178840 13034400,9178840 z "
   style="fill:none;stroke:#000000;stroke-width:13200" />
         </g>
         <g
   id="g130">
          <path
   id="path1515_7"
   d="M 13054500,9261270 L 13962130,9261270 C 13981230,9261270 13996950,9279750 13996950,9302380 C 13996950,9325030 13981290,9343530 13962130,9343530 L 13054500,9343530 C 13035380,9343530 13019730,9325030 13019730,9302380 C 13019730,9279750 13035380,9261270 13054500,9261270 z "
   style="fill:#ffe805" />
          <path
   id="path1517_8"
   d="M 13054500,9261270 L 13962060,9261270 C 13981180,9261270 13996830,9279750 13996830,9302380 L 13996830,9302380 C 13996830,9325030 13981180,9343530 13962060,9343530 L 13054500,9343530 C 13035380,9343530 13019730,9325030 13019730,9302380 L 13019730,9302380 C 13019730,9279750 13035380,9261270 13054500,9261270 z "
   style="fill:none;stroke:#000000;stroke-width:13200" />
         </g>
        </g>
        <g
   id="g134">
         <g
   id="g136">
          <path
   id="_158252472"
   d="M 13659700,8827830 L 13729750,8827990 L 13729750,8878930 L 13781010,8878930 L 13781010,8826790 L 13852800,8826990 L 13852800,8878930 L 13904180,8878930 L 13904180,8826790 L 13976030,8826910 L 13975920,8944390 C 13975920,8962740 13961400,8974700 13944590,8974700 L 13932980,8974700 L 13938260,9177790 L 13697300,9177910 L 13703650,8974700 L 13692460,8974700 C 13675550,8974700 13659860,8960930 13659790,8944000 L 13659640,8827830 L 13659700,8827830 z "
   style="fill:#ffe805" />
          <g
   id="g139">
           <path
   id="path1537_9"
   d="M 13659700,8827830 L 13729750,8827980 L 13729750,8878930 L 13781010,8878930 L 13781010,8826790 L 13852800,8826990 L 13852800,8878930 L 13904170,8878930 L 13904170,8826790 L 13976030,8826900 L 13975920,8944390 C 13975920,8962740 13961390,8974700 13944590,8974700 L 13692460,8974700 C 13675550,8974700 13659860,8960930 13659790,8943990 L 13659640,8827830 L 13659700,8827830 z "
   style="fill:none;stroke:#000000;stroke-width:13230" />
           <polygon
   id="path1541_10"
   points="13932600,8974700 13938200,9177800 13697300,9177910 13704100,8974700 13930600,8974700 13932600,8974700 "
   style="fill:none;stroke:#000000;stroke-width:13260" />
          </g>
         </g>
         <g
   id="g143">
          <path
   id="path1519_11"
   d="M 13618400,8789970 L 13633900,9177140 L 13382580,9176140 L 13398510,8789970 M 13347810,8643090 L 13419460,8643210 L 13419460,8694090 L 13471750,8694090 L 13471750,8642050 L 13545100,8642280 L 13545100,8694090 L 13597580,8694090 L 13597580,8642050 L 13671050,8642170 L 13670940,8759680 C 13670940,8778000 13656100,8789970 13638950,8789970 L 13618400,8789970 L 13398510,8789970 L 13381300,8789970 C 13363990,8789970 13347970,8776220 13347970,8759220 L 13347810,8643090 z "
   style="fill:#ffe805" />
          <g
   id="g146">
           <path
   id="path1521_12"
   d="M 13347700,8643100 L 13419360,8643210 L 13419360,8694090 L 13471660,8694090 L 13471660,8642060 L 13545060,8642280 L 13545060,8694090 L 13597490,8694090 L 13597490,8642060 L 13670940,8642060 L 13670850,8759570 C 13670850,8778000 13656020,8789970 13638800,8789970 L 13381150,8789970 C 13363840,8789970 13347860,8776100 13347810,8759220 L 13347660,8643100 L 13347700,8643100 z "
   style="fill:none;stroke:#000000;stroke-width:13240" />
           <polyline
   id="path1525_13"
   points="1.36176e+007,8.80032e+006 1.36338e+007,9.17714e+006 1.33825e+007,9.17621e+006 1.33991e+007,8.79933e+006 1.36176e+007,8.80032e+006 "
   style="fill:none;stroke:#000000;stroke-width:13200" />
          </g>
         </g>
         <g
   id="g150">
          <path
   id="_118813736"
   d="M 13040000,8827830 L 13110050,8827990 L 13110050,8878930 L 13161300,8878930 L 13161300,8826790 L 13233100,8826990 L 13233100,8878930 L 13284470,8878930 L 13284470,8826790 L 13356320,8826910 L 13356220,8944390 C 13356220,8962740 13341690,8974700 13324890,8974700 L 13313280,8974700 L 13318550,9177790 L 13077600,9177910 L 13083940,8974700 L 13072760,8974700 C 13055850,8974700 13040160,8960930 13040080,8944000 L 13039930,8827830 L 13040000,8827830 z "
   style="fill:#ffe805" />
          <g
   id="g153">
           <path
   id="path1537_14"
   d="M 13040000,8827830 L 13110050,8827980 L 13110050,8878930 L 13161310,8878930 L 13161310,8826790 L 13233100,8826990 L 13233100,8878930 L 13284470,8878930 L 13284470,8826790 L 13356330,8826900 L 13356220,8944390 C 13356220,8962740 13341690,8974700 13324890,8974700 L 13072760,8974700 C 13055850,8974700 13040150,8960930 13040090,8943990 L 13039930,8827830 L 13040000,8827830 z "
   style="fill:none;stroke:#000000;stroke-width:13230" />
           <polygon
   id="path1541_15"
   points="13312900,8974700 13318500,9177800 13077600,9177910 13084300,8974700 13310900,8974700 13312900,8974700 "
   style="fill:none;stroke:#000000;stroke-width:13260" />
          </g>
         </g>
        </g>
       </g>
       <g
   id="g157">
        <path
   id="path1503_16"
   d="M 13013600,9704840 L 14003410,9704840 C 14024220,9704840 14041270,9725460 14041270,9750650 C 14041270,9775690 14024270,9796280 14003410,9796280 L 13013600,9796280 C 12992740,9796280 12975700,9775770 12975700,9750650 C 12975700,9725460 12992740,9704840 13013600,9704840 z "
   style="fill:#ffe805" />
        <path
   id="path1505_17"
   d="M 13013600,9704840 L 14003400,9704840 C 14024260,9704840 14041310,9725460 14041310,9750650 L 14041310,9750650 C 14041310,9775770 14024260,9796280 14003400,9796280 L 13013600,9796280 C 12992740,9796280 12975690,9775770 12975690,9750650 L 12975690,9750650 C 12975690,9725460 12992740,9704840 13013600,9704840 z "
   style="fill:none;stroke:#000000;stroke-width:13210" />
       </g>
      </g>
      <path
   id="path1545_18"
   d="M 13793700,9049040 C 13793550,9013730 13842580,9012910 13841960,9049040 L 13841960,9118370 L 13793700,9118370 L 13793700,9049040 z M 13483590,8919270 C 13482050,8882650 13534790,8882220 13534170,8919270 L 13534170,9009010 L 13483590,9009010 L 13483590,8919270 z M 13172140,9049740 C 13171990,9014350 13221040,9013640 13220420,9049740 L 13220420,9119080 L 13172140,9119080 L 13172140,9049740 z "
   style="fill:#000000" />
     </g>
     <g
   id="g162">
      <g
   id="g164">
       <g
   id="g166">
        <path
   id="path1499_19"
   d="M 15670100,9703140 L 15911950,9703670 L 16388720,9703670 L 16631210,9703670 L 16587360,9330240 L 15709970,9332470 M 15709910,9332470 L 15709910,9332470 L 15709910,9332470 z "
   style="fill:#ffe805" />
        <path
   id="path1501_20"
   d="M 15709900,9332550 L 15670090,9703140 L 15911940,9703670 C 15914250,9397060 16144040,9346060 16149610,9347190 C 16154820,9346880 16382600,9414990 16388670,9703670 L 16631130,9703670 L 16587350,9330240 L 15709900,9332470 L 15709900,9332550 z "
   style="fill:none;stroke:#000000;stroke-width:13210" />
        <path
   id="path1509_21"
   d="M 16014000,9703060 C 16015080,9509560 16146120,9454810 16146790,9454900 C 16146850,9454900 16283610,9511370 16284690,9703060 L 16014000,9703060"
   style="fill:none;stroke:#000000;stroke-width:13150" />
       </g>
       <g
   id="g171">
        <g
   id="g173">
         <g
   id="g175">
          <path
   id="path1511_22"
   d="M 15674800,9178950 L 16623650,9178950 C 16643630,9178950 16660010,9197430 16660010,9220100 C 16660010,9242620 16643630,9261270 16623650,9261270 L 15674800,9261270 C 15654820,9261270 15638440,9242730 15638440,9220100 C 15638440,9197430 15654820,9178950 15674800,9178950 z "
   style="fill:#ffe805" />
          <path
   id="path1513_23"
   d="M 15674800,9178840 L 16623650,9178840 C 16643630,9178840 16660010,9197430 16660010,9220010 L 16660010,9220010 C 16660010,9242620 16643630,9261160 16623650,9261160 L 15674800,9261160 C 15654820,9261160 15638440,9242730 15638440,9220010 L 15638440,9220010 C 15638440,9197430 15654820,9178840 15674800,9178840 z "
   style="fill:none;stroke:#000000;stroke-width:13200" />
         </g>
         <g
   id="g179">
          <path
   id="path1515_24"
   d="M 15694900,9261270 L 16602530,9261270 C 16621630,9261270 16637350,9279750 16637350,9302380 C 16637350,9325030 16621700,9343530 16602530,9343530 L 15694900,9343530 C 15675780,9343530 15660130,9325030 15660130,9302380 C 15660130,9279750 15675780,9261270 15694900,9261270 z "
   style="fill:#ffe805" />
          <path
   id="path1517_25"
   d="M 15694900,9261270 L 16602470,9261270 C 16621590,9261270 16637240,9279750 16637240,9302380 L 16637240,9302380 C 16637240,9325030 16621590,9343530 16602470,9343530 L 15694900,9343530 C 15675780,9343530 15660130,9325030 15660130,9302380 L 15660130,9302380 C 15660130,9279750 15675780,9261270 15694900,9261270 z "
   style="fill:none;stroke:#000000;stroke-width:13200" />
         </g>
        </g>
        <g
   id="g183">
         <g
   id="g185">
          <path
   id="_155425696"
   d="M 16300000,8827830 L 16370050,8827990 L 16370050,8878930 L 16421310,8878930 L 16421310,8826790 L 16493110,8826990 L 16493110,8878930 L 16544480,8878930 L 16544480,8826790 L 16616330,8826910 L 16616220,8944390 C 16616220,8962740 16601700,8974700 16584890,8974700 L 16573280,8974700 L 16578560,9177790 L 16337600,9177910 L 16343950,8974700 L 16332760,8974700 C 16315850,8974700 16300160,8960930 16300090,8944000 L 16299940,8827830 L 16300000,8827830 z "
   style="fill:#ffe805" />
          <g
   id="g188">
           <path
   id="path1537_26"
   d="M 16300000,8827830 L 16370050,8827980 L 16370050,8878930 L 16421310,8878930 L 16421310,8826790 L 16493100,8826990 L 16493100,8878930 L 16544480,8878930 L 16544480,8826790 L 16616330,8826900 L 16616220,8944390 C 16616220,8962740 16601700,8974700 16584900,8974700 L 16332770,8974700 C 16315860,8974700 16300160,8960930 16300090,8943990 L 16299940,8827830 L 16300000,8827830 z "
   style="fill:none;stroke:#000000;stroke-width:13230" />
           <polygon
   id="path1541_27"
   points="16572900,8974700 16578600,9177800 16337600,9177910 16344400,8974700 16571000,8974700 16572900,8974700 "
   style="fill:none;stroke:#000000;stroke-width:13260" />
          </g>
         </g>
         <g
   id="g192">
          <path
   id="path1519_28"
   d="M 16258800,8789970 L 16274300,9177140 L 16022980,9176140 L 16038910,8789970 M 15988210,8643090 L 16059860,8643210 L 16059860,8694090 L 16112150,8694090 L 16112150,8642050 L 16185510,8642280 L 16185510,8694090 L 16237980,8694090 L 16237980,8642050 L 16311450,8642170 L 16311340,8759680 C 16311340,8778000 16296510,8789970 16279350,8789970 L 16258800,8789970 L 16038910,8789970 L 16021700,8789970 C 16004390,8789970 15988370,8776220 15988370,8759220 L 15988210,8643090 z "
   style="fill:#ffe805" />
          <g
   id="g195">
           <path
   id="path1521_29"
   d="M 15988100,8643100 L 16059760,8643210 L 16059760,8694090 L 16112060,8694090 L 16112060,8642060 L 16185460,8642280 L 16185460,8694090 L 16237900,8694090 L 16237900,8642060 L 16311340,8642060 L 16311250,8759570 C 16311250,8778000 16296420,8789970 16279200,8789970 L 16021550,8789970 C 16004240,8789970 15988260,8776100 15988220,8759220 L 15988060,8643100 L 15988100,8643100 z "
   style="fill:none;stroke:#000000;stroke-width:13240" />
           <polyline
   id="path1525_30"
   points="1.6258e+007,8.80032e+006 1.62742e+007,9.17714e+006 1.60229e+007,9.17621e+006 1.60395e+007,8.79933e+006 1.6258e+007,8.80032e+006 "
   style="fill:none;stroke:#000000;stroke-width:13200" />
          </g>
         </g>
         <g
   id="g199">
          <path
   id="_145624912"
   d="M 15680300,8827830 L 15750350,8827990 L 15750350,8878930 L 15801610,8878930 L 15801610,8826790 L 15873400,8826990 L 15873400,8878930 L 15924780,8878930 L 15924780,8826790 L 15996630,8826910 L 15996520,8944390 C 15996520,8962740 15982000,8974700 15965190,8974700 L 15953580,8974700 L 15958860,9177790 L 15717900,9177910 L 15724250,8974700 L 15713060,8974700 C 15696150,8974700 15680460,8960930 15680390,8944000 L 15680240,8827830 L 15680300,8827830 z "
   style="fill:#ffe805" />
          <g
   id="g202">
           <path
   id="path1537_31"
   d="M 15680300,8827830 L 15750350,8827980 L 15750350,8878930 L 15801610,8878930 L 15801610,8826790 L 15873400,8826990 L 15873400,8878930 L 15924770,8878930 L 15924770,8826790 L 15996630,8826900 L 15996520,8944390 C 15996520,8962740 15981990,8974700 15965190,8974700 L 15713060,8974700 C 15696150,8974700 15680460,8960930 15680390,8943990 L 15680240,8827830 L 15680300,8827830 z "
   style="fill:none;stroke:#000000;stroke-width:13230" />
           <polygon
   id="path1541_32"
   points="15953200,8974700 15958900,9177800 15717900,9177910 15724700,8974700 15951300,8974700 15953200,8974700 "
   style="fill:none;stroke:#000000;stroke-width:13260" />
          </g>
         </g>
        </g>
       </g>
       <g
   id="g206">
        <path
   id="path1503_33"
   d="M 15654000,9704840 L 16643800,9704840 C 16664620,9704840 16681660,9725460 16681660,9750650 C 16681660,9775690 16664660,9796280 16643800,9796280 L 15654000,9796280 C 15633130,9796280 15616090,9775770 15616090,9750650 C 15616090,9725460 15633130,9704840 15654000,9704840 z "
   style="fill:#ffe805" />
        <path
   id="path1505_34"
   d="M 15654000,9704840 L 16643800,9704840 C 16664670,9704840 16681710,9725460 16681710,9750650 L 16681710,9750650 C 16681710,9775770 16664670,9796280 16643800,9796280 L 15654000,9796280 C 15633140,9796280 15616100,9775770 15616100,9750650 L 15616100,9750650 C 15616100,9725460 15633140,9704840 15654000,9704840 z "
   style="fill:none;stroke:#000000;stroke-width:13210" />
       </g>
      </g>
      <path
   id="path1545_35"
   d="M 16434100,9049040 C 16433950,9013730 16482980,9012910 16482360,9049040 L 16482360,9118370 L 16434100,9118370 L 16434100,9049040 z M 16123990,8919270 C 16122450,8882650 16175190,8882220 16174570,8919270 L 16174570,9009010 L 16123990,9009010 L 16123990,8919270 z M 15812540,9049740 C 15812390,9014350 15861450,9013640 15860820,9049740 L 15860820,9119080 L 15812540,9119080 L 15812540,9049740 z "
   style="fill:#000000" />
     </g>
     <g
   id="g211">
      <g
   id="g213">
       <g
   id="g215">
        <path
   id="path1499_36"
   d="M 10361000,12408100 L 10602850,12408630 L 11079620,12408630 L 11322110,12408630 L 11278260,12035190 L 10400870,12037420 M 10400810,12037420 L 10400810,12037420 L 10400810,12037420 z "
   style="fill:#ffe805" />
        <path
   id="path1501_37"
   d="M 10400800,12037500 L 10360990,12408090 L 10602840,12408620 C 10605150,12102000 10834940,12051010 10840510,12052130 C 10845720,12051820 11073500,12119930 11079570,12408620 L 11322030,12408620 L 11278250,12035180 L 10400800,12037410 L 10400800,12037500 z "
   style="fill:none;stroke:#000000;stroke-width:13210" />
        <path
   id="path1509_38"
   d="M 10704800,12408000 C 10705880,12214500 10836920,12159750 10837590,12159840 C 10837650,12159840 10974410,12216310 10975490,12408000 L 10704800,12408000"
   style="fill:none;stroke:#000000;stroke-width:13150" />
       </g>
       <g
   id="g220">
        <g
   id="g222">
         <g
   id="g224">
          <path
   id="path1511_39"
   d="M 10365700,11883900 L 11314550,11883900 C 11334530,11883900 11350910,11902380 11350910,11925050 C 11350910,11947570 11334530,11966220 11314550,11966220 L 10365700,11966220 C 10345720,11966220 10329340,11947680 10329340,11925050 C 10329340,11902380 10345720,11883900 10365700,11883900 z "
   style="fill:#ffe805" />
          <path
   id="path1513_40"
   d="M 10365700,11883800 L 11314550,11883800 C 11334530,11883800 11350910,11902390 11350910,11924970 L 11350910,11924970 C 11350910,11947580 11334530,11966120 11314550,11966120 L 10365700,11966120 C 10345720,11966120 10329340,11947690 10329340,11924970 L 10329340,11924970 C 10329340,11902390 10345720,11883800 10365700,11883800 z "
   style="fill:none;stroke:#000000;stroke-width:13200" />
         </g>
         <g
   id="g228">
          <path
   id="path1515_41"
   d="M 10385700,11966200 L 11293330,11966200 C 11312430,11966200 11328150,11984680 11328150,12007310 C 11328150,12029960 11312500,12048460 11293330,12048460 L 10385700,12048460 C 10366580,12048460 10350930,12029960 10350930,12007310 C 10350930,11984680 10366580,11966200 10385700,11966200 z "
   style="fill:#ffe805" />
          <path
   id="path1517_42"
   d="M 10385700,11966200 L 11293270,11966200 C 11312390,11966200 11328040,11984680 11328040,12007310 L 11328040,12007310 C 11328040,12029960 11312390,12048460 11293270,12048460 L 10385700,12048460 C 10366580,12048460 10350930,12029960 10350930,12007310 L 10350930,12007310 C 10350930,11984680 10366580,11966200 10385700,11966200 z "
   style="fill:none;stroke:#000000;stroke-width:13200" />
         </g>
        </g>
        <g
   id="g232">
         <g
   id="g234">
          <path
   id="_100941488"
   d="M 10990900,11532800 L 11060950,11532960 L 11060950,11583910 L 11112210,11583910 L 11112210,11531760 L 11184010,11531970 L 11184010,11583910 L 11235380,11583910 L 11235380,11531760 L 11307230,11531880 L 11307120,11649370 C 11307120,11667710 11292600,11679680 11275790,11679680 L 11264180,11679680 L 11269460,11882770 L 11028500,11882880 L 11034850,11679680 L 11023660,11679680 C 11006750,11679680 10991060,11665900 10990990,11648970 L 10990840,11532800 L 10990900,11532800 z "
   style="fill:#ffe805" />
          <g
   id="g237">
           <path
   id="path1537_43"
   d="M 10990900,11532800 L 11060950,11532960 L 11060950,11583910 L 11112210,11583910 L 11112210,11531760 L 11184000,11531960 L 11184000,11583910 L 11235380,11583910 L 11235380,11531760 L 11307230,11531880 L 11307120,11649360 C 11307120,11667710 11292600,11679670 11275800,11679670 L 11023670,11679670 C 11006760,11679670 10991060,11665900 10990990,11648970 L 10990840,11532800 L 10990900,11532800 z "
   style="fill:none;stroke:#000000;stroke-width:13230" />
           <polygon
   id="path1541_44"
   points="11263800,11679700 11269400,11882800 11028500,11882900 11035300,11679700 11261800,11679700 11263800,11679700 "
   style="fill:none;stroke:#000000;stroke-width:13260" />
          </g>
         </g>
         <g
   id="g241">
          <path
   id="path1519_45"
   d="M 10949600,11494900 L 10965100,11882070 L 10713780,11881080 L 10729710,11494900 M 10679010,11348030 L 10750660,11348140 L 10750660,11399030 L 10802950,11399030 L 10802950,11346990 L 10876310,11347210 L 10876310,11399030 L 10928780,11399030 L 10928780,11346990 L 11002250,11347110 L 11002140,11464610 C 11002140,11482940 10987310,11494900 10970150,11494900 L 10949600,11494900 L 10729710,11494900 L 10712500,11494900 C 10695190,11494900 10679170,11481150 10679170,11464150 L 10679010,11348030 z "
   style="fill:#ffe805" />
          <g
   id="g244">
           <path
   id="path1521_46"
   d="M 10678900,11348100 L 10750560,11348210 L 10750560,11399100 L 10802860,11399100 L 10802860,11347060 L 10876260,11347280 L 10876260,11399100 L 10928700,11399100 L 10928700,11347060 L 11002140,11347060 L 11002050,11464570 C 11002050,11483010 10987220,11494970 10970000,11494970 L 10712350,11494970 C 10695040,11494970 10679060,11481110 10679010,11464220 L 10678860,11348100 L 10678900,11348100 z "
   style="fill:none;stroke:#000000;stroke-width:13240" />
           <polyline
   id="path1525_47"
   points="1.09489e+007,1.15053e+007 1.0965e+007,1.18821e+007 1.07137e+007,1.18812e+007 1.07304e+007,1.15043e+007 1.09489e+007,1.15053e+007 "
   style="fill:none;stroke:#000000;stroke-width:13200" />
          </g>
         </g>
         <g
   id="g248">
          <path
   id="_172915808"
   d="M 10371200,11532800 L 10441250,11532960 L 10441250,11583910 L 10492510,11583910 L 10492510,11531760 L 10564300,11531970 L 10564300,11583910 L 10615680,11583910 L 10615680,11531760 L 10687530,11531880 L 10687420,11649370 C 10687420,11667710 10672900,11679680 10656090,11679680 L 10644480,11679680 L 10649760,11882770 L 10408800,11882880 L 10415150,11679680 L 10403960,11679680 C 10387050,11679680 10371360,11665900 10371290,11648970 L 10371140,11532800 L 10371200,11532800 z "
   style="fill:#ffe805" />
          <g
   id="g251">
           <path
   id="path1537_48"
   d="M 10371200,11532800 L 10441250,11532960 L 10441250,11583910 L 10492510,11583910 L 10492510,11531760 L 10564300,11531960 L 10564300,11583910 L 10615670,11583910 L 10615670,11531760 L 10687530,11531880 L 10687420,11649360 C 10687420,11667710 10672890,11679670 10656090,11679670 L 10403960,11679670 C 10387050,11679670 10371360,11665900 10371290,11648970 L 10371140,11532800 L 10371200,11532800 z "
   style="fill:none;stroke:#000000;stroke-width:13230" />
           <polygon
   id="path1541_49"
   points="10644100,11679700 10649700,11882800 10408800,11882900 10415600,11679700 10642100,11679700 10644100,11679700 "
   style="fill:none;stroke:#000000;stroke-width:13260" />
          </g>
         </g>
        </g>
       </g>
       <g
   id="g255">
        <path
   id="path1503_50"
   d="M 10344800,12409800 L 11334600,12409800 C 11355420,12409800 11372460,12430420 11372460,12455610 C 11372460,12480640 11355460,12501240 11334600,12501240 L 10344800,12501240 C 10323930,12501240 10306890,12480730 10306890,12455610 C 10306890,12430420 10323930,12409800 10344800,12409800 z "
   style="fill:#ffe805" />
        <path
   id="path1505_51"
   d="M 10344800,12409800 L 11334600,12409800 C 11355470,12409800 11372510,12430420 11372510,12455610 L 11372510,12455610 C 11372510,12480730 11355470,12501240 11334600,12501240 L 10344800,12501240 C 10323940,12501240 10306900,12480730 10306900,12455610 L 10306900,12455610 C 10306900,12430420 10323940,12409800 10344800,12409800 z "
   style="fill:none;stroke:#000000;stroke-width:13210" />
       </g>
      </g>
      <path
   id="path1545_52"
   d="M 11124900,11754000 C 11124750,11718690 11173780,11717880 11173160,11754000 L 11173160,11823330 L 11124900,11823330 L 11124900,11754000 z M 10814790,11624240 C 10813250,11587610 10865990,11587180 10865370,11624240 L 10865370,11713970 L 10814790,11713970 L 10814790,11624240 z M 10503340,11754710 C 10503190,11719310 10552250,11718600 10551620,11754710 L 10551620,11824040 L 10503340,11824040 L 10503340,11754710 z "
   style="fill:#000000" />
     </g>
     <g
   id="g260">
      <g
   id="g262">
       <g
   id="g264">
        <path
   id="path1499_53"
   d="M 15666100,12408700 L 15907940,12409230 L 16384720,12409230 L 16627200,12409230 L 16583360,12035790 L 15705970,12038020 M 15705900,12038020 L 15705900,12038020 L 15705900,12038020 z "
   style="fill:#ffe805" />
        <path
   id="path1501_54"
   d="M 15705900,12038100 L 15666100,12408690 L 15907940,12409220 C 15910260,12102600 16140050,12051610 16145610,12052730 C 16150820,12052430 16378600,12120530 16384670,12409220 L 16627140,12409220 L 16583360,12035780 L 15705900,12038010 L 15705900,12038100 z "
   style="fill:none;stroke:#000000;stroke-width:13210" />
        <path
   id="path1509_55"
   d="M 16009900,12408600 C 16010990,12215100 16142030,12160360 16142690,12160440 C 16142760,12160440 16279520,12216910 16280600,12408600 L 16009900,12408600"
   style="fill:none;stroke:#000000;stroke-width:13150" />
       </g>
       <g
   id="g269">
        <g
   id="g271">
         <g
   id="g273">
          <path
   id="path1511_56"
   d="M 15670800,11884500 L 16619650,11884500 C 16639630,11884500 16656010,11902980 16656010,11925650 C 16656010,11948170 16639630,11966820 16619650,11966820 L 15670800,11966820 C 15650820,11966820 15634440,11948280 15634440,11925650 C 15634440,11902980 15650820,11884500 15670800,11884500 z "
   style="fill:#ffe805" />
          <path
   id="path1513_57"
   d="M 15670800,11884400 L 16619650,11884400 C 16639630,11884400 16656010,11902990 16656010,11925570 L 16656010,11925570 C 16656010,11948180 16639630,11966720 16619650,11966720 L 15670800,11966720 C 15650820,11966720 15634440,11948290 15634440,11925570 L 15634440,11925570 C 15634440,11902990 15650820,11884400 15670800,11884400 z "
   style="fill:none;stroke:#000000;stroke-width:13200" />
         </g>
         <g
   id="g277">
          <path
   id="path1515_58"
   d="M 15690800,11966800 L 16598440,11966800 C 16617540,11966800 16633250,11985280 16633250,12007910 C 16633250,12030560 16617600,12049060 16598440,12049060 L 15690800,12049060 C 15671690,12049060 15656030,12030560 15656030,12007910 C 15656030,11985280 15671690,11966800 15690800,11966800 z "
   style="fill:#ffe805" />
          <path
   id="path1517_59"
   d="M 15690800,11966800 L 16598370,11966800 C 16617490,11966800 16633140,11985280 16633140,12007910 L 16633140,12007910 C 16633140,12030560 16617490,12049060 16598370,12049060 L 15690800,12049060 C 15671690,12049060 15656030,12030560 15656030,12007910 L 15656030,12007910 C 15656030,11985280 15671690,11966800 15690800,11966800 z "
   style="fill:none;stroke:#000000;stroke-width:13200" />
         </g>
        </g>
        <g
   id="g281">
         <g
   id="g283">
          <path
   id="_147914688"
   d="M 16296000,11533400 L 16366050,11533560 L 16366050,11584510 L 16417310,11584510 L 16417310,11532360 L 16489100,11532570 L 16489100,11584510 L 16540480,11584510 L 16540480,11532360 L 16612320,11532480 L 16612220,11649970 C 16612220,11668310 16597690,11680280 16580890,11680280 L 16569280,11680280 L 16574550,11883370 L 16333600,11883480 L 16339940,11680280 L 16328760,11680280 C 16311850,11680280 16296160,11666500 16296080,11649570 L 16295930,11533400 L 16296000,11533400 z "
   style="fill:#ffe805" />
          <g
   id="g286">
           <path
   id="path1537_60"
   d="M 16296000,11533400 L 16366050,11533560 L 16366050,11584510 L 16417310,11584510 L 16417310,11532370 L 16489100,11532560 L 16489100,11584510 L 16540470,11584510 L 16540470,11532370 L 16612330,11532480 L 16612220,11649960 C 16612220,11668310 16597690,11680280 16580890,11680280 L 16328760,11680280 C 16311850,11680280 16296160,11666500 16296090,11649570 L 16295930,11533400 L 16296000,11533400 z "
   style="fill:none;stroke:#000000;stroke-width:13230" />
           <polygon
   id="path1541_61"
   points="16568900,11680300 16574600,11883400 16333600,11883500 16340400,11680300 16567000,11680300 16568900,11680300 "
   style="fill:none;stroke:#000000;stroke-width:13260" />
          </g>
         </g>
         <g
   id="g290">
          <path
   id="path1519_62"
   d="M 16254700,11495500 L 16270190,11882670 L 16018880,11881680 L 16034800,11495500 M 15984100,11348630 L 16055760,11348750 L 16055760,11399630 L 16108040,11399630 L 16108040,11347590 L 16181400,11347810 L 16181400,11399630 L 16233880,11399630 L 16233880,11347590 L 16307340,11347710 L 16307240,11465220 C 16307240,11483540 16292400,11495500 16275250,11495500 L 16254700,11495500 L 16034800,11495500 L 16017590,11495500 C 16000290,11495500 15984260,11481750 15984260,11464750 L 15984100,11348630 z "
   style="fill:#ffe805" />
          <g
   id="g293">
           <path
   id="path1521_63"
   d="M 15984100,11348700 L 16055760,11348810 L 16055760,11399700 L 16108060,11399700 L 16108060,11347660 L 16181460,11347880 L 16181460,11399700 L 16233890,11399700 L 16233890,11347660 L 16307340,11347660 L 16307250,11465170 C 16307250,11483610 16292410,11495570 16275200,11495570 L 16017550,11495570 C 16000240,11495570 15984250,11481710 15984210,11464820 L 15984060,11348700 L 15984100,11348700 z "
   style="fill:none;stroke:#000000;stroke-width:13240" />
           <polyline
   id="path1525_64"
   points="1.6254e+007,1.15059e+007 1.62702e+007,1.18827e+007 1.60189e+007,1.18818e+007 1.60355e+007,1.15049e+007 1.6254e+007,1.15059e+007 "
   style="fill:none;stroke:#000000;stroke-width:13200" />
          </g>
         </g>
         <g
   id="g297">
          <path
   id="_148860072"
   d="M 15676300,11533400 L 15746350,11533560 L 15746350,11584510 L 15797600,11584510 L 15797600,11532360 L 15869400,11532570 L 15869400,11584510 L 15920770,11584510 L 15920770,11532360 L 15992620,11532480 L 15992510,11649970 C 15992510,11668310 15977990,11680280 15961190,11680280 L 15949570,11680280 L 15954850,11883370 L 15713890,11883480 L 15720240,11680280 L 15709060,11680280 C 15692150,11680280 15676460,11666500 15676380,11649570 L 15676230,11533400 L 15676300,11533400 z "
   style="fill:#ffe805" />
          <g
   id="g300">
           <path
   id="path1537_65"
   d="M 15676300,11533400 L 15746350,11533560 L 15746350,11584510 L 15797610,11584510 L 15797610,11532370 L 15869400,11532560 L 15869400,11584510 L 15920770,11584510 L 15920770,11532370 L 15992630,11532480 L 15992520,11649960 C 15992520,11668310 15977990,11680280 15961190,11680280 L 15709060,11680280 C 15692150,11680280 15676450,11666500 15676390,11649570 L 15676230,11533400 L 15676300,11533400 z "
   style="fill:none;stroke:#000000;stroke-width:13230" />
           <polygon
   id="path1541_66"
   points="15949200,11680300 15954900,11883400 15713900,11883500 15720700,11680300 15947300,11680300 15949200,11680300 "
   style="fill:none;stroke:#000000;stroke-width:13260" />
          </g>
         </g>
        </g>
       </g>
       <g
   id="g304">
        <path
   id="path1503_67"
   d="M 15650000,12410400 L 16639800,12410400 C 16660620,12410400 16677660,12431020 16677660,12456210 C 16677660,12481240 16660670,12501840 16639800,12501840 L 15650000,12501840 C 15629140,12501840 15612100,12481330 15612100,12456210 C 15612100,12431020 15629140,12410400 15650000,12410400 z "
   style="fill:#ffe805" />
        <path
   id="path1505_68"
   d="M 15649900,12410400 L 16639700,12410400 C 16660560,12410400 16677600,12431020 16677600,12456210 L 16677600,12456210 C 16677600,12481330 16660560,12501840 16639700,12501840 L 15649900,12501840 C 15629040,12501840 15611990,12481330 15611990,12456210 L 15611990,12456210 C 15611990,12431020 15629040,12410400 15649900,12410400 z "
   style="fill:none;stroke:#000000;stroke-width:13210" />
       </g>
      </g>
      <path
   id="path1545_69"
   d="M 16430100,11754600 C 16429950,11719290 16478980,11718480 16478360,11754600 L 16478360,11823930 L 16430100,11823930 L 16430100,11754600 z M 16120000,11624840 C 16118450,11588210 16171200,11587780 16170580,11624840 L 16170580,11714570 L 16120000,11714570 L 16120000,11624840 z M 15808550,11755310 C 15808400,11719910 15857450,11719210 15856830,11755310 L 15856830,11824640 L 15808550,11824640 L 15808550,11755310 z "
   style="fill:#000000" />
     </g>
     <g
   id="g309">
      <g
   id="g311">
       <g
   id="g313">
        <path
   id="path1499_70"
   d="M 14852400,14735400 L 15023030,14906780 L 15360160,15243920 L 15531620,15415380 L 15764680,15120320 L 15142700,14501480 M 15142650,14501440 L 15142650,14501440 L 15142650,14501440 z "
   style="fill:#ffe805" />
        <path
   id="path1501_71"
   d="M 15142600,14501500 L 14852410,14735400 L 15023040,14906780 C 15241490,14691610 15440030,14818040 15443170,14822770 C 15447070,14826240 15559980,15035460 15360140,15243890 L 15531590,15415330 L 15764690,15120320 L 15142660,14501440 L 15142600,14501500 z "
   style="fill:none;stroke:#000000;stroke-width:13210" />
        <path
   id="path1509_72"
   d="M 15095600,14978400 C 15233180,14842340 15364560,14896290 15364960,14896820 C 15365010,14896860 15421790,15033500 15287010,15169810 L 15095600,14978400"
   style="fill:none;stroke:#000000;stroke-width:13150" />
       </g>
       <g
   id="g318">
        <g
   id="g320">
         <g
   id="g322">
          <path
   id="path1511_73"
   d="M 15226400,14368000 L 15897340,15038940 C 15911460,15053060 15909980,15077710 15893950,15093740 C 15878030,15109670 15853250,15111270 15839130,15097150 L 15168190,14426210 C 15154060,14412080 15155590,14387390 15171590,14371380 C 15187620,14355350 15212270,14353870 15226400,14368000 z "
   style="fill:#ffe805" />
          <path
   id="path1513_74"
   d="M 15226500,14367900 L 15897430,15038840 C 15911560,15052970 15910000,15077690 15894030,15093660 L 15894030,15093660 C 15878050,15109650 15853350,15111180 15839220,15097050 L 15168290,14426110 C 15154160,14411980 15155610,14387370 15171670,14371300 L 15171670,14371300 C 15187640,14355330 15212370,14353770 15226500,14367900 z "
   style="fill:none;stroke:#000000;stroke-width:13200" />
         </g>
         <g
   id="g326">
          <path
   id="path1515_75"
   d="M 15182400,14440400 L 15824200,15082200 C 15837700,15095700 15835750,15119880 15819750,15135880 C 15803730,15151900 15779580,15153910 15766030,15140360 L 15124240,14498560 C 15110720,14485050 15112730,14460900 15128750,14444880 C 15144750,14428880 15168880,14426880 15182400,14440400 z "
   style="fill:#ffe805" />
          <path
   id="path1517_76"
   d="M 15182400,14440400 L 15824150,15082150 C 15837670,15095670 15835670,15119800 15819670,15135800 L 15819670,15135800 C 15803650,15151820 15779500,15153830 15765990,15140310 L 15124240,14498560 C 15110720,14485050 15112730,14460900 15128750,14444880 L 15128750,14444880 C 15144750,14428880 15168880,14426880 15182400,14440400 z "
   style="fill:none;stroke:#000000;stroke-width:13200" />
         </g>
        </g>
        <g
   id="g330">
         <g
   id="g332">
          <path
   id="_119604248"
   d="M 15916800,14561800 L 15966220,14611450 L 15930190,14647470 L 15966430,14683720 L 16003310,14646850 L 16053930,14697760 L 16017200,14734490 L 16053530,14770810 L 16090400,14733940 L 16141120,14784830 L 16057970,14867830 C 16045000,14880800 16026270,14878990 16014390,14867110 L 16006170,14858900 L 15866300,15006240 L 15695840,14835940 L 15844010,14696740 L 15836100,14688830 C 15824150,14676870 15822790,14656030 15834710,14644010 L 15916750,14561760 L 15916800,14561800 z "
   style="fill:#ffe805" />
          <g
   id="g335">
           <path
   id="path1537_77"
   d="M 15916800,14561800 L 15966220,14611440 L 15930190,14647460 L 15966440,14683710 L 16003310,14646840 L 16053930,14697750 L 16017200,14734480 L 16053520,14770800 L 16090400,14733930 L 16141130,14784820 L 16057970,14867820 C 16045000,14880790 16026270,14878980 16014390,14867100 L 15836110,14688820 C 15824150,14676860 15822790,14656020 15834720,14644000 L 15916750,14561750 L 15916800,14561800 z "
   style="fill:none;stroke:#000000;stroke-width:13230" />
           <polygon
   id="path1541_78"
   points="16005900,14858700 15866300,15006300 15695800,14836000 15844300,14697100 16004500,14857300 16005900,14858700 "
   style="fill:none;stroke:#000000;stroke-width:13260" />
          </g>
         </g>
         <g
   id="g339">
          <path
   id="path1519_79"
   d="M 15914400,14505900 L 15651590,14790630 L 15474590,14612220 L 15758920,14350420 M 15826920,14210710 L 15877510,14261460 L 15841530,14297440 L 15878500,14334410 L 15915300,14297610 L 15967010,14349640 L 15930370,14386280 L 15967480,14423390 L 16004270,14386590 L 16056140,14438620 L 15972970,14521640 C 15960020,14534600 15941070,14532570 15928930,14520440 L 15914400,14505900 L 15758920,14350420 L 15746750,14338250 C 15734510,14326010 15732900,14304950 15744920,14292940 L 15826920,14210710 z "
   style="fill:#ffe805" />
          <g
   id="g342">
           <path
   id="path1521_80"
   d="M 15826800,14210600 L 15877390,14261340 L 15841410,14297330 L 15878390,14334310 L 15915180,14297510 L 15966930,14349570 L 15930290,14386210 L 15967370,14423280 L 16004160,14386490 L 16056090,14438430 L 15972940,14521460 C 15959900,14534490 15940950,14532460 15928780,14520290 L 15746590,14338100 C 15734350,14325860 15732850,14304760 15744760,14292780 L 15826760,14210560 L 15826800,14210600 z "
   style="fill:none;stroke:#000000;stroke-width:13240" />
           <polyline
   id="path1525_81"
   points="1.59065e+007,1.45127e+007 1.56515e+007,1.47906e+007 1.54745e+007,1.46122e+007 1.57527e+007,1.43575e+007 1.59065e+007,1.45127e+007 "
   style="fill:none;stroke:#000000;stroke-width:13200" />
          </g>
         </g>
         <g
   id="g346">
          <path
   id="_106729952"
   d="M 15478600,14123600 L 15528020,14173240 L 15491990,14209270 L 15528240,14245510 L 15565110,14208640 L 15615730,14259550 L 15579010,14296280 L 15615330,14332610 L 15652200,14295730 L 15702930,14346620 L 15619780,14429620 C 15606800,14442590 15588070,14440790 15576190,14428900 L 15567980,14420690 L 15428100,14568030 L 15257640,14397730 L 15405820,14258530 L 15397910,14250620 C 15385950,14238660 15384600,14217830 15396510,14205800 L 15478550,14123550 L 15478600,14123600 z "
   style="fill:#ffe805" />
          <g
   id="g349">
           <path
   id="path1537_82"
   d="M 15478600,14123600 L 15528020,14173240 L 15491990,14209270 L 15528240,14245520 L 15565110,14208640 L 15615730,14259550 L 15579000,14296280 L 15615330,14332600 L 15652200,14295730 L 15702930,14346620 L 15619780,14429620 C 15606810,14442590 15588070,14440780 15576190,14428900 L 15397910,14250620 C 15385950,14238660 15384600,14217820 15396520,14205800 L 15478550,14123550 L 15478600,14123600 z "
   style="fill:none;stroke:#000000;stroke-width:13230" />
           <polygon
   id="path1541_83"
   points="15567700,14420500 15428100,14568100 15257600,14397800 15406100,14258900 15566300,14419100 15567700,14420500 "
   style="fill:none;stroke:#000000;stroke-width:13260" />
          </g>
         </g>
        </g>
       </g>
       <g
   id="g353">
        <path
   id="path1503_84"
   d="M 14839800,14725200 L 15539700,15425100 C 15554420,15439820 15551890,15466450 15534080,15484260 C 15516380,15501960 15489790,15504510 15475040,15489750 L 14775150,14789860 C 14760390,14775110 14762840,14748550 14780610,14730790 C 14798420,14712980 14825050,14710450 14839800,14725200 z "
   style="fill:#ffe805" />
        <path
   id="path1505_85"
   d="M 14839800,14725100 L 15539700,15425000 C 15554450,15439750 15551920,15466380 15534110,15484190 L 15534110,15484190 C 15516340,15501950 15489790,15504410 15475040,15489650 L 14775140,14789760 C 14760390,14775010 14762840,14748450 14780610,14730690 L 14780610,14730690 C 14798420,14712880 14825050,14710350 14839800,14725100 z "
   style="fill:none;stroke:#000000;stroke-width:13210" />
       </g>
      </g>
      <path
   id="path1545_86"
   d="M 15855200,14813100 C 15880060,14788030 15915300,14822120 15889320,14847230 L 15840290,14896250 L 15806170,14862130 L 15855200,14813100 z M 15727670,14502060 C 15752480,14475080 15790080,14512070 15763440,14537830 L 15699990,14601280 L 15664220,14565520 L 15727670,14502060 z M 15415190,14374090 C 15440110,14348960 15475300,14383150 15449330,14408230 L 15400300,14457260 L 15366160,14423120 L 15415190,14374090 z "
   style="fill:#000000" />
     </g>
     <g
   id="g358">
      <g
   id="g360">
       <g
   id="g362">
        <path
   id="path1499_87"
   d="M 12143500,14735400 L 11972870,14906780 L 11635740,15243920 L 11464280,15415380 L 11231220,15120320 L 11853200,14501480 M 11853250,14501440 L 11853250,14501440 L 11853250,14501440 z "
   style="fill:#ffe805" />
        <path
   id="path1501_88"
   d="M 11853300,14501500 L 12143490,14735400 L 11972860,14906780 C 11754410,14691610 11555870,14818040 11552730,14822770 C 11548830,14826240 11435920,15035460 11635760,15243890 L 11464310,15415330 L 11231210,15120320 L 11853240,14501440 L 11853300,14501500 z "
   style="fill:none;stroke:#000000;stroke-width:13210" />
        <path
   id="path1509_89"
   d="M 11900300,14978400 C 11762720,14842340 11631340,14896290 11630940,14896820 C 11630890,14896860 11574110,15033500 11708890,15169810 L 11900300,14978400"
   style="fill:none;stroke:#000000;stroke-width:13150" />
       </g>
       <g
   id="g367">
        <g
   id="g369">
         <g
   id="g371">
          <path
   id="path1511_90"
   d="M 11769500,14368000 L 11098560,15038940 C 11084440,15053060 11085920,15077710 11101950,15093740 C 11117870,15109670 11142650,15111270 11156770,15097150 L 11827710,14426210 C 11841840,14412080 11840310,14387390 11824310,14371380 C 11808280,14355350 11783630,14353870 11769500,14368000 z "
   style="fill:#ffe805" />
          <path
   id="path1513_91"
   d="M 11769400,14367900 L 11098460,15038840 C 11084340,15052970 11085900,15077690 11101870,15093660 L 11101870,15093660 C 11117850,15109650 11142550,15111180 11156670,15097050 L 11827610,14426110 C 11841740,14411980 11840290,14387370 11824230,14371300 L 11824230,14371300 C 11808260,14355330 11783530,14353770 11769400,14367900 z "
   style="fill:none;stroke:#000000;stroke-width:13200" />
         </g>
         <g
   id="g375">
          <path
   id="path1515_92"
   d="M 11813600,14440400 L 11171800,15082200 C 11158300,15095700 11160250,15119880 11176250,15135880 C 11192270,15151900 11216420,15153910 11229970,15140360 L 11871760,14498560 C 11885280,14485050 11883270,14460900 11867250,14444880 C 11851250,14428880 11827120,14426880 11813600,14440400 z "
   style="fill:#ffe805" />
          <path
   id="path1517_93"
   d="M 11813600,14440400 L 11171850,15082150 C 11158330,15095670 11160330,15119800 11176330,15135800 L 11176330,15135800 C 11192350,15151820 11216490,15153830 11230010,15140310 L 11871760,14498560 C 11885280,14485050 11883270,14460900 11867250,14444880 L 11867250,14444880 C 11851250,14428880 11827120,14426880 11813600,14440400 z "
   style="fill:none;stroke:#000000;stroke-width:13200" />
         </g>
        </g>
        <g
   id="g379">
         <g
   id="g381">
          <path
   id="_117402912"
   d="M 11079100,14561800 L 11029680,14611450 L 11065710,14647470 L 11029470,14683720 L 10992590,14646850 L 10941970,14697760 L 10978700,14734490 L 10942370,14770810 L 10905500,14733940 L 10854780,14784830 L 10937930,14867830 C 10950900,14880800 10969630,14878990 10981510,14867110 L 10989720,14858900 L 11129600,15006240 L 11300060,14835940 L 11151890,14696740 L 11159800,14688830 C 11171750,14676870 11173110,14656030 11161190,14644010 L 11079150,14561760 L 11079100,14561800 z "
   style="fill:#ffe805" />
          <g
   id="g384">
           <path
   id="path1537_94"
   d="M 11079100,14561800 L 11029680,14611440 L 11065710,14647460 L 11029460,14683710 L 10992590,14646840 L 10941970,14697750 L 10978700,14734480 L 10942380,14770800 L 10905500,14733930 L 10854770,14784820 L 10937930,14867820 C 10950900,14880790 10969630,14878980 10981510,14867100 L 11159790,14688820 C 11171750,14676860 11173110,14656020 11161180,14644000 L 11079150,14561750 L 11079100,14561800 z "
   style="fill:none;stroke:#000000;stroke-width:13230" />
           <polygon
   id="path1541_95"
   points="10990000,14858700 11129600,15006300 11300100,14836000 11151600,14697100 10991400,14857300 10990000,14858700 "
   style="fill:none;stroke:#000000;stroke-width:13260" />
          </g>
         </g>
         <g
   id="g388">
          <path
   id="path1519_96"
   d="M 11081600,14505900 L 11344410,14790630 L 11521410,14612220 L 11237080,14350420 M 11169080,14210710 L 11118490,14261460 L 11154470,14297440 L 11117500,14334410 L 11080700,14297610 L 11028990,14349640 L 11065630,14386280 L 11028520,14423390 L 10991720,14386590 L 10939860,14438620 L 11023030,14521640 C 11035980,14534600 11054930,14532570 11067070,14520440 L 11081600,14505900 L 11237080,14350420 L 11249250,14338250 C 11261490,14326010 11263100,14304950 11251080,14292940 L 11169080,14210710 z "
   style="fill:#ffe805" />
          <g
   id="g391">
           <path
   id="path1521_97"
   d="M 11169100,14210600 L 11118510,14261340 L 11154490,14297330 L 11117510,14334310 L 11080720,14297510 L 11028970,14349570 L 11065610,14386210 L 11028530,14423280 L 10991740,14386490 L 10939810,14438430 L 11022960,14521460 C 11036000,14534490 11054950,14532460 11067120,14520290 L 11249310,14338100 C 11261550,14325860 11263050,14304760 11251140,14292780 L 11169130,14210560 L 11169100,14210600 z "
   style="fill:none;stroke:#000000;stroke-width:13240" />
           <polyline
   id="path1525_98"
   points="1.10894e+007,1.45127e+007 1.13444e+007,1.47906e+007 1.15215e+007,1.46122e+007 1.12432e+007,1.43575e+007 1.10894e+007,1.45127e+007 "
   style="fill:none;stroke:#000000;stroke-width:13200" />
          </g>
         </g>
         <g
   id="g395">
          <path
   id="_148433640"
   d="M 11517300,14123600 L 11467880,14173240 L 11503900,14209270 L 11467660,14245510 L 11430790,14208640 L 11380170,14259550 L 11416890,14296280 L 11380570,14332610 L 11343690,14295730 L 11292970,14346620 L 11376120,14429620 C 11389100,14442590 11407830,14440790 11419710,14428900 L 11427920,14420690 L 11567800,14568030 L 11738260,14397730 L 11590080,14258530 L 11597990,14250620 C 11609950,14238660 11611300,14217830 11599380,14205800 L 11517350,14123550 L 11517300,14123600 z "
   style="fill:#ffe805" />
          <g
   id="g398">
           <path
   id="path1537_99"
   d="M 11517300,14123600 L 11467880,14173240 L 11503910,14209270 L 11467660,14245520 L 11430790,14208640 L 11380170,14259550 L 11416900,14296280 L 11380570,14332600 L 11343700,14295730 L 11292970,14346620 L 11376120,14429620 C 11389090,14442590 11407830,14440780 11419710,14428900 L 11597990,14250620 C 11609950,14238660 11611300,14217820 11599380,14205800 L 11517350,14123550 L 11517300,14123600 z "
   style="fill:none;stroke:#000000;stroke-width:13230" />
           <polygon
   id="path1541_100"
   points="11428200,14420500 11567800,14568100 11738300,14397800 11589800,14258900 11429600,14419100 11428200,14420500 "
   style="fill:none;stroke:#000000;stroke-width:13260" />
          </g>
         </g>
        </g>
       </g>
       <g
   id="g402">
        <path
   id="path1503_101"
   d="M 12156100,14725200 L 11456200,15425100 C 11441480,15439820 11444010,15466450 11461820,15484260 C 11479520,15501960 11506110,15504510 11520860,15489750 L 12220750,14789860 C 12235510,14775110 12233050,14748550 12215290,14730790 C 12197480,14712980 12170850,14710450 12156100,14725200 z "
   style="fill:#ffe805" />
        <path
   id="path1505_102"
   d="M 12156100,14725100 L 11456200,15425000 C 11441450,15439750 11443980,15466380 11461790,15484190 L 11461790,15484190 C 11479550,15501950 11506110,15504410 11520860,15489650 L 12220760,14789760 C 12235510,14775010 12233060,14748450 12215290,14730690 L 12215290,14730690 C 12197480,14712880 12170850,14710350 12156100,14725100 z "
   style="fill:none;stroke:#000000;stroke-width:13210" />
       </g>
      </g>
      <path
   id="path1545_103"
   d="M 11140800,14813100 C 11115940,14788030 11080700,14822120 11106680,14847230 L 11155710,14896250 L 11189830,14862130 L 11140800,14813100 z M 11268330,14502060 C 11243520,14475080 11205920,14512070 11232560,14537830 L 11296010,14601280 L 11331780,14565520 L 11268330,14502060 z M 11580810,14374090 C 11555890,14348960 11520700,14383150 11546670,14408230 L 11595700,14457260 L 11629840,14423120 L 11580810,14374090 z "
   style="fill:#000000" />
     </g>
    </g>
   </g>
  </g><rect
     y="-3.8689905e-009"
     x="-1650126.1"
     height="20200000"
     width="1722480.6"
     id="rect6513"
     style="fill:#ffffff;fill-opacity:1;stroke:none;stroke-width:6;stroke-linecap:butt;stroke-linejoin:miter;stroke-miterlimit:4;stroke-dasharray:18, 18;stroke-dashoffset:0;stroke-opacity:1" /><rect
     y="-4.1363819e-009"
     x="26809952"
     height="20160852"
     width="1839922.5"
     id="rect6515"
     style="fill:#ffffff;fill-opacity:1;stroke:none;stroke-width:6;stroke-linecap:butt;stroke-linejoin:miter;stroke-miterlimit:4;stroke-dasharray:18, 18;stroke-dashoffset:0;stroke-opacity:1" /></g></svg>