<?xml version="1.0" encoding="UTF-8" standalone="no"?>
<!-- Created with Inkscape (http://www.inkscape.org/) -->

<svg
   xmlns:dc="http://purl.org/dc/elements/1.1/"
   xmlns:cc="http://creativecommons.org/ns#"
   xmlns:rdf="http://www.w3.org/1999/02/22-rdf-syntax-ns#"
   xmlns:svg="http://www.w3.org/2000/svg"
   xmlns="http://www.w3.org/2000/svg"
   xmlns:sodipodi="http://sodipodi.sourceforge.net/DTD/sodipodi-0.dtd"
   xmlns:inkscape="http://www.inkscape.org/namespaces/inkscape"
   width="744.09448819"
   height="1052.3622047"
   id="svg5660"
   version="1.1"
   inkscape:version="0.48.2 r9819"
   sodipodi:docname="New document 9">
  <defs
     id="defs5662" />
  <sodipodi:namedview
     id="base"
     pagecolor="#ffffff"
     bordercolor="#666666"
     borderopacity="1.0"
     inkscape:pageopacity="0.0"
     inkscape:pageshadow="2"
     inkscape:zoom="0.35"
     inkscape:cx="375"
     inkscape:cy="520"
     inkscape:document-units="px"
     inkscape:current-layer="layer1"
     showgrid="false"
     inkscape:window-width="1067"
     inkscape:window-height="845"
     inkscape:window-x="20"
     inkscape:window-y="20"
     inkscape:window-maximized="0" />
  <metadata
     id="metadata5665">
    <rdf:RDF>
      <cc:Work
         rdf:about="">
        <dc:format>image/svg+xml</dc:format>
        <dc:type
           rdf:resource="http://purl.org/dc/dcmitype/StillImage" />
        <dc:title></dc:title>
      </cc:Work>
    </rdf:RDF>
  </metadata>
  <g
     inkscape:label="Layer 1"
     inkscape:groupmode="layer"
     id="layer1">
    <g
       transform="matrix(3.1573761e-5,0,0,3.1573761e-5,-51.02823,139.13925)"
       id="_171681880">
      <g
         id="g49">
        <path
           inkscape:connector-curvature="0"
           id="path1429"
           d="m 11254700,12826400 c 0,616430 252450,1174030 661450,1581520 409780,408360 966620,666030 1584030,666030 620650,0 1183870,-252060 1591880,-658850 408000,-406720 660920,-968060 660970,-1586670 l -20,0 0,-3000270 -4498780,-5360 470,3003600 z"
           style="fill:#ffffff" />
        <g
           id="g52">
          <path
             inkscape:connector-curvature="0"
             id="_180417144"
             d="m 12739300,11899800 c 0,220530 0,441070 0,661600 0,241080 -197230,438310 -438310,438310 l 0,0 c -241080,0 -438310,-197230 -438310,-438310 0,-220530 0,-441070 0,-661600 292200,0 584420,0 876620,0 z m -435060,394220 c -47800,0 -86800,38930 -86800,86730 0,47750 39000,86700 86800,86700 47820,0 86800,-38950 86800,-86700 0,-47710 -38980,-86730 -86800,-86730 z m -232000,-233640 c -47820,0 -86800,38950 -86800,86650 0,47750 38980,86700 86800,86700 47800,0 86780,-38950 86780,-86700 0,-47700 -38980,-86650 -86780,-86650 z m 970,477790 c -47800,0 -86800,38950 -86800,86650 0,47830 39000,86760 86800,86760 47790,0 86800,-38930 86800,-86760 0,-47700 -39010,-86650 -86800,-86650 z m 473870,-540 c -47820,0 -86810,38870 -86810,86570 0,47820 38990,86760 86810,86760 47790,0 86780,-38940 86780,-86760 0,-47700 -38990,-86570 -86780,-86570 z m 540,-476830 c -47790,0 -86780,38950 -86780,86590 0,47810 38990,86750 86780,86750 47820,0 86800,-38940 86800,-86750 0,-47640 -38980,-86590 -86800,-86590 z m -686500,475900 0,0 0,0 z"
             style="fill:#003082" />
          <path
             inkscape:connector-curvature="0"
             id="_175378416"
             d="m 13953600,11899800 c 0,220530 0,441070 0,661600 0,241080 -197230,438310 -438310,438310 l 0,0 c -241080,0 -438310,-197230 -438310,-438310 0,-220530 0,-441070 0,-661600 292200,0 584420,0 876620,0 z m -435060,394220 c -47800,0 -86800,38930 -86800,86730 0,47750 39000,86700 86800,86700 47820,0 86800,-38950 86800,-86700 0,-47710 -38980,-86730 -86800,-86730 z m -232000,-233640 c -47820,0 -86800,38950 -86800,86650 0,47750 38980,86700 86800,86700 47800,0 86780,-38950 86780,-86700 0,-47700 -38980,-86650 -86780,-86650 z m 970,477790 c -47800,0 -86800,38950 -86800,86650 0,47830 39000,86760 86800,86760 47790,0 86800,-38930 86800,-86760 0,-47700 -39010,-86650 -86800,-86650 z m 473870,-540 c -47820,0 -86810,38870 -86810,86570 0,47820 38990,86760 86810,86760 47790,0 86780,-38940 86780,-86760 0,-47700 -38990,-86570 -86780,-86570 z m 540,-476830 c -47790,0 -86780,38950 -86780,86590 0,47810 38990,86750 86780,86750 47820,0 86800,-38940 86800,-86750 0,-47640 -38980,-86590 -86800,-86590 z m -686500,475900 0,0 0,0 z"
             style="fill:#003082" />
          <path
             inkscape:connector-curvature="0"
             id="_177142696"
             d="m 15165300,11902200 c 0,220530 0,441070 0,661600 0,241080 -197230,438310 -438310,438310 l 0,0 c -241080,0 -438310,-197230 -438310,-438310 0,-220530 0,-441070 0,-661600 292200,0 584420,0 876620,0 z m -435060,394220 c -47800,0 -86800,38930 -86800,86730 0,47750 39000,86700 86800,86700 47820,0 86800,-38950 86800,-86700 0,-47710 -38980,-86730 -86800,-86730 z m -232000,-233640 c -47820,0 -86800,38950 -86800,86650 0,47750 38980,86700 86800,86700 47800,0 86780,-38950 86780,-86700 0,-47700 -38980,-86650 -86780,-86650 z m 970,477790 c -47800,0 -86800,38950 -86800,86650 0,47830 39000,86760 86800,86760 47790,0 86800,-38930 86800,-86760 0,-47700 -39010,-86650 -86800,-86650 z m 473870,-540 c -47820,0 -86810,38870 -86810,86570 0,47820 38990,86760 86810,86760 47790,0 86780,-38940 86780,-86760 0,-47700 -38990,-86570 -86780,-86570 z m 540,-476830 c -47790,0 -86780,38950 -86780,86590 0,47810 38990,86750 86780,86750 47820,0 86800,-38940 86800,-86750 0,-47640 -38980,-86590 -86800,-86590 z m -686500,475900 0,0 0,0 z"
             style="fill:#003082" />
          <path
             inkscape:connector-curvature="0"
             id="_119819464"
             d="m 13953300,10380200 c 0,220530 0,441070 0,661600 0,241080 -197230,438310 -438310,438310 l 0,0 c -241080,0 -438310,-197230 -438310,-438310 0,-220530 0,-441070 0,-661600 292200,0 584420,0 876620,0 z m -435060,394220 c -47800,0 -86800,38930 -86800,86730 0,47750 39000,86700 86800,86700 47820,0 86800,-38950 86800,-86700 0,-47710 -38980,-86730 -86800,-86730 z m -232000,-233640 c -47820,0 -86800,38950 -86800,86650 0,47750 38980,86700 86800,86700 47800,0 86780,-38950 86780,-86700 0,-47700 -38980,-86650 -86780,-86650 z m 970,477790 c -47800,0 -86800,38950 -86800,86650 0,47830 39000,86760 86800,86760 47790,0 86800,-38930 86800,-86760 0,-47700 -39010,-86650 -86800,-86650 z m 473870,-540 c -47820,0 -86810,38870 -86810,86570 0,47820 38990,86760 86810,86760 47790,0 86780,-38940 86780,-86760 0,-47700 -38990,-86570 -86780,-86570 z m 540,-476830 c -47790,0 -86780,38950 -86780,86590 0,47810 38990,86750 86780,86750 47820,0 86800,-38940 86800,-86750 0,-47640 -38980,-86590 -86800,-86590 z m -686500,475900 0,0 0,0 z"
             style="fill:#003082" />
          <path
             inkscape:connector-curvature="0"
             id="_117577800"
             d="m 13949400,13405800 c 0,220530 0,441070 0,661600 0,241080 -197230,438310 -438310,438310 l 0,0 c -241080,0 -438310,-197230 -438310,-438310 0,-220530 0,-441070 0,-661600 292200,0 584420,0 876620,0 z m -435060,394220 c -47800,0 -86800,38930 -86800,86730 0,47750 39000,86700 86800,86700 47820,0 86800,-38950 86800,-86700 0,-47710 -38980,-86730 -86800,-86730 z m -232000,-233640 c -47820,0 -86800,38950 -86800,86650 0,47750 38980,86700 86800,86700 47800,0 86780,-38950 86780,-86700 0,-47700 -38980,-86650 -86780,-86650 z m 970,477790 c -47800,0 -86800,38950 -86800,86650 0,47830 39000,86760 86800,86760 47790,0 86800,-38930 86800,-86760 0,-47700 -39010,-86650 -86800,-86650 z m 473870,-540 c -47820,0 -86810,38870 -86810,86570 0,47820 38990,86760 86810,86760 47790,0 86780,-38940 86780,-86760 0,-47700 -38990,-86570 -86780,-86570 z m 540,-476830 c -47790,0 -86780,38950 -86780,86590 0,47810 38990,86750 86780,86750 47820,0 86800,-38940 86800,-86750 0,-47640 -38980,-86590 -86800,-86590 z m -686500,475900 0,0 0,0 z"
             style="fill:#003082" />
        </g>
      </g>
      <g
         id="g59">
        <path
           inkscape:connector-curvature="0"
           id="path1433"
           d="m 10166400,13037700 0,2620 0,0 c 0,908680 376290,1736200 979870,2336950 604730,601880 1437680,976140 2348870,976140 915890,0 1747120,-371520 2349290,-971100 602130,-599570 975280,-1427090 975390,-2339050 l -110,0 0,-4487270 -6649250,-1190 -4060,4482900 m 5316540,-3139310 240,2855580 -2450,302070 40,0 c 0,79590 -4790,170210 -14020,247270 -54080,451570 -261730,844990 -569200,1151140 -360020,358470 -857000,580670 -1404570,580670 -544800,0 -1030290,-230010 -1391850,-589940 -370840,-369050 -585790,-875230 -585790,-1398610 l -770,-3155440 3968410,7150 m -40,110 0,0 0,0 z"
           style="fill:#dc241f" />
        <g
           id="g62">
          <g
             id="g64">
            <g
               id="g66">
              <g
                 id="g68">
                <path
                   inkscape:connector-curvature="0"
                   id="path1499"
                   d="m 10359600,9703140 241850,530 476770,0 242490,0 -43850,-373430 -877390,2230 m -60,0 0,0 0,0 z"
                   style="fill:#ffe805" />
                <path
                   inkscape:connector-curvature="0"
                   id="path1501"
                   d="m 10399400,9332550 -39810,370590 241850,530 c 2320,-306610 232100,-357610 237670,-356480 5210,-310 232990,67800 239060,356480 l 242460,0 -43780,-373430 -877450,2230 0,80 z"
                   style="fill:none;stroke:#000000;stroke-width:13210" />
                <path
                   inkscape:connector-curvature="0"
                   id="path1509"
                   d="m 10703500,9703060 c 1080,-193500 132120,-248250 132790,-248160 60,0 136820,56470 137910,248160 l -270700,0"
                   style="fill:none;stroke:#000000;stroke-width:13150" />
              </g>
              <g
                 id="g73">
                <g
                   id="g75">
                  <g
                     id="g77">
                    <path
                       inkscape:connector-curvature="0"
                       id="path1511"
                       d="m 10364300,9178950 948860,0 c 19970,0 36350,18480 36350,41150 0,22520 -16380,41170 -36350,41170 l -948860,0 c -19970,0 -36360,-18540 -36360,-41170 0,-22670 16390,-41150 36360,-41150 z"
                       style="fill:#ffe805" />
                    <path
                       inkscape:connector-curvature="0"
                       id="path1513"
                       d="m 10364300,9178840 948860,0 c 19970,0 36350,18590 36350,41170 l 0,0 c 0,22610 -16380,41150 -36350,41150 l -948860,0 c -19970,0 -36360,-18430 -36360,-41150 l 0,0 c 0,-22580 16390,-41170 36360,-41170 z"
                       style="fill:none;stroke:#000000;stroke-width:13200" />
                  </g>
                  <g
                     id="g81">
                    <path
                       inkscape:connector-curvature="0"
                       id="path1515"
                       d="m 10384300,9261270 907630,0 c 19100,0 34820,18480 34820,41110 0,22650 -15650,41150 -34820,41150 l -907630,0 c -19120,0 -34770,-18500 -34770,-41150 0,-22630 15650,-41110 34770,-41110 z"
                       style="fill:#ffe805" />
                    <path
                       inkscape:connector-curvature="0"
                       id="path1517"
                       d="m 10384300,9261270 907570,0 c 19120,0 34770,18480 34770,41110 l 0,0 c 0,22650 -15650,41150 -34770,41150 l -907570,0 c -19120,0 -34770,-18500 -34770,-41150 l 0,0 c 0,-22630 15650,-41110 34770,-41110 z"
                       style="fill:none;stroke:#000000;stroke-width:13200" />
                  </g>
                </g>
                <g
                   id="g85">
                  <g
                     id="g87">
                    <path
                       inkscape:connector-curvature="0"
                       id="_146595224"
                       d="m 10989500,8827830 70050,160 0,50940 51260,0 0,-52140 71800,200 0,51940 51370,0 0,-52140 71850,120 -110,117480 c 0,18350 -14520,30310 -31330,30310 l -11610,0 5280,203090 -240960,120 6350,-203210 -11190,0 c -16910,0 -32600,-13770 -32670,-30700 l -150,-116170 60,0 z"
                       style="fill:#ffe805" />
                    <g
                       id="g90">
                      <path
                         inkscape:connector-curvature="0"
                         id="path1537"
                         d="m 10989500,8827830 70040,150 0,50950 51260,0 0,-52140 71790,200 0,51940 51380,0 0,-52140 71850,110 -110,117490 c 0,18350 -14520,30310 -31320,30310 l -252130,0 c -16910,0 -32610,-13770 -32680,-30710 l -150,-116160 70,0 z"
                         style="fill:none;stroke:#000000;stroke-width:13230" />
                      <polygon
                         id="path1541"
                         points="11262400,8974700 11262400,8974700 11268100,9177800 11027100,9177910 11033900,8974700 11260500,8974700 "
                         style="fill:none;stroke:#000000;stroke-width:13260" />
                    </g>
                  </g>
                  <g
                     id="g94">
                    <path
                       inkscape:connector-curvature="0"
                       id="path1519"
                       d="m 10948200,8789970 15500,387170 -251320,-1000 15930,-386170 m -50700,-146880 71660,120 0,50880 52280,0 0,-52040 73360,230 0,51810 52470,0 0,-52040 73470,120 -110,117510 c 0,18320 -14830,30290 -31990,30290 l -20550,0 -219890,0 -17210,0 c -17310,0 -33330,-13750 -33330,-30750 l -160,-116130 z"
                       style="fill:#ffe805" />
                    <g
                       id="g97">
                      <path
                         inkscape:connector-curvature="0"
                         id="path1521"
                         d="m 10677600,8643100 71650,110 0,50880 52300,0 0,-52030 73410,220 0,51810 52430,0 0,-52030 73440,0 -90,117510 c 0,18430 -14830,30400 -32050,30400 l -257650,0 c -17310,0 -33290,-13870 -33330,-30750 l -160,-116120 50,0 z"
                         style="fill:none;stroke:#000000;stroke-width:13240" />
                      <polyline
                         id="path1525"
                         points="1.09475e+007,8.80032e+006 1.09637e+007,9.17714e+006 1.07124e+007,9.17621e+006 1.0729e+007,8.79933e+006 1.09475e+007,8.80032e+006 "
                         style="fill:none;stroke:#000000;stroke-width:13200" />
                    </g>
                  </g>
                  <g
                     id="g101">
                    <path
                       inkscape:connector-curvature="0"
                       id="_189868136"
                       d="m 10369800,8827830 70050,160 0,50940 51260,0 0,-52140 71790,200 0,51940 51380,0 0,-52140 71850,120 -110,117480 c 0,18350 -14520,30310 -31330,30310 l -11610,0 5280,203090 -240960,120 6350,-203210 -11190,0 c -16910,0 -32600,-13770 -32670,-30700 l -150,-116170 60,0 z"
                       style="fill:#ffe805" />
                    <g
                       id="g104">
                      <path
                         inkscape:connector-curvature="0"
                         id="path1537_0"
                         d="m 10369800,8827830 70050,150 0,50950 51260,0 0,-52140 71790,200 0,51940 51370,0 0,-52140 71860,110 -110,117490 c 0,18350 -14530,30310 -31330,30310 l -252130,0 c -16910,0 -32600,-13770 -32670,-30710 l -150,-116160 60,0 z"
                         style="fill:none;stroke:#000000;stroke-width:13230" />
                      <polygon
                         id="path1541_1"
                         points="10642700,8974700 10642700,8974700 10648400,9177800 10407400,9177910 10414200,8974700 10640800,8974700 "
                         style="fill:none;stroke:#000000;stroke-width:13260" />
                    </g>
                  </g>
                </g>
              </g>
              <g
                 id="g108">
                <path
                   inkscape:connector-curvature="0"
                   id="path1503"
                   d="m 10343500,9704840 989800,0 c 20820,0 37860,20620 37860,45810 0,25040 -17000,45630 -37860,45630 l -989800,0 c -20870,0 -37910,-20510 -37910,-45630 0,-25190 17040,-45810 37910,-45810 z"
                   style="fill:#ffe805" />
                <path
                   inkscape:connector-curvature="0"
                   id="path1505"
                   d="m 10343400,9704840 989800,0 c 20870,0 37910,20620 37910,45810 l 0,0 c 0,25120 -17040,45630 -37910,45630 l -989800,0 c -20860,0 -37900,-20510 -37900,-45630 l 0,0 c 0,-25190 17040,-45810 37900,-45810 z"
                   style="fill:none;stroke:#000000;stroke-width:13210" />
              </g>
            </g>
            <path
               inkscape:connector-curvature="0"
               id="path1545"
               d="m 11123600,9049040 c -150,-35310 48880,-36130 48260,0 l 0,69330 -48260,0 0,-69330 z m -310110,-129770 c -1540,-36620 51200,-37050 50580,0 l 0,89740 -50580,0 0,-89740 z m -311450,130470 c -150,-35390 48910,-36100 48290,0 l 0,69340 -48290,0 0,-69340 z"
               style="fill:#000000" />
          </g>
          <g
             id="g113">
            <g
               id="g115">
              <g
                 id="g117">
                <path
                   inkscape:connector-curvature="0"
                   id="path1499_2"
                   d="m 13029800,9703140 241840,530 476780,0 242480,0 -43840,-373430 -877390,2230 m -70,0 0,0 0,0 z"
                   style="fill:#ffe805" />
                <path
                   inkscape:connector-curvature="0"
                   id="path1501_3"
                   d="m 13069600,9332550 -39800,370590 241840,530 c 2320,-306610 232110,-357610 237670,-356480 5210,-310 233000,67800 239070,356480 l 242460,0 -43780,-373430 -877460,2230 0,80 z"
                   style="fill:none;stroke:#000000;stroke-width:13210" />
                <path
                   inkscape:connector-curvature="0"
                   id="path1509_4"
                   d="m 13373600,9703060 c 1080,-193500 132120,-248250 132780,-248160 70,0 136830,56470 137910,248160 l -270690,0"
                   style="fill:none;stroke:#000000;stroke-width:13150" />
              </g>
              <g
                 id="g122">
                <g
                   id="g124">
                  <g
                     id="g126">
                    <path
                       inkscape:connector-curvature="0"
                       id="path1511_5"
                       d="m 13034400,9178950 948850,0 c 19980,0 36360,18480 36360,41150 0,22520 -16380,41170 -36360,41170 l -948850,0 c -19980,0 -36360,-18540 -36360,-41170 0,-22670 16380,-41150 36360,-41150 z"
                       style="fill:#ffe805" />
                    <path
                       inkscape:connector-curvature="0"
                       id="path1513_6"
                       d="m 13034400,9178840 948850,0 c 19980,0 36360,18590 36360,41170 l 0,0 c 0,22610 -16380,41150 -36360,41150 l -948850,0 c -19980,0 -36360,-18430 -36360,-41150 l 0,0 c 0,-22580 16380,-41170 36360,-41170 z"
                       style="fill:none;stroke:#000000;stroke-width:13200" />
                  </g>
                  <g
                     id="g130">
                    <path
                       inkscape:connector-curvature="0"
                       id="path1515_7"
                       d="m 13054500,9261270 907630,0 c 19100,0 34820,18480 34820,41110 0,22650 -15660,41150 -34820,41150 l -907630,0 c -19120,0 -34770,-18500 -34770,-41150 0,-22630 15650,-41110 34770,-41110 z"
                       style="fill:#ffe805" />
                    <path
                       inkscape:connector-curvature="0"
                       id="path1517_8"
                       d="m 13054500,9261270 907560,0 c 19120,0 34770,18480 34770,41110 l 0,0 c 0,22650 -15650,41150 -34770,41150 l -907560,0 c -19120,0 -34770,-18500 -34770,-41150 l 0,0 c 0,-22630 15650,-41110 34770,-41110 z"
                       style="fill:none;stroke:#000000;stroke-width:13200" />
                  </g>
                </g>
                <g
                   id="g134">
                  <g
                     id="g136">
                    <path
                       inkscape:connector-curvature="0"
                       id="_158252472"
                       d="m 13659700,8827830 70050,160 0,50940 51260,0 0,-52140 71790,200 0,51940 51380,0 0,-52140 71850,120 -110,117480 c 0,18350 -14520,30310 -31330,30310 l -11610,0 5280,203090 -240960,120 6350,-203210 -11190,0 c -16910,0 -32600,-13770 -32670,-30700 l -150,-116170 60,0 z"
                       style="fill:#ffe805" />
                    <g
                       id="g139">
                      <path
                         inkscape:connector-curvature="0"
                         id="path1537_9"
                         d="m 13659700,8827830 70050,150 0,50950 51260,0 0,-52140 71790,200 0,51940 51370,0 0,-52140 71860,110 -110,117490 c 0,18350 -14530,30310 -31330,30310 l -252130,0 c -16910,0 -32600,-13770 -32670,-30710 l -150,-116160 60,0 z"
                         style="fill:none;stroke:#000000;stroke-width:13230" />
                      <polygon
                         id="path1541_10"
                         points="13932600,8974700 13932600,8974700 13938200,9177800 13697300,9177910 13704100,8974700 13930600,8974700 "
                         style="fill:none;stroke:#000000;stroke-width:13260" />
                    </g>
                  </g>
                  <g
                     id="g143">
                    <path
                       inkscape:connector-curvature="0"
                       id="path1519_11"
                       d="m 13618400,8789970 15500,387170 -251320,-1000 15930,-386170 m -50700,-146880 71650,120 0,50880 52290,0 0,-52040 73350,230 0,51810 52480,0 0,-52040 73470,120 -110,117510 c 0,18320 -14840,30290 -31990,30290 l -20550,0 -219890,0 -17210,0 c -17310,0 -33330,-13750 -33330,-30750 l -160,-116130 z"
                       style="fill:#ffe805" />
                    <g
                       id="g146">
                      <path
                         inkscape:connector-curvature="0"
                         id="path1521_12"
                         d="m 13347700,8643100 71660,110 0,50880 52300,0 0,-52030 73400,220 0,51810 52430,0 0,-52030 73450,0 -90,117510 c 0,18430 -14830,30400 -32050,30400 l -257650,0 c -17310,0 -33290,-13870 -33340,-30750 l -150,-116120 40,0 z"
                         style="fill:none;stroke:#000000;stroke-width:13240" />
                      <polyline
                         id="path1525_13"
                         points="1.36176e+007,8.80032e+006 1.36338e+007,9.17714e+006 1.33825e+007,9.17621e+006 1.33991e+007,8.79933e+006 1.36176e+007,8.80032e+006 "
                         style="fill:none;stroke:#000000;stroke-width:13200" />
                    </g>
                  </g>
                  <g
                     id="g150">
                    <path
                       inkscape:connector-curvature="0"
                       id="_118813736"
                       d="m 13040000,8827830 70050,160 0,50940 51250,0 0,-52140 71800,200 0,51940 51370,0 0,-52140 71850,120 -100,117480 c 0,18350 -14530,30310 -31330,30310 l -11610,0 5270,203090 -240950,120 6340,-203210 -11180,0 c -16910,0 -32600,-13770 -32680,-30700 l -150,-116170 70,0 z"
                       style="fill:#ffe805" />
                    <g
                       id="g153">
                      <path
                         inkscape:connector-curvature="0"
                         id="path1537_14"
                         d="m 13040000,8827830 70050,150 0,50950 51260,0 0,-52140 71790,200 0,51940 51370,0 0,-52140 71860,110 -110,117490 c 0,18350 -14530,30310 -31330,30310 l -252130,0 c -16910,0 -32610,-13770 -32670,-30710 l -160,-116160 70,0 z"
                         style="fill:none;stroke:#000000;stroke-width:13230" />
                      <polygon
                         id="path1541_15"
                         points="13312900,8974700 13312900,8974700 13318500,9177800 13077600,9177910 13084300,8974700 13310900,8974700 "
                         style="fill:none;stroke:#000000;stroke-width:13260" />
                    </g>
                  </g>
                </g>
              </g>
              <g
                 id="g157">
                <path
                   inkscape:connector-curvature="0"
                   id="path1503_16"
                   d="m 13013600,9704840 989810,0 c 20810,0 37860,20620 37860,45810 0,25040 -17000,45630 -37860,45630 l -989810,0 c -20860,0 -37900,-20510 -37900,-45630 0,-25190 17040,-45810 37900,-45810 z"
                   style="fill:#ffe805" />
                <path
                   inkscape:connector-curvature="0"
                   id="path1505_17"
                   d="m 13013600,9704840 989800,0 c 20860,0 37910,20620 37910,45810 l 0,0 c 0,25120 -17050,45630 -37910,45630 l -989800,0 c -20860,0 -37910,-20510 -37910,-45630 l 0,0 c 0,-25190 17050,-45810 37910,-45810 z"
                   style="fill:none;stroke:#000000;stroke-width:13210" />
              </g>
            </g>
            <path
               inkscape:connector-curvature="0"
               id="path1545_18"
               d="m 13793700,9049040 c -150,-35310 48880,-36130 48260,0 l 0,69330 -48260,0 0,-69330 z m -310110,-129770 c -1540,-36620 51200,-37050 50580,0 l 0,89740 -50580,0 0,-89740 z m -311450,130470 c -150,-35390 48900,-36100 48280,0 l 0,69340 -48280,0 0,-69340 z"
               style="fill:#000000" />
          </g>
          <g
             id="g162">
            <g
               id="g164">
              <g
                 id="g166">
                <path
                   inkscape:connector-curvature="0"
                   id="path1499_19"
                   d="m 15670100,9703140 241850,530 476770,0 242490,0 -43850,-373430 -877390,2230 m -60,0 0,0 0,0 z"
                   style="fill:#ffe805" />
                <path
                   inkscape:connector-curvature="0"
                   id="path1501_20"
                   d="m 15709900,9332550 -39810,370590 241850,530 c 2310,-306610 232100,-357610 237670,-356480 5210,-310 232990,67800 239060,356480 l 242460,0 -43780,-373430 -877450,2230 0,80 z"
                   style="fill:none;stroke:#000000;stroke-width:13210" />
                <path
                   inkscape:connector-curvature="0"
                   id="path1509_21"
                   d="m 16014000,9703060 c 1080,-193500 132120,-248250 132790,-248160 60,0 136820,56470 137900,248160 l -270690,0"
                   style="fill:none;stroke:#000000;stroke-width:13150" />
              </g>
              <g
                 id="g171">
                <g
                   id="g173">
                  <g
                     id="g175">
                    <path
                       inkscape:connector-curvature="0"
                       id="path1511_22"
                       d="m 15674800,9178950 948850,0 c 19980,0 36360,18480 36360,41150 0,22520 -16380,41170 -36360,41170 l -948850,0 c -19980,0 -36360,-18540 -36360,-41170 0,-22670 16380,-41150 36360,-41150 z"
                       style="fill:#ffe805" />
                    <path
                       inkscape:connector-curvature="0"
                       id="path1513_23"
                       d="m 15674800,9178840 948850,0 c 19980,0 36360,18590 36360,41170 l 0,0 c 0,22610 -16380,41150 -36360,41150 l -948850,0 c -19980,0 -36360,-18430 -36360,-41150 l 0,0 c 0,-22580 16380,-41170 36360,-41170 z"
                       style="fill:none;stroke:#000000;stroke-width:13200" />
                  </g>
                  <g
                     id="g179">
                    <path
                       inkscape:connector-curvature="0"
                       id="path1515_24"
                       d="m 15694900,9261270 907630,0 c 19100,0 34820,18480 34820,41110 0,22650 -15650,41150 -34820,41150 l -907630,0 c -19120,0 -34770,-18500 -34770,-41150 0,-22630 15650,-41110 34770,-41110 z"
                       style="fill:#ffe805" />
                    <path
                       inkscape:connector-curvature="0"
                       id="path1517_25"
                       d="m 15694900,9261270 907570,0 c 19120,0 34770,18480 34770,41110 l 0,0 c 0,22650 -15650,41150 -34770,41150 l -907570,0 c -19120,0 -34770,-18500 -34770,-41150 l 0,0 c 0,-22630 15650,-41110 34770,-41110 z"
                       style="fill:none;stroke:#000000;stroke-width:13200" />
                  </g>
                </g>
                <g
                   id="g183">
                  <g
                     id="g185">
                    <path
                       inkscape:connector-curvature="0"
                       id="_155425696"
                       d="m 16300000,8827830 70050,160 0,50940 51260,0 0,-52140 71800,200 0,51940 51370,0 0,-52140 71850,120 -110,117480 c 0,18350 -14520,30310 -31330,30310 l -11610,0 5280,203090 -240960,120 6350,-203210 -11190,0 c -16910,0 -32600,-13770 -32670,-30700 l -150,-116170 60,0 z"
                       style="fill:#ffe805" />
                    <g
                       id="g188">
                      <path
                         inkscape:connector-curvature="0"
                         id="path1537_26"
                         d="m 16300000,8827830 70050,150 0,50950 51260,0 0,-52140 71790,200 0,51940 51380,0 0,-52140 71850,110 -110,117490 c 0,18350 -14520,30310 -31320,30310 l -252130,0 c -16910,0 -32610,-13770 -32680,-30710 l -150,-116160 60,0 z"
                         style="fill:none;stroke:#000000;stroke-width:13230" />
                      <polygon
                         id="path1541_27"
                         points="16572900,8974700 16572900,8974700 16578600,9177800 16337600,9177910 16344400,8974700 16571000,8974700 "
                         style="fill:none;stroke:#000000;stroke-width:13260" />
                    </g>
                  </g>
                  <g
                     id="g192">
                    <path
                       inkscape:connector-curvature="0"
                       id="path1519_28"
                       d="m 16258800,8789970 15500,387170 -251320,-1000 15930,-386170 m -50700,-146880 71650,120 0,50880 52290,0 0,-52040 73360,230 0,51810 52470,0 0,-52040 73470,120 -110,117510 c 0,18320 -14830,30290 -31990,30290 l -20550,0 -219890,0 -17210,0 c -17310,0 -33330,-13750 -33330,-30750 l -160,-116130 z"
                       style="fill:#ffe805" />
                    <g
                       id="g195">
                      <path
                         inkscape:connector-curvature="0"
                         id="path1521_29"
                         d="m 15988100,8643100 71660,110 0,50880 52300,0 0,-52030 73400,220 0,51810 52440,0 0,-52030 73440,0 -90,117510 c 0,18430 -14830,30400 -32050,30400 l -257650,0 c -17310,0 -33290,-13870 -33330,-30750 l -160,-116120 40,0 z"
                         style="fill:none;stroke:#000000;stroke-width:13240" />
                      <polyline
                         id="path1525_30"
                         points="1.6258e+007,8.80032e+006 1.62742e+007,9.17714e+006 1.60229e+007,9.17621e+006 1.60395e+007,8.79933e+006 1.6258e+007,8.80032e+006 "
                         style="fill:none;stroke:#000000;stroke-width:13200" />
                    </g>
                  </g>
                  <g
                     id="g199">
                    <path
                       inkscape:connector-curvature="0"
                       id="_145624912"
                       d="m 15680300,8827830 70050,160 0,50940 51260,0 0,-52140 71790,200 0,51940 51380,0 0,-52140 71850,120 -110,117480 c 0,18350 -14520,30310 -31330,30310 l -11610,0 5280,203090 -240960,120 6350,-203210 -11190,0 c -16910,0 -32600,-13770 -32670,-30700 l -150,-116170 60,0 z"
                       style="fill:#ffe805" />
                    <g
                       id="g202">
                      <path
                         inkscape:connector-curvature="0"
                         id="path1537_31"
                         d="m 15680300,8827830 70050,150 0,50950 51260,0 0,-52140 71790,200 0,51940 51370,0 0,-52140 71860,110 -110,117490 c 0,18350 -14530,30310 -31330,30310 l -252130,0 c -16910,0 -32600,-13770 -32670,-30710 l -150,-116160 60,0 z"
                         style="fill:none;stroke:#000000;stroke-width:13230" />
                      <polygon
                         id="path1541_32"
                         points="15953200,8974700 15953200,8974700 15958900,9177800 15717900,9177910 15724700,8974700 15951300,8974700 "
                         style="fill:none;stroke:#000000;stroke-width:13260" />
                    </g>
                  </g>
                </g>
              </g>
              <g
                 id="g206">
                <path
                   inkscape:connector-curvature="0"
                   id="path1503_33"
                   d="m 15654000,9704840 989800,0 c 20820,0 37860,20620 37860,45810 0,25040 -17000,45630 -37860,45630 l -989800,0 c -20870,0 -37910,-20510 -37910,-45630 0,-25190 17040,-45810 37910,-45810 z"
                   style="fill:#ffe805" />
                <path
                   inkscape:connector-curvature="0"
                   id="path1505_34"
                   d="m 15654000,9704840 989800,0 c 20870,0 37910,20620 37910,45810 l 0,0 c 0,25120 -17040,45630 -37910,45630 l -989800,0 c -20860,0 -37900,-20510 -37900,-45630 l 0,0 c 0,-25190 17040,-45810 37900,-45810 z"
                   style="fill:none;stroke:#000000;stroke-width:13210" />
              </g>
            </g>
            <path
               inkscape:connector-curvature="0"
               id="path1545_35"
               d="m 16434100,9049040 c -150,-35310 48880,-36130 48260,0 l 0,69330 -48260,0 0,-69330 z m -310110,-129770 c -1540,-36620 51200,-37050 50580,0 l 0,89740 -50580,0 0,-89740 z m -311450,130470 c -150,-35390 48910,-36100 48280,0 l 0,69340 -48280,0 0,-69340 z"
               style="fill:#000000" />
          </g>
          <g
             id="g211">
            <g
               id="g213">
              <g
                 id="g215">
                <path
                   inkscape:connector-curvature="0"
                   id="path1499_36"
                   d="m 10361000,12408100 241850,530 476770,0 242490,0 -43850,-373440 -877390,2230 m -60,0 0,0 0,0 z"
                   style="fill:#ffe805" />
                <path
                   inkscape:connector-curvature="0"
                   id="path1501_37"
                   d="m 10400800,12037500 -39810,370590 241850,530 c 2310,-306620 232100,-357610 237670,-356490 5210,-310 232990,67800 239060,356490 l 242460,0 -43780,-373440 -877450,2230 0,90 z"
                   style="fill:none;stroke:#000000;stroke-width:13210" />
                <path
                   inkscape:connector-curvature="0"
                   id="path1509_38"
                   d="m 10704800,12408000 c 1080,-193500 132120,-248250 132790,-248160 60,0 136820,56470 137900,248160 l -270690,0"
                   style="fill:none;stroke:#000000;stroke-width:13150" />
              </g>
              <g
                 id="g220">
                <g
                   id="g222">
                  <g
                     id="g224">
                    <path
                       inkscape:connector-curvature="0"
                       id="path1511_39"
                       d="m 10365700,11883900 948850,0 c 19980,0 36360,18480 36360,41150 0,22520 -16380,41170 -36360,41170 l -948850,0 c -19980,0 -36360,-18540 -36360,-41170 0,-22670 16380,-41150 36360,-41150 z"
                       style="fill:#ffe805" />
                    <path
                       inkscape:connector-curvature="0"
                       id="path1513_40"
                       d="m 10365700,11883800 948850,0 c 19980,0 36360,18590 36360,41170 l 0,0 c 0,22610 -16380,41150 -36360,41150 l -948850,0 c -19980,0 -36360,-18430 -36360,-41150 l 0,0 c 0,-22580 16380,-41170 36360,-41170 z"
                       style="fill:none;stroke:#000000;stroke-width:13200" />
                  </g>
                  <g
                     id="g228">
                    <path
                       inkscape:connector-curvature="0"
                       id="path1515_41"
                       d="m 10385700,11966200 907630,0 c 19100,0 34820,18480 34820,41110 0,22650 -15650,41150 -34820,41150 l -907630,0 c -19120,0 -34770,-18500 -34770,-41150 0,-22630 15650,-41110 34770,-41110 z"
                       style="fill:#ffe805" />
                    <path
                       inkscape:connector-curvature="0"
                       id="path1517_42"
                       d="m 10385700,11966200 907570,0 c 19120,0 34770,18480 34770,41110 l 0,0 c 0,22650 -15650,41150 -34770,41150 l -907570,0 c -19120,0 -34770,-18500 -34770,-41150 l 0,0 c 0,-22630 15650,-41110 34770,-41110 z"
                       style="fill:none;stroke:#000000;stroke-width:13200" />
                  </g>
                </g>
                <g
                   id="g232">
                  <g
                     id="g234">
                    <path
                       inkscape:connector-curvature="0"
                       id="_100941488"
                       d="m 10990900,11532800 70050,160 0,50950 51260,0 0,-52150 71800,210 0,51940 51370,0 0,-52150 71850,120 -110,117490 c 0,18340 -14520,30310 -31330,30310 l -11610,0 5280,203090 -240960,110 6350,-203200 -11190,0 c -16910,0 -32600,-13780 -32670,-30710 l -150,-116170 60,0 z"
                       style="fill:#ffe805" />
                    <g
                       id="g237">
                      <path
                         inkscape:connector-curvature="0"
                         id="path1537_43"
                         d="m 10990900,11532800 70050,160 0,50950 51260,0 0,-52150 71790,200 0,51950 51380,0 0,-52150 71850,120 -110,117480 c 0,18350 -14520,30310 -31320,30310 l -252130,0 c -16910,0 -32610,-13770 -32680,-30700 l -150,-116170 60,0 z"
                         style="fill:none;stroke:#000000;stroke-width:13230" />
                      <polygon
                         id="path1541_44"
                         points="11263800,11679700 11263800,11679700 11269400,11882800 11028500,11882900 11035300,11679700 11261800,11679700 "
                         style="fill:none;stroke:#000000;stroke-width:13260" />
                    </g>
                  </g>
                  <g
                     id="g241">
                    <path
                       inkscape:connector-curvature="0"
                       id="path1519_45"
                       d="m 10949600,11494900 15500,387170 -251320,-990 15930,-386180 m -50700,-146870 71650,110 0,50890 52290,0 0,-52040 73360,220 0,51820 52470,0 0,-52040 73470,120 -110,117500 c 0,18330 -14830,30290 -31990,30290 l -20550,0 -219890,0 -17210,0 c -17310,0 -33330,-13750 -33330,-30750 l -160,-116120 z"
                       style="fill:#ffe805" />
                    <g
                       id="g244">
                      <path
                         inkscape:connector-curvature="0"
                         id="path1521_46"
                         d="m 10678900,11348100 71660,110 0,50890 52300,0 0,-52040 73400,220 0,51820 52440,0 0,-52040 73440,0 -90,117510 c 0,18440 -14830,30400 -32050,30400 l -257650,0 c -17310,0 -33290,-13860 -33340,-30750 l -150,-116120 40,0 z"
                         style="fill:none;stroke:#000000;stroke-width:13240" />
                      <polyline
                         id="path1525_47"
                         points="1.09489e+007,1.15053e+007 1.0965e+007,1.18821e+007 1.07137e+007,1.18812e+007 1.07304e+007,1.15043e+007 1.09489e+007,1.15053e+007 "
                         style="fill:none;stroke:#000000;stroke-width:13200" />
                    </g>
                  </g>
                  <g
                     id="g248">
                    <path
                       inkscape:connector-curvature="0"
                       id="_172915808"
                       d="m 10371200,11532800 70050,160 0,50950 51260,0 0,-52150 71790,210 0,51940 51380,0 0,-52150 71850,120 -110,117490 c 0,18340 -14520,30310 -31330,30310 l -11610,0 5280,203090 -240960,110 6350,-203200 -11190,0 c -16910,0 -32600,-13780 -32670,-30710 l -150,-116170 60,0 z"
                       style="fill:#ffe805" />
                    <g
                       id="g251">
                      <path
                         inkscape:connector-curvature="0"
                         id="path1537_48"
                         d="m 10371200,11532800 70050,160 0,50950 51260,0 0,-52150 71790,200 0,51950 51370,0 0,-52150 71860,120 -110,117480 c 0,18350 -14530,30310 -31330,30310 l -252130,0 c -16910,0 -32600,-13770 -32670,-30700 l -150,-116170 60,0 z"
                         style="fill:none;stroke:#000000;stroke-width:13230" />
                      <polygon
                         id="path1541_49"
                         points="10644100,11679700 10644100,11679700 10649700,11882800 10408800,11882900 10415600,11679700 10642100,11679700 "
                         style="fill:none;stroke:#000000;stroke-width:13260" />
                    </g>
                  </g>
                </g>
              </g>
              <g
                 id="g255">
                <path
                   inkscape:connector-curvature="0"
                   id="path1503_50"
                   d="m 10344800,12409800 989800,0 c 20820,0 37860,20620 37860,45810 0,25030 -17000,45630 -37860,45630 l -989800,0 c -20870,0 -37910,-20510 -37910,-45630 0,-25190 17040,-45810 37910,-45810 z"
                   style="fill:#ffe805" />
                <path
                   inkscape:connector-curvature="0"
                   id="path1505_51"
                   d="m 10344800,12409800 989800,0 c 20870,0 37910,20620 37910,45810 l 0,0 c 0,25120 -17040,45630 -37910,45630 l -989800,0 c -20860,0 -37900,-20510 -37900,-45630 l 0,0 c 0,-25190 17040,-45810 37900,-45810 z"
                   style="fill:none;stroke:#000000;stroke-width:13210" />
              </g>
            </g>
            <path
               inkscape:connector-curvature="0"
               id="path1545_52"
               d="m 11124900,11754000 c -150,-35310 48880,-36120 48260,0 l 0,69330 -48260,0 0,-69330 z m -310110,-129760 c -1540,-36630 51200,-37060 50580,0 l 0,89730 -50580,0 0,-89730 z m -311450,130470 c -150,-35400 48910,-36110 48280,0 l 0,69330 -48280,0 0,-69330 z"
               style="fill:#000000" />
          </g>
          <g
             id="g260">
            <g
               id="g262">
              <g
                 id="g264">
                <path
                   inkscape:connector-curvature="0"
                   id="path1499_53"
                   d="m 15666100,12408700 241840,530 476780,0 242480,0 -43840,-373440 -877390,2230 m -70,0 0,0 0,0 z"
                   style="fill:#ffe805" />
                <path
                   inkscape:connector-curvature="0"
                   id="path1501_54"
                   d="m 15705900,12038100 -39800,370590 241840,530 c 2320,-306620 232110,-357610 237670,-356490 5210,-300 232990,67800 239060,356490 l 242470,0 -43780,-373440 -877460,2230 0,90 z"
                   style="fill:none;stroke:#000000;stroke-width:13210" />
                <path
                   inkscape:connector-curvature="0"
                   id="path1509_55"
                   d="m 16009900,12408600 c 1090,-193500 132130,-248240 132790,-248160 70,0 136830,56470 137910,248160 l -270700,0"
                   style="fill:none;stroke:#000000;stroke-width:13150" />
              </g>
              <g
                 id="g269">
                <g
                   id="g271">
                  <g
                     id="g273">
                    <path
                       inkscape:connector-curvature="0"
                       id="path1511_56"
                       d="m 15670800,11884500 948850,0 c 19980,0 36360,18480 36360,41150 0,22520 -16380,41170 -36360,41170 l -948850,0 c -19980,0 -36360,-18540 -36360,-41170 0,-22670 16380,-41150 36360,-41150 z"
                       style="fill:#ffe805" />
                    <path
                       inkscape:connector-curvature="0"
                       id="path1513_57"
                       d="m 15670800,11884400 948850,0 c 19980,0 36360,18590 36360,41170 l 0,0 c 0,22610 -16380,41150 -36360,41150 l -948850,0 c -19980,0 -36360,-18430 -36360,-41150 l 0,0 c 0,-22580 16380,-41170 36360,-41170 z"
                       style="fill:none;stroke:#000000;stroke-width:13200" />
                  </g>
                  <g
                     id="g277">
                    <path
                       inkscape:connector-curvature="0"
                       id="path1515_58"
                       d="m 15690800,11966800 907640,0 c 19100,0 34810,18480 34810,41110 0,22650 -15650,41150 -34810,41150 l -907640,0 c -19110,0 -34770,-18500 -34770,-41150 0,-22630 15660,-41110 34770,-41110 z"
                       style="fill:#ffe805" />
                    <path
                       inkscape:connector-curvature="0"
                       id="path1517_59"
                       d="m 15690800,11966800 907570,0 c 19120,0 34770,18480 34770,41110 l 0,0 c 0,22650 -15650,41150 -34770,41150 l -907570,0 c -19110,0 -34770,-18500 -34770,-41150 l 0,0 c 0,-22630 15660,-41110 34770,-41110 z"
                       style="fill:none;stroke:#000000;stroke-width:13200" />
                  </g>
                </g>
                <g
                   id="g281">
                  <g
                     id="g283">
                    <path
                       inkscape:connector-curvature="0"
                       id="_147914688"
                       d="m 16296000,11533400 70050,160 0,50950 51260,0 0,-52150 71790,210 0,51940 51380,0 0,-52150 71840,120 -100,117490 c 0,18340 -14530,30310 -31330,30310 l -11610,0 5270,203090 -240950,110 6340,-203200 -11180,0 c -16910,0 -32600,-13780 -32680,-30710 l -150,-116170 70,0 z"
                       style="fill:#ffe805" />
                    <g
                       id="g286">
                      <path
                         inkscape:connector-curvature="0"
                         id="path1537_60"
                         d="m 16296000,11533400 70050,160 0,50950 51260,0 0,-52140 71790,190 0,51950 51370,0 0,-52140 71860,110 -110,117480 c 0,18350 -14530,30320 -31330,30320 l -252130,0 c -16910,0 -32600,-13780 -32670,-30710 l -160,-116170 70,0 z"
                         style="fill:none;stroke:#000000;stroke-width:13230" />
                      <polygon
                         id="path1541_61"
                         points="16568900,11680300 16568900,11680300 16574600,11883400 16333600,11883500 16340400,11680300 16567000,11680300 "
                         style="fill:none;stroke:#000000;stroke-width:13260" />
                    </g>
                  </g>
                  <g
                     id="g290">
                    <path
                       inkscape:connector-curvature="0"
                       id="path1519_62"
                       d="m 16254700,11495500 15490,387170 -251310,-990 15920,-386180 m -50700,-146870 71660,120 0,50880 52280,0 0,-52040 73360,220 0,51820 52480,0 0,-52040 73460,120 -100,117510 c 0,18320 -14840,30280 -31990,30280 l -20550,0 -219900,0 -17210,0 c -17300,0 -33330,-13750 -33330,-30750 l -160,-116120 z"
                       style="fill:#ffe805" />
                    <g
                       id="g293">
                      <path
                         inkscape:connector-curvature="0"
                         id="path1521_63"
                         d="m 15984100,11348700 71660,110 0,50890 52300,0 0,-52040 73400,220 0,51820 52430,0 0,-52040 73450,0 -90,117510 c 0,18440 -14840,30400 -32050,30400 l -257650,0 c -17310,0 -33300,-13860 -33340,-30750 l -150,-116120 40,0 z"
                         style="fill:none;stroke:#000000;stroke-width:13240" />
                      <polyline
                         id="path1525_64"
                         points="1.6254e+007,1.15059e+007 1.62702e+007,1.18827e+007 1.60189e+007,1.18818e+007 1.60355e+007,1.15049e+007 1.6254e+007,1.15059e+007 "
                         style="fill:none;stroke:#000000;stroke-width:13200" />
                    </g>
                  </g>
                  <g
                     id="g297">
                    <path
                       inkscape:connector-curvature="0"
                       id="_148860072"
                       d="m 15676300,11533400 70050,160 0,50950 51250,0 0,-52150 71800,210 0,51940 51370,0 0,-52150 71850,120 -110,117490 c 0,18340 -14520,30310 -31320,30310 l -11620,0 5280,203090 -240960,110 6350,-203200 -11180,0 c -16910,0 -32600,-13780 -32680,-30710 l -150,-116170 70,0 z"
                       style="fill:#ffe805" />
                    <g
                       id="g300">
                      <path
                         inkscape:connector-curvature="0"
                         id="path1537_65"
                         d="m 15676300,11533400 70050,160 0,50950 51260,0 0,-52140 71790,190 0,51950 51370,0 0,-52140 71860,110 -110,117480 c 0,18350 -14530,30320 -31330,30320 l -252130,0 c -16910,0 -32610,-13780 -32670,-30710 l -160,-116170 70,0 z"
                         style="fill:none;stroke:#000000;stroke-width:13230" />
                      <polygon
                         id="path1541_66"
                         points="15949200,11680300 15949200,11680300 15954900,11883400 15713900,11883500 15720700,11680300 15947300,11680300 "
                         style="fill:none;stroke:#000000;stroke-width:13260" />
                    </g>
                  </g>
                </g>
              </g>
              <g
                 id="g304">
                <path
                   inkscape:connector-curvature="0"
                   id="path1503_67"
                   d="m 15650000,12410400 989800,0 c 20820,0 37860,20620 37860,45810 0,25030 -16990,45630 -37860,45630 l -989800,0 c -20860,0 -37900,-20510 -37900,-45630 0,-25190 17040,-45810 37900,-45810 z"
                   style="fill:#ffe805" />
                <path
                   inkscape:connector-curvature="0"
                   id="path1505_68"
                   d="m 15649900,12410400 989800,0 c 20860,0 37900,20620 37900,45810 l 0,0 c 0,25120 -17040,45630 -37900,45630 l -989800,0 c -20860,0 -37910,-20510 -37910,-45630 l 0,0 c 0,-25190 17050,-45810 37910,-45810 z"
                   style="fill:none;stroke:#000000;stroke-width:13210" />
              </g>
            </g>
            <path
               inkscape:connector-curvature="0"
               id="path1545_69"
               d="m 16430100,11754600 c -150,-35310 48880,-36120 48260,0 l 0,69330 -48260,0 0,-69330 z m -310100,-129760 c -1550,-36630 51200,-37060 50580,0 l 0,89730 -50580,0 0,-89730 z m -311450,130470 c -150,-35400 48900,-36100 48280,0 l 0,69330 -48280,0 0,-69330 z"
               style="fill:#000000" />
          </g>
          <g
             id="g309">
            <g
               id="g311">
              <g
                 id="g313">
                <path
                   inkscape:connector-curvature="0"
                   id="path1499_70"
                   d="m 14852400,14735400 170630,171380 337130,337140 171460,171460 233060,-295060 -621980,-618840 m -50,-40 0,0 0,0 z"
                   style="fill:#ffe805" />
                <path
                   inkscape:connector-curvature="0"
                   id="path1501_71"
                   d="m 15142600,14501500 -290190,233900 170630,171380 c 218450,-215170 416990,-88740 420130,-84010 3900,3470 116810,212690 -83030,421120 l 171450,171440 233100,-295010 -622030,-618880 -60,60 z"
                   style="fill:none;stroke:#000000;stroke-width:13210" />
                <path
                   inkscape:connector-curvature="0"
                   id="path1509_72"
                   d="m 15095600,14978400 c 137580,-136060 268960,-82110 269360,-81580 50,40 56830,136680 -77950,272990 l -191410,-191410"
                   style="fill:none;stroke:#000000;stroke-width:13150" />
              </g>
              <g
                 id="g318">
                <g
                   id="g320">
                  <g
                     id="g322">
                    <path
                       inkscape:connector-curvature="0"
                       id="path1511_73"
                       d="m 15226400,14368000 670940,670940 c 14120,14120 12640,38770 -3390,54800 -15920,15930 -40700,17530 -54820,3410 l -670940,-670940 c -14130,-14130 -12600,-38820 3400,-54830 16030,-16030 40680,-17510 54810,-3380 z"
                       style="fill:#ffe805" />
                    <path
                       inkscape:connector-curvature="0"
                       id="path1513_74"
                       d="m 15226500,14367900 670930,670940 c 14130,14130 12570,38850 -3400,54820 l 0,0 c -15980,15990 -40680,17520 -54810,3390 l -670930,-670940 c -14130,-14130 -12680,-38740 3380,-54810 l 0,0 c 15970,-15970 40700,-17530 54830,-3400 z"
                       style="fill:none;stroke:#000000;stroke-width:13200" />
                  </g>
                  <g
                     id="g326">
                    <path
                       inkscape:connector-curvature="0"
                       id="path1515_75"
                       d="m 15182400,14440400 641800,641800 c 13500,13500 11550,37680 -4450,53680 -16020,16020 -40170,18030 -53720,4480 l -641790,-641800 c -13520,-13510 -11510,-37660 4510,-53680 16000,-16000 40130,-18000 53650,-4480 z"
                       style="fill:#ffe805" />
                    <path
                       inkscape:connector-curvature="0"
                       id="path1517_76"
                       d="m 15182400,14440400 641750,641750 c 13520,13520 11520,37650 -4480,53650 l 0,0 c -16020,16020 -40170,18030 -53680,4510 l -641750,-641750 c -13520,-13510 -11510,-37660 4510,-53680 l 0,0 c 16000,-16000 40130,-18000 53650,-4480 z"
                       style="fill:none;stroke:#000000;stroke-width:13200" />
                  </g>
                </g>
                <g
                   id="g330">
                  <g
                     id="g332">
                    <path
                       inkscape:connector-curvature="0"
                       id="_119604248"
                       d="m 15916800,14561800 49420,49650 -36030,36020 36240,36250 36880,-36870 50620,50910 -36730,36730 36330,36320 36870,-36870 50720,50890 -83150,83000 c -12970,12970 -31700,11160 -43580,-720 l -8220,-8210 -139870,147340 -170460,-170300 148170,-139200 -7910,-7910 c -11950,-11960 -13310,-32800 -1390,-44820 l 82040,-82250 50,40 z"
                       style="fill:#ffe805" />
                    <g
                       id="g335">
                      <path
                         inkscape:connector-curvature="0"
                         id="path1537_77"
                         d="m 15916800,14561800 49420,49640 -36030,36020 36250,36250 36870,-36870 50620,50910 -36730,36730 36320,36320 36880,-36870 50730,50890 -83160,83000 c -12970,12970 -31700,11160 -43580,-720 l -178280,-178280 c -11960,-11960 -13320,-32800 -1390,-44820 l 82030,-82250 50,50 z"
                         style="fill:none;stroke:#000000;stroke-width:13230" />
                      <polygon
                         id="path1541_78"
                         points="16005900,14858700 16005900,14858700 15866300,15006300 15695800,14836000 15844300,14697100 16004500,14857300 "
                         style="fill:none;stroke:#000000;stroke-width:13260" />
                    </g>
                  </g>
                  <g
                     id="g339">
                    <path
                       inkscape:connector-curvature="0"
                       id="path1519_79"
                       d="m 15914400,14505900 -262810,284730 -177000,-178410 284330,-261800 m 68000,-139710 50590,50750 -35980,35980 36970,36970 36800,-36800 51710,52030 -36640,36640 37110,37110 36790,-36800 51870,52030 -83170,83020 c -12950,12960 -31900,10930 -44040,-1200 l -14530,-14540 -155480,-155480 -12170,-12170 c -12240,-12240 -13850,-33300 -1830,-45310 l 82000,-82230 z"
                       style="fill:#ffe805" />
                    <g
                       id="g342">
                      <path
                         inkscape:connector-curvature="0"
                         id="path1521_80"
                         d="m 15826800,14210600 50590,50740 -35980,35990 36980,36980 36790,-36800 51750,52060 -36640,36640 37080,37070 36790,-36790 51930,51940 -83150,83030 c -13040,13030 -31990,11000 -44160,-1170 l -182190,-182190 c -12240,-12240 -13740,-33340 -1830,-45320 l 82000,-82220 40,40 z"
                         style="fill:none;stroke:#000000;stroke-width:13240" />
                      <polyline
                         id="path1525_81"
                         points="1.59065e+007,1.45127e+007 1.56515e+007,1.47906e+007 1.54745e+007,1.46122e+007 1.57527e+007,1.43575e+007 1.59065e+007,1.45127e+007 "
                         style="fill:none;stroke:#000000;stroke-width:13200" />
                    </g>
                  </g>
                  <g
                     id="g346">
                    <path
                       inkscape:connector-curvature="0"
                       id="_106729952"
                       d="m 15478600,14123600 49420,49640 -36030,36030 36250,36240 36870,-36870 50620,50910 -36720,36730 36320,36330 36870,-36880 50730,50890 -83150,83000 c -12980,12970 -31710,11170 -43590,-720 l -8210,-8210 -139880,147340 -170460,-170300 148180,-139200 -7910,-7910 c -11960,-11960 -13310,-32790 -1400,-44820 l 82040,-82250 50,50 z"
                       style="fill:#ffe805" />
                    <g
                       id="g349">
                      <path
                         inkscape:connector-curvature="0"
                         id="path1537_82"
                         d="m 15478600,14123600 49420,49640 -36030,36030 36250,36250 36870,-36880 50620,50910 -36730,36730 36330,36320 36870,-36870 50730,50890 -83150,83000 c -12970,12970 -31710,11160 -43590,-720 l -178280,-178280 c -11960,-11960 -13310,-32800 -1390,-44820 l 82030,-82250 50,50 z"
                         style="fill:none;stroke:#000000;stroke-width:13230" />
                      <polygon
                         id="path1541_83"
                         points="15567700,14420500 15567700,14420500 15428100,14568100 15257600,14397800 15406100,14258900 15566300,14419100 "
                         style="fill:none;stroke:#000000;stroke-width:13260" />
                    </g>
                  </g>
                </g>
              </g>
              <g
                 id="g353">
                <path
                   inkscape:connector-curvature="0"
                   id="path1503_84"
                   d="m 14839800,14725200 699900,699900 c 14720,14720 12190,41350 -5620,59160 -17700,17700 -44290,20250 -59040,5490 l -699890,-699890 c -14760,-14750 -12310,-41310 5460,-59070 17810,-17810 44440,-20340 59190,-5590 z"
                   style="fill:#ffe805" />
                <path
                   inkscape:connector-curvature="0"
                   id="path1505_85"
                   d="m 14839800,14725100 699900,699900 c 14750,14750 12220,41380 -5590,59190 l 0,0 c -17770,17760 -44320,20220 -59070,5460 l -699900,-699890 c -14750,-14750 -12300,-41310 5470,-59070 l 0,0 c 17810,-17810 44440,-20340 59190,-5590 z"
                   style="fill:none;stroke:#000000;stroke-width:13210" />
              </g>
            </g>
            <path
               inkscape:connector-curvature="0"
               id="path1545_86"
               d="m 15855200,14813100 c 24860,-25070 60100,9020 34120,34130 l -49030,49020 -34120,-34120 49030,-49030 z m -127530,-311040 c 24810,-26980 62410,10010 35770,35770 l -63450,63450 -35770,-35760 63450,-63460 z m -312480,-127970 c 24920,-25130 60110,9060 34140,34140 l -49030,49030 -34140,-34140 49030,-49030 z"
               style="fill:#000000" />
          </g>
          <g
             id="g358">
            <g
               id="g360">
              <g
                 id="g362">
                <path
                   inkscape:connector-curvature="0"
                   id="path1499_87"
                   d="m 12143500,14735400 -170630,171380 -337130,337140 -171460,171460 -233060,-295060 621980,-618840 m 50,-40 0,0 0,0 z"
                   style="fill:#ffe805" />
                <path
                   inkscape:connector-curvature="0"
                   id="path1501_88"
                   d="m 11853300,14501500 290190,233900 -170630,171380 c -218450,-215170 -416990,-88740 -420130,-84010 -3900,3470 -116810,212690 83030,421120 l -171450,171440 -233100,-295010 622030,-618880 60,60 z"
                   style="fill:none;stroke:#000000;stroke-width:13210" />
                <path
                   inkscape:connector-curvature="0"
                   id="path1509_89"
                   d="m 11900300,14978400 c -137580,-136060 -268960,-82110 -269360,-81580 -50,40 -56830,136680 77950,272990 l 191410,-191410"
                   style="fill:none;stroke:#000000;stroke-width:13150" />
              </g>
              <g
                 id="g367">
                <g
                   id="g369">
                  <g
                     id="g371">
                    <path
                       inkscape:connector-curvature="0"
                       id="path1511_90"
                       d="m 11769500,14368000 -670940,670940 c -14120,14120 -12640,38770 3390,54800 15920,15930 40700,17530 54820,3410 l 670940,-670940 c 14130,-14130 12600,-38820 -3400,-54830 -16030,-16030 -40680,-17510 -54810,-3380 z"
                       style="fill:#ffe805" />
                    <path
                       inkscape:connector-curvature="0"
                       id="path1513_91"
                       d="m 11769400,14367900 -670940,670940 c -14120,14130 -12560,38850 3410,54820 l 0,0 c 15980,15990 40680,17520 54800,3390 l 670940,-670940 c 14130,-14130 12680,-38740 -3380,-54810 l 0,0 c -15970,-15970 -40700,-17530 -54830,-3400 z"
                       style="fill:none;stroke:#000000;stroke-width:13200" />
                  </g>
                  <g
                     id="g375">
                    <path
                       inkscape:connector-curvature="0"
                       id="path1515_92"
                       d="m 11813600,14440400 -641800,641800 c -13500,13500 -11550,37680 4450,53680 16020,16020 40170,18030 53720,4480 l 641790,-641800 c 13520,-13510 11510,-37660 -4510,-53680 -16000,-16000 -40130,-18000 -53650,-4480 z"
                       style="fill:#ffe805" />
                    <path
                       inkscape:connector-curvature="0"
                       id="path1517_93"
                       d="m 11813600,14440400 -641750,641750 c -13520,13520 -11520,37650 4480,53650 l 0,0 c 16020,16020 40160,18030 53680,4510 l 641750,-641750 c 13520,-13510 11510,-37660 -4510,-53680 l 0,0 c -16000,-16000 -40130,-18000 -53650,-4480 z"
                       style="fill:none;stroke:#000000;stroke-width:13200" />
                  </g>
                </g>
                <g
                   id="g379">
                  <g
                     id="g381">
                    <path
                       inkscape:connector-curvature="0"
                       id="_117402912"
                       d="m 11079100,14561800 -49420,49650 36030,36020 -36240,36250 -36880,-36870 -50620,50910 36730,36730 -36330,36320 -36870,-36870 -50720,50890 83150,83000 c 12970,12970 31700,11160 43580,-720 l 8210,-8210 139880,147340 170460,-170300 -148170,-139200 7910,-7910 c 11950,-11960 13310,-32800 1390,-44820 l -82040,-82250 -50,40 z"
                       style="fill:#ffe805" />
                    <g
                       id="g384">
                      <path
                         inkscape:connector-curvature="0"
                         id="path1537_94"
                         d="m 11079100,14561800 -49420,49640 36030,36020 -36250,36250 -36870,-36870 -50620,50910 36730,36730 -36320,36320 -36880,-36870 -50730,50890 83160,83000 c 12970,12970 31700,11160 43580,-720 l 178280,-178280 c 11960,-11960 13320,-32800 1390,-44820 l -82030,-82250 -50,50 z"
                         style="fill:none;stroke:#000000;stroke-width:13230" />
                      <polygon
                         id="path1541_95"
                         points="10990000,14858700 10990000,14858700 11129600,15006300 11300100,14836000 11151600,14697100 10991400,14857300 "
                         style="fill:none;stroke:#000000;stroke-width:13260" />
                    </g>
                  </g>
                  <g
                     id="g388">
                    <path
                       inkscape:connector-curvature="0"
                       id="path1519_96"
                       d="m 11081600,14505900 262810,284730 177000,-178410 -284330,-261800 m -68000,-139710 -50590,50750 35980,35980 -36970,36970 -36800,-36800 -51710,52030 36640,36640 -37110,37110 -36800,-36800 -51860,52030 83170,83020 c 12950,12960 31900,10930 44040,-1200 l 14530,-14540 155480,-155480 12170,-12170 c 12240,-12240 13850,-33300 1830,-45310 l -82000,-82230 z"
                       style="fill:#ffe805" />
                    <g
                       id="g391">
                      <path
                         inkscape:connector-curvature="0"
                         id="path1521_97"
                         d="m 11169100,14210600 -50590,50740 35980,35990 -36980,36980 -36790,-36800 -51750,52060 36640,36640 -37080,37070 -36790,-36790 -51930,51940 83150,83030 c 13040,13030 31990,11000 44160,-1170 l 182190,-182190 c 12240,-12240 13740,-33340 1830,-45320 l -82010,-82220 -30,40 z"
                         style="fill:none;stroke:#000000;stroke-width:13240" />
                      <polyline
                         id="path1525_98"
                         points="1.10894e+007,1.45127e+007 1.13444e+007,1.47906e+007 1.15215e+007,1.46122e+007 1.12432e+007,1.43575e+007 1.10894e+007,1.45127e+007 "
                         style="fill:none;stroke:#000000;stroke-width:13200" />
                    </g>
                  </g>
                  <g
                     id="g395">
                    <path
                       inkscape:connector-curvature="0"
                       id="_148433640"
                       d="m 11517300,14123600 -49420,49640 36020,36030 -36240,36240 -36870,-36870 -50620,50910 36720,36730 -36320,36330 -36880,-36880 -50720,50890 83150,83000 c 12980,12970 31710,11170 43590,-720 l 8210,-8210 139880,147340 170460,-170300 -148180,-139200 7910,-7910 c 11960,-11960 13310,-32790 1390,-44820 l -82030,-82250 -50,50 z"
                       style="fill:#ffe805" />
                    <g
                       id="g398">
                      <path
                         inkscape:connector-curvature="0"
                         id="path1537_99"
                         d="m 11517300,14123600 -49420,49640 36030,36030 -36250,36250 -36870,-36880 -50620,50910 36730,36730 -36330,36320 -36870,-36870 -50730,50890 83150,83000 c 12970,12970 31710,11160 43590,-720 l 178280,-178280 c 11960,-11960 13310,-32800 1390,-44820 l -82030,-82250 -50,50 z"
                         style="fill:none;stroke:#000000;stroke-width:13230" />
                      <polygon
                         id="path1541_100"
                         points="11428200,14420500 11428200,14420500 11567800,14568100 11738300,14397800 11589800,14258900 11429600,14419100 "
                         style="fill:none;stroke:#000000;stroke-width:13260" />
                    </g>
                  </g>
                </g>
              </g>
              <g
                 id="g402">
                <path
                   inkscape:connector-curvature="0"
                   id="path1503_101"
                   d="m 12156100,14725200 -699900,699900 c -14720,14720 -12190,41350 5620,59160 17700,17700 44290,20250 59040,5490 l 699890,-699890 c 14760,-14750 12300,-41310 -5460,-59070 -17810,-17810 -44440,-20340 -59190,-5590 z"
                   style="fill:#ffe805" />
                <path
                   inkscape:connector-curvature="0"
                   id="path1505_102"
                   d="m 12156100,14725100 -699900,699900 c -14750,14750 -12220,41380 5590,59190 l 0,0 c 17760,17760 44320,20220 59070,5460 l 699900,-699890 c 14750,-14750 12300,-41310 -5470,-59070 l 0,0 c -17810,-17810 -44440,-20340 -59190,-5590 z"
                   style="fill:none;stroke:#000000;stroke-width:13210" />
              </g>
            </g>
            <path
               inkscape:connector-curvature="0"
               id="path1545_103"
               d="m 11140800,14813100 c -24860,-25070 -60100,9020 -34120,34130 l 49030,49020 34120,-34120 -49030,-49030 z m 127530,-311040 c -24810,-26980 -62410,10010 -35770,35770 l 63450,63450 35770,-35760 -63450,-63460 z m 312480,-127970 c -24920,-25130 -60110,9060 -34140,34140 l 49030,49030 34140,-34140 -49030,-49030 z"
               style="fill:#000000" />
          </g>
        </g>
      </g>
    </g>
  </g>
</svg>
