<?xml version="1.0" encoding="UTF-8" standalone="no"?>
<svg
   xmlns:dc="http://purl.org/dc/elements/1.1/"
   xmlns:cc="http://creativecommons.org/ns#"
   xmlns:rdf="http://www.w3.org/1999/02/22-rdf-syntax-ns#"
   xmlns:svg="http://www.w3.org/2000/svg"
   xmlns="http://www.w3.org/2000/svg"
   xmlns:xlink="http://www.w3.org/1999/xlink"
   xmlns:sodipodi="http://sodipodi.sourceforge.net/DTD/sodipodi-0.dtd"
   xmlns:inkscape="http://www.inkscape.org/namespaces/inkscape"
   width="440"
   height="590"
   viewBox="-220 -370 440 590"
   id="svg2"
   version="1.1"
   inkscape:version="0.48.2 r9819"
   sodipodi:docname="rosa2.svg">
  <metadata
     id="metadata76">
    <rdf:RDF>
      <cc:Work
         rdf:about="">
        <dc:format>image/svg+xml</dc:format>
        <dc:type
           rdf:resource="http://purl.org/dc/dcmitype/StillImage" />
      </cc:Work>
    </rdf:RDF>
  </metadata>
  <sodipodi:namedview
     pagecolor="#ffffff"
     bordercolor="#666666"
     borderopacity="1"
     objecttolerance="10"
     gridtolerance="10"
     guidetolerance="10"
     inkscape:pageopacity="0"
     inkscape:pageshadow="2"
     inkscape:window-width="1440"
     inkscape:window-height="852"
     id="namedview74"
     showgrid="false"
     inkscape:zoom="1.1313708"
     inkscape:cx="17.471366"
     inkscape:cy="290.65156"
     inkscape:window-x="0"
     inkscape:window-y="0"
     inkscape:window-maximized="1"
     inkscape:current-layer="s3" />
  <defs
     id="defs4">
    <g
       id="r5">
      <g
         id="r4">
        <g
           id="r3">
          <g
             id="r2">
            <path
               d="M0 h94 m9 h49 m12 h51"
               stroke-width="1.5"
               fill="none"
               id="r1" />
            <use
               xlink:href="#r1"
               transform="scale(-1)"
               id="use11" />
          </g>
          <use
             xlink:href="#r2"
             transform="rotate(90)"
             id="use13" />
        </g>
        <use
           xlink:href="#r3"
           transform="rotate(45)"
           id="use15" />
      </g>
      <use
         xlink:href="#r4"
         transform="rotate(22.5)"
         id="use17" />
    </g>
  </defs>
  <circle
     r="75"
     fill="none"
     stroke="#00923f"
     stroke-width="8"
     id="circle19" />
  <g
     stroke="#1f1a17"
     stroke-width="1"
     fill="none"
     id="g21">
    <circle
       r="71"
       id="circle23" />
    <circle
       r="79"
       id="circle25" />
  </g>
  <use
     xlink:href="#r4"
     stroke="#72706f"
     id="use27" />
  <circle
     r="211"
     fill="none"
     stroke="#00923f"
     stroke-width="8"
     id="circle29" />
  <circle
     r="207"
     stroke="#1f1a17"
     stroke-width="1"
     fill="none"
     id="circle31" />
  <use
     xlink:href="#r4"
     transform="rotate(22.5)"
     stroke="#00923f"
     id="use33" />
  <use
     xlink:href="#r5"
     transform="rotate(11.25)"
     stroke="#da251d"
     id="use35" />
  <circle
     r="8"
     cx="0"
     cy="0"
     fill="#1f1a17"
     stroke="#28166f"
     stroke-width=".4"
     id="circle37" />
  <g
     stroke="#1f1a17"
     stroke-width="1"
     fill="none"
     id="g39">
    <circle
       r="94"
       id="circle41" />
    <circle
       r="152"
       id="circle43" />
    <circle
       r="164"
       id="circle45" />
    <circle
       r="215"
       id="circle47" />
  </g>
  <g
     id="s3"
     style="display:inline">
    <g
       id="s2">
      <g
         id="s1">
        <path
           d="M 39.416,95.16 C 33.65,103.95 30.76,110.5 28.93,117.18 15.24,113.43 13.54,127.15 23.04,131 13.71,145.8 7.84,173.93 0,212 L 0,103 a 103,103 0 0 0 39.416,-7.84 z"
           id="s0"
           stroke-miterlimit="9"
           inkscape:connector-curvature="0"
           style="fill:#1f1a17;stroke:#1f1a17;stroke-width:1;stroke-miterlimit:9" />
        <use
           xlink:href="#s0"
           transform="scale(-1,1)"
           id="use53"
           style="fill:#007cc3"
           x="0"
           y="0"
           width="440"
           height="590" />
        <path
           d="m -31.995,160.849 a 164,164 0 0 0 63.99,0 C 18.9,170.1 8.4,175.3 0,206 -8.4,175.3 -18.9,170.1 -31.995,160.849 z"
           transform="matrix(0.92387953,0.38268343,-0.38268343,0.92387953,0,0)"
           id="path55"
           inkscape:connector-curvature="0"
           style="fill:#da251d;stroke:#1b1b1b;stroke-width:1" />
      </g>
      <use
         xlink:href="#s1"
         transform="matrix(0.70710678,0.70710678,-0.70710678,0.70710678,0,0)"
         id="use57"
         x="0"
         y="0"
         width="440"
         height="590" />
    </g>
    <use
       xlink:href="#s2"
       transform="matrix(0,1,-1,0,0,0)"
       id="use59"
       style="fill:#000080;fill-opacity:1;stroke:#000000;stroke-opacity:1"
       x="0"
       y="0"
       width="440"
       height="590" />
    <path
       style="fill:#28166f;fill-opacity:1;stroke:#28166f;stroke-width:0.88388348;stroke-opacity:1"
       d="m 124.71921,327.76338 c -0.24399,-0.41216 -0.73159,-2.1415 -1.08356,-3.84298 -0.35197,-1.70148 -1.82929,-5.98042 -3.28293,-9.50877 l -2.643,-6.41517 2.69695,-3.07165 c 2.98372,-3.39827 3.20218,-7.26122 0.57483,-10.16441 -1.72738,-1.90874 -6.6275,-3.02237 -7.86289,-1.78697 -1.45965,1.45965 -2.30915,1.03016 -2.30915,-1.16746 0,-1.13432 -0.27541,-2.33781 -0.61203,-2.67443 -0.33662,-0.33662 -0.7464,-1.49672 -0.91062,-2.57799 -0.41059,-2.70347 -10.909357,-23.62111 -11.855657,-23.62111 -0.420106,0 -0.763828,-0.45578 -0.763828,-1.01284 0,-1.82378 -18.152071,-30.36726 -24.790954,-38.98289 -2.10775,-2.73533 -1.193531,-3.2714 1.422559,-0.83415 4.180996,3.89519 36.2109,24.30129 38.17344,24.32012 0.60767,0.006 1.10486,0.33536 1.10486,0.73228 0,0.73123 8.34737,5.26803 9.39692,5.10723 0.31355,-0.048 0.81344,0.25642 1.11086,0.67656 0.64638,0.9131 12.19928,6.24581 14.6969,6.78394 5.06246,1.09076 5.41604,1.43588 5.21648,5.09182 -0.41465,7.59644 6.84441,10.75778 12.26204,5.34015 l 2.61026,-2.61026 4.81128,2.12778 c 2.64621,1.17028 5.5706,2.24366 6.49865,2.38529 0.92805,0.14163 1.95712,0.52726 2.28683,0.85697 0.32971,0.32971 2.5454,0.8576 4.92376,1.1731 l 4.3243,0.57364 -4.83468,1.96496 c -7.34666,2.98591 -19.63541,11.49934 -27.36095,18.95519 -8.31416,8.02393 -14.16654,15.73077 -19.43936,25.59921 -2.15473,4.03273 -4.11732,6.99502 -4.36131,6.58284 l 0,0 z"
       id="path3923"
       inkscape:connector-curvature="0"
       transform="translate(-220,-370)" />
    <path
       style="fill:#28166f;fill-opacity:1;stroke:#28166f;stroke-width:0.88388348;stroke-opacity:1"
       d="m 182.40402,273.89989 c 0,-0.40671 1.61113,-3.83627 3.58028,-7.62124 1.96916,-3.78496 3.31257,-6.88174 2.98537,-6.88174 -0.32721,0 -0.0998,-0.59663 0.50542,-1.32583 0.60519,-0.7292 0.80406,-1.32582 0.44194,-1.32582 -0.36212,0 -0.21539,-0.53378 0.32605,-1.18618 0.54144,-0.6524 0.76837,-1.40225 0.5043,-1.66633 -0.26408,-0.26408 1.54147,-0.44965 4.01234,-0.41237 5.67319,0.0856 8.32718,-2.15853 8.32718,-7.04112 0,-2.59505 -0.56615,-3.73004 -2.72937,-5.47172 l -2.72936,-2.1975 2.98679,-5.95139 c 1.64274,-3.27326 3.10122,-6.6866 3.24107,-7.5852 0.13986,-0.89861 0.56456,-2.13101 0.94379,-2.73868 0.37922,-0.60767 0.41845,-1.10485 0.0872,-1.10485 -0.33128,0 -0.10718,-0.59662 0.498,-1.32583 0.60519,-0.7292 0.80406,-1.32582 0.44194,-1.32582 -0.36211,0 -0.25083,-0.49719 0.2473,-1.10486 0.8752,-1.06766 2.75385,-7.20108 3.31645,-10.82757 0.28925,-1.86449 0.43678,-2.44921 2.5542,-10.12356 0.73148,-2.65114 1.14918,-5.00103 0.92824,-5.22197 -0.22095,-0.22095 0.0493,-0.94512 0.60045,-1.60926 0.55119,-0.66415 0.76061,-1.4491 0.46537,-1.74434 -0.29524,-0.29524 -0.16219,-1.23675 0.29566,-2.09226 0.45785,-0.8555 1.06452,-3.09025 1.34816,-4.96611 0.28363,-1.87586 0.71128,-4.40502 0.95032,-5.62036 0.23904,-1.21534 0.58864,-3.00521 0.77689,-3.97748 0.18825,-0.97227 0.74919,-3.10522 1.24655,-4.73988 0.49735,-1.63467 0.8721,-3.22566 0.83277,-3.53554 -0.0393,-0.30988 -0.0244,-1.52464 0.0332,-2.69947 0.14029,-2.86294 0.93636,-1.90432 1.4902,1.7945 0.24651,1.64626 0.61148,3.7887 0.81104,4.76097 0.19957,0.97227 0.55345,2.76214 0.7864,3.97748 1.17539,6.13216 1.50083,7.68889 2.03258,9.72272 0.31775,1.21534 0.52741,2.46324 0.46591,2.77312 -0.0615,0.30988 0.2928,1.90087 0.78735,3.53554 1.23007,4.06579 1.76413,6.19263 2.07801,8.27541 0.14652,0.97228 0.34401,1.76777 0.43886,1.76777 0.0948,0 0.34388,1.31769 0.55339,2.92819 0.20951,1.61051 0.77929,3.67254 1.26617,4.58229 0.48689,0.90974 0.88524,2.60831 0.88524,3.77458 0,1.16628 0.28021,2.40071 0.62268,2.74318 0.34247,0.34248 0.76582,1.69153 0.94076,2.99791 0.17495,1.30638 0.73894,2.88233 1.25332,3.50211 0.51438,0.61979 0.69107,1.12689 0.39266,1.12689 -0.71914,0 3.073,10.0081 5.87947,15.51695 l 2.22651,4.37042 -2.65249,2.22312 c -2.10469,1.76399 -2.6525,2.9272 -2.6525,5.6323 0,4.76663 2.44282,7.02329 7.60265,7.02329 4.04404,0 4.78844,0.59892 5.53395,4.45238 0.17594,0.90939 1.90605,4.70223 3.84469,8.42855 1.93864,3.72632 3.52481,7.0231 3.52481,7.32617 0,0.30308 -1.49156,-0.15625 -3.31456,-1.02074 -3.1922,-1.51377 -10.65056,-3.54984 -15.24699,-4.16231 -9.83224,-1.31013 -12.79319,-1.55533 -19.0035,-1.57367 -3.88909,-0.0115 -9.25868,0.2912 -11.93243,0.67266 -2.67374,0.38145 -6.13136,0.83844 -7.68359,1.01552 -3.88476,0.4432 -12.84773,3.09814 -14.19252,4.20402 -0.60767,0.49971 -1.10486,0.61229 -1.10486,0.25017 0,-0.36212 -0.59662,-0.16324 -1.32582,0.44194 -0.72921,0.60519 -1.32583,0.76757 -1.32583,0.36085 z"
       id="path3925"
       inkscape:connector-curvature="0"
       transform="translate(-220,-370)" />
    <path
       style="fill:#28166f;fill-opacity:1;stroke:#28166f;stroke-width:0.88388348;stroke-opacity:1"
       d="m 312.79627,324.57758 c -4.01456,-10.08047 -18.34752,-27.70401 -29.62953,-36.43194 -6.19179,-4.79006 -20.14093,-12.80899 -22.50194,-12.93567 -0.99267,-0.0533 -0.015,-0.44695 2.17262,-0.87486 2.18761,-0.4279 4.5741,-1.0407 5.3033,-1.36177 0.7292,-0.32106 2.10924,-0.73371 3.06675,-0.91699 0.95751,-0.18328 3.80411,-1.27779 6.32577,-2.43225 l 4.58485,-2.09901 2.37368,2.47759 c 1.30553,1.36267 3.43064,2.67964 4.72248,2.92659 2.42078,0.46276 7.12177,-1.68041 7.32028,-3.33731 0.0602,-0.50285 0.20839,-2.46107 0.32921,-4.35158 0.22163,-3.46809 1.6615,-5.02849 5.1615,-5.59357 2.92042,-0.47151 14.72907,-5.6984 14.72907,-6.51957 0,-0.44077 0.29831,-0.72184 0.66291,-0.62459 1.01765,0.27143 9.94369,-4.52897 9.94369,-5.34769 0,-0.39692 0.49719,-0.72645 1.10486,-0.73228 1.91533,-0.0184 33.81779,-20.26221 37.84692,-24.01591 2.88642,-2.68912 3.97523,-2.35987 1.7525,0.52994 -10.63543,13.82734 -34.83198,54.17526 -35.73081,59.58135 -0.10842,0.6521 -0.63988,1.98846 -1.18102,2.96968 -0.54114,0.98122 -1.26233,3.26827 -1.60265,5.08233 -0.65084,3.46925 -1.20711,3.92742 -2.81553,2.31901 -1.37396,-1.37396 -6.9368,0.56214 -8.6523,3.01136 -2.08818,2.98129 -1.5948,5.83342 1.55375,8.98197 l 2.88231,2.88231 -2.3486,5.20522 c -1.29173,2.86287 -2.85562,7.31193 -3.47531,9.88679 -0.61969,2.57487 -1.41432,4.85934 -1.76586,5.07661 -0.35153,0.21726 -1.31134,-1.29283 -2.1329,-3.35576 l 0,0 z"
       id="path3927"
       inkscape:connector-curvature="0"
       transform="translate(-220,-370)" />
    <path
       style="fill:#28166f;fill-opacity:1;stroke:#28166f;stroke-width:0.88388348;stroke-opacity:1"
       d="m 317.23371,405.29359 c 0.3235,-1.24609 0.68565,-2.66337 0.80478,-3.1495 0.11912,-0.48614 0.45866,-1.48051 0.75453,-2.20971 0.72209,-1.77963 2.95515,-11.38193 3.28883,-14.14214 0.5502,-4.55117 0.28907,-29.77391 -0.35091,-33.89519 -0.36598,-2.35681 -1.60405,-7.52577 -2.75127,-11.48659 -1.14721,-3.96082 -1.96599,-7.32134 -1.81951,-7.46782 0.14648,-0.14648 2.79988,1.11127 5.89645,2.79499 3.09657,1.68372 7.32056,3.5552 9.38663,4.15884 3.81407,1.11435 4.18406,1.75592 3.81351,6.61282 -0.0763,0.9997 0.72841,2.91993 1.78816,4.2672 1.66401,2.11544 2.40606,2.39421 5.44016,2.04374 2.1753,-0.25127 4.35836,-1.25088 5.73222,-2.62473 l 2.2189,-2.2189 5.62414,2.63185 c 3.09328,1.44753 6.32736,2.76616 7.18683,2.9303 0.85948,0.16414 1.66212,0.37859 1.78366,0.47655 0.12153,0.098 0.61871,0.27755 1.10485,0.39908 0.48614,0.12153 1.08276,0.32041 1.32582,0.44194 0.24307,0.12154 0.83969,0.32041 1.32583,0.44194 0.48614,0.12154 1.08276,0.32041 1.32582,0.44195 0.24307,0.12153 0.74026,0.30504 1.10486,0.40779 0.3646,0.10275 1.25953,0.44615 1.98874,0.76311 0.7292,0.31696 2.12132,0.69186 3.09359,0.83312 0.97227,0.14125 2.284,0.57887 2.91495,0.97249 0.63095,0.39362 1.72475,0.49403 2.43068,0.22314 0.70592,-0.27089 1.2835,-0.14222 1.2835,0.28593 0,0.64449 2.74257,1.41236 8.39689,2.35097 0.48613,0.0807 1.28163,0.25318 1.76777,0.3833 0.48613,0.13012 1.28163,0.30706 1.76776,0.3932 0.48614,0.0861 2.5993,0.64423 4.69591,1.24021 2.09661,0.59598 5.07972,1.28937 6.62912,1.54085 4.71617,0.76548 5.34092,0.89984 9.07286,1.95108 1.98226,0.55838 5.76086,1.25441 8.3969,1.54673 5.81196,0.64451 8.77963,2.0141 4.79278,2.21189 -1.4584,0.0723 -2.97539,0.076 -3.37109,0.008 -0.3957,-0.0679 -2.38444,0.34496 -4.41942,0.91753 -2.03498,0.57258 -4.29659,1.15268 -5.0258,1.28911 -0.7292,0.13643 -2.32019,0.44724 -3.53553,0.69068 -1.21534,0.24345 -3.4774,0.64414 -5.02681,0.89043 -1.54941,0.24629 -4.53251,0.93461 -6.62913,1.52959 -5.047,1.43226 -6.13522,1.70203 -8.23144,2.04063 -0.97227,0.15705 -1.76777,0.36315 -1.76777,0.458 0,0.0949 -1.35563,0.34803 -3.01251,0.56262 -1.65688,0.21459 -3.48334,0.78092 -4.0588,1.25851 -0.57546,0.47759 -1.24036,0.67427 -1.47756,0.43707 -0.56853,-0.56854 -9.69946,2.13904 -11.11753,3.29666 -0.60767,0.49606 -1.10486,0.67577 -1.10486,0.39936 0,-0.74182 -8.70264,2.38379 -14.38725,5.16727 l -4.94424,2.42096 -2.04571,-2.32527 c -2.67199,-3.03714 -7.79247,-3.76499 -10.58408,-1.50449 -1.58533,1.28372 -1.99985,2.53741 -2.03015,6.14004 -0.0289,3.43142 -0.36121,4.5273 -1.3733,4.52835 -0.73437,7.6e-4 -5.2335,1.91585 -9.99808,4.25574 -8.55067,4.19926 -8.65525,4.22502 -8.07468,1.98874 l 0,0 z"
       id="path3929"
       inkscape:connector-curvature="0"
       transform="translate(-220,-370)" />
    <path
       style="fill:#28166f;fill-opacity:1;stroke:#28166f;stroke-width:0.88388348;stroke-opacity:1"
       d="m 71.034704,518.84607 c 0,-0.3455 2.922721,-4.86868 6.494935,-10.0515 14.539264,-21.09458 30.493791,-49.37575 32.049631,-56.81154 0.16414,-0.78447 0.7032,-2.4909 1.1979,-3.79208 0.76659,-2.01629 1.15886,-2.22695 2.6554,-1.42602 3.46749,1.85574 9.75126,-2.349 9.75126,-6.52499 0,-0.74425 -1.26662,-2.79577 -2.8147,-4.55894 -2.63782,-3.00431 -2.7444,-3.38117 -1.6961,-5.99697 0.61523,-1.53516 2.1324,-5.77431 3.37149,-9.42033 1.23909,-3.64602 2.56846,-6.9765 2.95417,-7.40106 0.3857,-0.42456 1.94143,1.68481 3.45718,4.68748 5.0649,10.03351 16.04745,23.55954 25.85833,31.84693 5.88208,4.96868 20.75848,14.3473 23.3644,14.72977 2.67001,0.39187 2.19355,1.11236 -1.15048,1.7397 -1.87268,0.35132 -3.49956,0.58712 -3.61527,0.524 -0.11573,-0.0631 -3.43147,1.24371 -7.36832,2.90406 l -7.15791,3.01883 -3.59679,-2.60551 c -2.36215,-1.71113 -4.49037,-2.53741 -6.19999,-2.40714 -2.91019,0.22175 -6.14258,3.6093 -5.36859,5.62629 0.27127,0.70691 0.007,2.45816 -0.58638,3.89167 -0.95856,2.31417 -2.18392,3.17573 -5.63916,3.96496 -3.92172,0.89577 -16.9743,7.25523 -23.5346,11.46648 -1.70147,1.09223 -6.0767,3.70681 -9.72272,5.81018 -5.554596,3.20442 -23.528553,14.91067 -30.714948,20.00432 -1.093805,0.77528 -1.988738,1.12692 -1.988738,0.78141 z"
       id="path3931"
       inkscape:connector-curvature="0"
       transform="translate(-220,-370)" />
    <path
       style="fill:#28166f;fill-opacity:1;stroke:#28166f;stroke-width:0.88388348;stroke-opacity:1"
       d="m 219.4884,580.24661 c -0.10278,-0.72921 -0.29926,-2.12132 -0.43662,-3.09359 -0.13735,-0.97228 -1.04641,-5.54637 -2.02012,-10.16466 -0.97371,-4.6183 -1.99345,-9.59014 -2.26609,-11.04855 -0.27264,-1.45841 -1.66843,-7.42462 -3.10176,-13.25825 -1.43332,-5.83363 -2.60439,-10.6066 -2.60236,-10.6066 0.28667,0 -1.56753,-6.14714 -2.45067,-8.12459 -0.693,-1.55171 -1.18916,-3.1427 -1.10257,-3.53553 0.17396,-0.78922 0.0912,-1.0039 -4.5658,-11.84895 -3.08417,-7.18224 -3.17458,-7.65452 -1.64782,-8.60799 0.88846,-0.55485 2.22316,-2.18416 2.96602,-3.62067 2.42714,-4.69358 -1.09468,-9.46952 -7.33344,-9.9449 -1.59637,-0.12164 -3.2215,-0.632 -3.6114,-1.13412 -0.82629,-1.06412 -8.88838,-19.03257 -8.53955,-19.03257 0.12922,0 2.58426,0.82343 5.45564,1.82985 9.89773,3.46915 17.31632,4.52455 32.17915,4.57796 14.51295,0.0522 20.85541,-0.88732 31.26015,-4.63041 2.85208,-1.02603 5.30589,-1.74522 5.45291,-1.59819 0.14702,0.14702 -1.09288,3.20388 -2.75534,6.79303 -1.66246,3.58914 -3.4583,7.97977 -3.99076,9.75695 -0.89303,2.9807 -1.24258,3.24219 -4.50808,3.37241 -8.71874,0.34768 -12.33048,8.69666 -5.65445,13.07096 l 2.20566,1.4452 -2.26558,5.00918 c -2.4858,5.49609 -8.04114,20.63054 -8.73778,23.80437 -0.24161,1.10077 -1.26625,5.476 -2.27698,9.72272 -1.01072,4.24672 -1.99628,8.41737 -2.19012,9.2681 -0.19384,0.85074 -0.51511,2.24286 -0.71392,3.0936 -0.19881,0.85073 -1.24474,5.72314 -2.3243,10.82757 -3.06445,14.48954 -4.22164,19.11348 -4.42402,17.67767 l 0,0 z"
       id="path3933"
       inkscape:connector-curvature="0"
       transform="translate(-220,-370)" />
    <path
       style="fill:#28166f;fill-opacity:1;stroke:#28166f;stroke-width:0.88388348;stroke-opacity:1"
       d="m 113.90305,403.13988 c -10.42463,-4.82893 -10.16466,-4.62433 -10.16466,-7.99982 0,-6.97133 -6.823851,-9.90516 -12.307114,-5.29129 l -2.720032,2.28875 -7.291473,-3.0798 c -4.010311,-1.69389 -8.882465,-3.57155 -10.827008,-4.17259 -1.944544,-0.60103 -3.933282,-1.32768 -4.419418,-1.61478 -0.486136,-0.28709 -1.281631,-0.60429 -1.767767,-0.70489 -3.472491,-0.71856 -9.657714,-2.20075 -14.142135,-3.38894 -7.811713,-2.06979 -8.627634,-2.27251 -11.048544,-2.74507 -1.215339,-0.23724 -3.005204,-0.68973 -3.977475,-1.00555 -2.329257,-0.7566 -2.903392,-0.88221 -7.071068,-1.54704 -1.944544,-0.3102 -4.228181,-0.76542 -5.074749,-1.01159 -0.846569,-0.24618 -2.636433,-0.65861 -3.977476,-0.91652 -1.341043,-0.25791 -3.034882,-0.59951 -3.764086,-0.7591 -0.729203,-0.1596 -2.320194,-0.34582 -3.535533,-0.41382 -2.1137352,-0.11829 -2.1283625,-0.15652 -0.33678,-0.88019 1.030112,-0.4161 3.093908,-0.94897 4.586214,-1.18416 1.492307,-0.23519 3.078239,-0.65317 3.524293,-0.92885 0.446056,-0.27567 2.359735,-0.70563 4.252621,-0.95545 3.901645,-0.51495 6.880686,-1.08736 9.036493,-1.73634 0.811903,-0.24441 2.470556,-0.64212 3.685896,-0.88379 1.21534,-0.24167 4.39732,-1.03238 7.071068,-1.75713 2.673747,-0.72475 5.940124,-1.45567 7.258617,-1.62428 1.318492,-0.1686 2.677462,-0.58675 3.019935,-0.92922 0.342473,-0.34248 1.364428,-0.62268 2.271013,-0.62268 0.906584,0 4.12171,-0.85218 7.144724,-1.89372 3.023014,-1.04155 6.093011,-1.9807 6.822215,-2.08699 1.450193,-0.21139 1.745812,-0.32458 11.665936,-4.46652 6.587976,-2.75067 6.851632,-2.78911 8.282801,-1.20769 2.177257,2.40584 6.74267,3.69354 9.448184,2.6649 2.921458,-1.11073 3.495618,-2.14185 3.900758,-7.00514 0.1843,-2.21228 0.42435,-4.06936 0.53346,-4.12685 2.46954,-1.30121 17.54765,-7.51061 18.23779,-7.51061 1.18372,0 1.20946,0.5416 0.12228,2.57302 -0.46299,0.8651 -1.02517,2.52938 -1.24929,3.6984 -0.36281,1.89246 -1.52943,6.77337 -2.83192,11.84819 -0.24954,0.97227 -0.48419,8.52947 -0.52144,16.79379 -0.0722,16.01273 0.91658,23.91682 4.4504,35.57631 0.47886,1.57994 0.6001,2.83197 0.26943,2.7823 -0.33066,-0.0497 -4.18093,-1.74854 -8.55616,-3.77525 l 0,0 z"
       id="path3935"
       inkscape:connector-curvature="0"
       transform="translate(-220,-370)" />
  </g>
  <use
     xlink:href="#s3"
     transform="scale(-1)"
     id="use61" />
  <g
     id="flr"
     fill="#da251d"
     stroke="#1f1a17"
     stroke-width="1">
    <path
       d="M 0,-215.7 L 0,-345.3 C 2,-339.3 4.6,-332 6.6,-327.7 C 8.7,-323.1 11.2,-319.7 14.1,-314.9 C 11.3,-311 8.9,-307.5 6,-302.6 C 3.3,-296.9 1.4,-289.8 0.2,-279.8 L 0,-265.5 L 4.1,-265.8 C 9.9,-266.3 8.5,-279.9 10.3,-285.7 C 11.8,-291 13.9,-295.7 18.4,-297.9 C 22.5,-300 27.9,-299.6 32.2,-297.9 C 36.1,-296.5 39,-292.8 41.3,-289.3 C 43,-286.5 43.9,-283.1 44,-279.8 C 44.1,-276.6 43.6,-272.9 41.2,-270 C 38.3,-266.4 35,-265 30.4,-264.8 C 28.5,-269.5 31,-273.7 28.7,-276.3 C 26.5,-278.8 21.1,-280 18,-278.7 C 15.1,-277.3 14.2,-273.1 13.3,-270 C 12.1,-265.9 13.6,-260.9 10.9,-257.5 C 9.2,-255.4 6.9,-255.1 4.3,-255 L 0,-255 L 0,-250.8 C 0,-247.5 5.9,-249.3 8.5,-247.1 C 10.7,-245.3 10.4,-239.1 12.9,-237.7 C 16.9,-235.5 22.7,-239.1 26.7,-236.9 C 29.6,-235.3 30.9,-232 32.7,-229.2 C 34.6,-226.4 35.7,-223.6 36.9,-220.4 C 38.4,-216.1 43.2,-203.1 37.3,-210.6 C 35.1,-213.4 31.2,-214.4 28.3,-216.5 C 24.9,-218.8 21.9,-221.5 18.4,-223.6 C 15.6,-225.3 12.2,-226.1 9.4,-227.9 L 0,-233.7 L 0,-228.6 C 0,-220.4 16,-220.4 20.8,-213.7 C 22.7,-211.1 14.2,-214.7 11,-214.9 z"
       stroke="#1f1a17"
       stroke-width=".7"
       fill="#28166f"
       id="path64" />
    <circle
       r="8"
       cx="37.2"
       cy="-248.2"
       id="circle66" />
    <circle
       r="8"
       cx="27.9"
       cy="-312.7"
       id="circle68" />
  </g>
  <circle
     r="8"
     cy="-360"
     fill="#da251d"
     stroke="#1f1a17"
     stroke-width="1"
     id="circle70" />
  <use
     xlink:href="#flr"
     transform="scale(-1,1)"
     id="use72" />
</svg>
