<?xml version="1.0" encoding="UTF-8" standalone="no"?>
<svg
   xmlns:dc="http://purl.org/dc/elements/1.1/"
   xmlns:cc="http://creativecommons.org/ns#"
   xmlns:rdf="http://www.w3.org/1999/02/22-rdf-syntax-ns#"
   xmlns:svg="http://www.w3.org/2000/svg"
   xmlns="http://www.w3.org/2000/svg"
   xmlns:xlink="http://www.w3.org/1999/xlink"
   xmlns:sodipodi="http://sodipodi.sourceforge.net/DTD/sodipodi-0.dtd"
   xmlns:inkscape="http://www.inkscape.org/namespaces/inkscape"
   width="440"
   height="590"
   viewBox="-220 -370 440 590"
   id="svg3107"
   version="1.1"
   inkscape:version="0.48.4 r9939"
   sodipodi:docname="rosa.svg">
  <sodipodi:namedview
     pagecolor="#ffffff"
     bordercolor="#666666"
     borderopacity="1"
     objecttolerance="10"
     gridtolerance="10"
     guidetolerance="10"
     inkscape:pageopacity="0"
     inkscape:pageshadow="2"
     inkscape:window-width="1034"
     inkscape:window-height="786"
     id="namedview3179"
     showgrid="false"
     inkscape:zoom="0.4"
     inkscape:cx="220"
     inkscape:cy="295"
     inkscape:window-x="0"
     inkscape:window-y="0"
     inkscape:window-maximized="0"
     inkscape:current-layer="svg3107" />
  <metadata
     id="metadata3181">
    <rdf:RDF>
      <cc:Work
         rdf:about="">
        <dc:format>image/svg+xml</dc:format>
        <dc:type
           rdf:resource="http://purl.org/dc/dcmitype/StillImage" />
        <dc:title></dc:title>
      </cc:Work>
    </rdf:RDF>
  </metadata>
  <defs
     id="defs3109">
    <g
       id="r5">
      <g
         id="r4">
        <g
           id="r3">
          <g
             id="r2">
            <path
               id="r1"
               fill="none"
               stroke-width="1.5"
               d="M0 h94 m9 h49 m12 h51" />
            <use
               id="use3116"
               transform="scale(-1)"
               xlink:href="#r1" />
          </g>
          <use
             id="use3118"
             transform="rotate(90)"
             xlink:href="#r2" />
        </g>
        <use
           id="use3120"
           transform="rotate(45)"
           xlink:href="#r3" />
      </g>
      <use
         id="use3122"
         transform="rotate(22.5)"
         xlink:href="#r4" />
    </g>
  </defs>
  <circle
     id="circle3124"
     stroke-width="8"
     stroke="#000000"
     fill="none"
     r="75" />
  <g
     id="g3126"
     fill="none"
     stroke-width="1"
     stroke="#000000">
    <circle
       id="circle3128"
       r="71" />
    <circle
       id="circle3130"
       r="79" />
  </g>
  <use
     id="use3132"
     stroke="#72706f"
     xlink:href="#r4" />
  <circle
     id="circle3134"
     stroke-width="8"
     stroke="#000000"
     fill="none"
     r="211" />
  <circle
     id="circle3136"
     fill="none"
     stroke-width="1"
     stroke="#000000"
     r="207" />
  <use
     id="use3138"
     stroke="#00923f"
     transform="rotate(22.5)"
     xlink:href="#r4" />
  <use
     id="use3140"
     stroke="#da251d"
     transform="rotate(11.25)"
     xlink:href="#r5" />
  <circle
     id="circle3142"
     stroke-width=".4"
     stroke="#000000"
     fill="#000000"
     cy="0"
     cx="0"
     r="8" />
  <g
     id="g3144"
     fill="none"
     stroke-width="1"
     stroke="#000000">
    <circle
       id="circle3146"
       r="94" />
    <circle
       id="circle3148"
       r="152" />
    <circle
       id="circle3150"
       r="164" />
    <circle
       id="circle3152"
       r="215" />
  </g>
  <g
     id="s3">
    <g
       id="s2">
      <g
         id="s1">
        <path
           stroke-miterlimit="9"
           id="s0"
           stroke-width="1"
           stroke="#000000"
           fill="#000000"
           d="M 39.416,95.16 C 33.65,103.95 30.76,110.5 28.93,117.18 C 15.24,113.43 13.54,127.15 23.04,131 C 13.71,145.8 7.84,173.93 0,212 L 0,103 A 103,103 0 0,0 39.416,95.16 z" />
        <use
           id="use3158"
           transform="scale(-1,1)"
           fill="#000000"
           xlink:href="#s0" />
        <path
           id="path3160"
           transform="rotate(22.5)"
           stroke-width="1"
           stroke="#000000"
           fill="#000000"
           d="M -31.995,160.849 A 164,164 0 0,0 31.995,160.849 C 18.9,170.1 8.4,175.3 0,206 C -8.4,175.3 -18.9,170.1 -31.995,160.849 z" />
      </g>
      <use
         id="use3162"
         transform="rotate(45)"
         xlink:href="#s1" />
    </g>
    <use
       id="use3164"
       transform="rotate(90)"
       xlink:href="#s2" />
  </g>
  <use
     id="use3166"
     transform="scale(-1)"
     xlink:href="#s3" />
  <g
     stroke-width="1"
     stroke="#000000"
     fill="#000000"
     id="flr">
    <path
       id="path3169"
       fill="#000000"
       stroke-width=".7"
       stroke="#000000"
       d="M 0,-215.7 L 0,-345.3 C 2,-339.3 4.6,-332 6.6,-327.7 C 8.7,-323.1 11.2,-319.7 14.1,-314.9 C 11.3,-311 8.9,-307.5 6,-302.6 C 3.3,-296.9 1.4,-289.8 0.2,-279.8 L 0,-265.5 L 4.1,-265.8 C 9.9,-266.3 8.5,-279.9 10.3,-285.7 C 11.8,-291 13.9,-295.7 18.4,-297.9 C 22.5,-300 27.9,-299.6 32.2,-297.9 C 36.1,-296.5 39,-292.8 41.3,-289.3 C 43,-286.5 43.9,-283.1 44,-279.8 C 44.1,-276.6 43.6,-272.9 41.2,-270 C 38.3,-266.4 35,-265 30.4,-264.8 C 28.5,-269.5 31,-273.7 28.7,-276.3 C 26.5,-278.8 21.1,-280 18,-278.7 C 15.1,-277.3 14.2,-273.1 13.3,-270 C 12.1,-265.9 13.6,-260.9 10.9,-257.5 C 9.2,-255.4 6.9,-255.1 4.3,-255 L 0,-255 L 0,-250.8 C 0,-247.5 5.9,-249.3 8.5,-247.1 C 10.7,-245.3 10.4,-239.1 12.9,-237.7 C 16.9,-235.5 22.7,-239.1 26.7,-236.9 C 29.6,-235.3 30.9,-232 32.7,-229.2 C 34.6,-226.4 35.7,-223.6 36.9,-220.4 C 38.4,-216.1 43.2,-203.1 37.3,-210.6 C 35.1,-213.4 31.2,-214.4 28.3,-216.5 C 24.9,-218.8 21.9,-221.5 18.4,-223.6 C 15.6,-225.3 12.2,-226.1 9.4,-227.9 L 0,-233.7 L 0,-228.6 C 0,-220.4 16,-220.4 20.8,-213.7 C 22.7,-211.1 14.2,-214.7 11,-214.9 z" />
    <circle
       d="m 45.200001,-248.2 c 0,4.41828 -3.581722,8 -8,8 -4.418278,0 -8,-3.58172 -8,-8 0,-4.41827 3.581722,-8 8,-8 4.418278,0 8,3.58173 8,8 z"
       id="circle3171"
       cy="-248.2"
       cx="37.2"
       r="8" />
    <circle
       d="m 35.9,-312.70001 c 0,4.41828 -3.581722,8 -8,8 -4.418278,0 -8,-3.58172 -8,-8 0,-4.41828 3.581722,-8 8,-8 4.418278,0 8,3.58172 8,8 z"
       id="circle3173"
       cy="-312.7"
       cx="27.9"
       r="8" />
  </g>
  <circle
     id="circle3175"
     stroke-width="1"
     stroke="#000000"
     fill="#000000"
     cy="-360"
     r="8" />
  <use
     id="use3177"
     transform="scale(-1,1)"
     xlink:href="#flr" />
</svg>
