<?xml version="1.0" encoding="UTF-8" standalone="no"?>
<svg
   xmlns:dc="http://purl.org/dc/elements/1.1/"
   xmlns:cc="http://creativecommons.org/ns#"
   xmlns:rdf="http://www.w3.org/1999/02/22-rdf-syntax-ns#"
   xmlns:svg="http://www.w3.org/2000/svg"
   xmlns="http://www.w3.org/2000/svg"
   xmlns:xlink="http://www.w3.org/1999/xlink"
   xmlns:sodipodi="http://sodipodi.sourceforge.net/DTD/sodipodi-0.dtd"
   xmlns:inkscape="http://www.inkscape.org/namespaces/inkscape"
   width="440"
   height="590"
   viewBox="-220 -370 440 590"
   id="svg2"
   version="1.1"
   inkscape:version="0.48.2 r9819"
   sodipodi:docname="rosa 2.svg">
  <metadata
     id="metadata76">
    <rdf:RDF>
      <cc:Work
         rdf:about="">
        <dc:format>image/svg+xml</dc:format>
        <dc:type
           rdf:resource="http://purl.org/dc/dcmitype/StillImage" />
      </cc:Work>
    </rdf:RDF>
  </metadata>
  <sodipodi:namedview
     pagecolor="#ffffff"
     bordercolor="#666666"
     borderopacity="1"
     objecttolerance="10"
     gridtolerance="10"
     guidetolerance="10"
     inkscape:pageopacity="0"
     inkscape:pageshadow="2"
     inkscape:window-width="1440"
     inkscape:window-height="852"
     id="namedview74"
     showgrid="false"
     inkscape:zoom="0.2828427"
     inkscape:cx="233.22116"
     inkscape:cy="298.75732"
     inkscape:window-x="0"
     inkscape:window-y="0"
     inkscape:window-maximized="1"
     inkscape:current-layer="svg2" />
  <defs
     id="defs4">
    <g
       id="r5">
      <g
         id="r4">
        <g
           id="r3">
          <g
             id="r2">
            <path
               d="M0 h94 m9 h49 m12 h51"
               stroke-width="1.5"
               fill="none"
               id="r1" />
            <use
               xlink:href="#r1"
               transform="scale(-1)"
               id="use11" />
          </g>
          <use
             xlink:href="#r2"
             transform="rotate(90)"
             id="use13" />
        </g>
        <use
           xlink:href="#r3"
           transform="rotate(45)"
           id="use15" />
      </g>
      <use
         xlink:href="#r4"
         transform="rotate(22.5)"
         id="use17" />
    </g>
  </defs>
  <circle
     r="75"
     fill="none"
     stroke="#00923f"
     stroke-width="8"
     id="circle19" />
  <g
     stroke="#1f1a17"
     stroke-width="1"
     fill="none"
     id="g21">
    <circle
       r="71"
       id="circle23" />
    <circle
       r="79"
       id="circle25" />
  </g>
  <use
     xlink:href="#r4"
     stroke="#72706f"
     id="use27" />
  <circle
     r="211"
     fill="none"
     stroke="#00923f"
     stroke-width="8"
     id="circle29" />
  <circle
     r="207"
     stroke="#1f1a17"
     stroke-width="1"
     fill="none"
     id="circle31" />
  <use
     xlink:href="#r4"
     transform="rotate(22.5)"
     stroke="#00923f"
     id="use33" />
  <use
     xlink:href="#r5"
     transform="rotate(11.25)"
     stroke="#da251d"
     id="use35" />
  <circle
     r="8"
     cx="0"
     cy="0"
     fill="#1f1a17"
     stroke="#28166f"
     stroke-width=".4"
     id="circle37" />
  <g
     stroke="#1f1a17"
     stroke-width="1"
     fill="none"
     id="g39">
    <circle
       r="94"
       id="circle41" />
    <circle
       r="152"
       id="circle43" />
    <circle
       r="164"
       id="circle45" />
    <circle
       r="215"
       id="circle47" />
  </g>
  <g
     id="s3"
     style="display:inline">
    <g
       id="s2">
      <g
         id="s1">
        <path
           d="M 39.416,95.16 C 33.65,103.95 30.76,110.5 28.93,117.18 15.24,113.43 13.54,127.15 23.04,131 13.71,145.8 7.84,173.93 0,212 L 0,103 a 103,103 0 0 0 39.416,-7.84 z"
           id="s0"
           stroke-miterlimit="9"
           inkscape:connector-curvature="0"
           style="fill:#1f1a17;stroke:#1f1a17;stroke-width:1;stroke-miterlimit:9" />
        <use
           xlink:href="#s0"
           transform="scale(-1,1)"
           id="use53"
           style="fill:#007cc3"
           x="0"
           y="0"
           width="440"
           height="590" />
        <path
           d="m -31.995,160.849 a 164,164 0 0 0 63.99,0 C 18.9,170.1 8.4,175.3 0,206 -8.4,175.3 -18.9,170.1 -31.995,160.849 z"
           transform="matrix(0.92387953,0.38268343,-0.38268343,0.92387953,0,0)"
           id="path55"
           inkscape:connector-curvature="0"
           style="fill:#da251d;stroke:#1b1b1b;stroke-width:1" />
      </g>
      <use
         xlink:href="#s1"
         transform="matrix(0.70710678,0.70710678,-0.70710678,0.70710678,0,0)"
         id="use57"
         x="0"
         y="0"
         width="440"
         height="590" />
    </g>
    <use
       xlink:href="#s2"
       transform="matrix(0,1,-1,0,0,0)"
       id="use59"
       style="fill:#000080;fill-opacity:1;stroke:#000000;stroke-opacity:1"
       x="0"
       y="0"
       width="440"
       height="590" />
    <path
       style="fill:#28166f;fill-opacity:1;stroke:#28166f;stroke-width:0.88388348;stroke-opacity:1"
       d="m 124.71921,327.76338 c -0.24399,-0.41216 -0.73159,-2.1415 -1.08356,-3.84298 -0.35197,-1.70148 -1.82929,-5.98042 -3.28293,-9.50877 l -2.643,-6.41517 2.69695,-3.07165 c 2.98372,-3.39827 3.20218,-7.26122 0.57483,-10.16441 -1.72738,-1.90874 -6.6275,-3.02237 -7.86289,-1.78697 -1.45965,1.45965 -2.30915,1.03016 -2.30915,-1.16746 0,-1.13432 -0.27541,-2.33781 -0.61203,-2.67443 -0.33662,-0.33662 -0.7464,-1.49672 -0.91062,-2.57799 -0.41059,-2.70347 -10.909357,-23.62111 -11.855657,-23.62111 -0.420106,0 -0.763828,-0.45578 -0.763828,-1.01284 0,-1.82378 -18.152071,-30.36726 -24.790954,-38.98289 -2.10775,-2.73533 -1.193531,-3.2714 1.422559,-0.83415 4.180996,3.89519 36.2109,24.30129 38.17344,24.32012 0.60767,0.006 1.10486,0.33536 1.10486,0.73228 0,0.73123 8.34737,5.26803 9.39692,5.10723 0.31355,-0.048 0.81344,0.25642 1.11086,0.67656 0.64638,0.9131 12.19928,6.24581 14.6969,6.78394 5.06246,1.09076 5.41604,1.43588 5.21648,5.09182 -0.41465,7.59644 6.84441,10.75778 12.26204,5.34015 l 2.61026,-2.61026 4.81128,2.12778 c 2.64621,1.17028 5.5706,2.24366 6.49865,2.38529 0.92805,0.14163 1.95712,0.52726 2.28683,0.85697 0.32971,0.32971 2.5454,0.8576 4.92376,1.1731 l 4.3243,0.57364 -4.83468,1.96496 c -7.34666,2.98591 -19.63541,11.49934 -27.36095,18.95519 -8.31416,8.02393 -14.16654,15.73077 -19.43936,25.59921 -2.15473,4.03273 -4.11732,6.99502 -4.36131,6.58284 l 0,0 z"
       id="path3923"
       inkscape:connector-curvature="0"
       transform="translate(-220,-370)" />
    <path
       style="fill:#28166f;fill-opacity:1;stroke:#28166f;stroke-width:0.88388348;stroke-opacity:1"
       d="m 182.40402,273.89989 c 0,-0.40671 1.61113,-3.83627 3.58028,-7.62124 1.96916,-3.78496 3.31257,-6.88174 2.98537,-6.88174 -0.32721,0 -0.0998,-0.59663 0.50542,-1.32583 0.60519,-0.7292 0.80406,-1.32582 0.44194,-1.32582 -0.36212,0 -0.21539,-0.53378 0.32605,-1.18618 0.54144,-0.6524 0.76837,-1.40225 0.5043,-1.66633 -0.26408,-0.26408 1.54147,-0.44965 4.01234,-0.41237 5.67319,0.0856 8.32718,-2.15853 8.32718,-7.04112 0,-2.59505 -0.56615,-3.73004 -2.72937,-5.47172 l -2.72936,-2.1975 2.98679,-5.95139 c 1.64274,-3.27326 3.10122,-6.6866 3.24107,-7.5852 0.13986,-0.89861 0.56456,-2.13101 0.94379,-2.73868 0.37922,-0.60767 0.41845,-1.10485 0.0872,-1.10485 -0.33128,0 -0.10718,-0.59662 0.498,-1.32583 0.60519,-0.7292 0.80406,-1.32582 0.44194,-1.32582 -0.36211,0 -0.25083,-0.49719 0.2473,-1.10486 0.8752,-1.06766 2.75385,-7.20108 3.31645,-10.82757 0.28925,-1.86449 0.43678,-2.44921 2.5542,-10.12356 0.73148,-2.65114 1.14918,-5.00103 0.92824,-5.22197 -0.22095,-0.22095 0.0493,-0.94512 0.60045,-1.60926 0.55119,-0.66415 0.76061,-1.4491 0.46537,-1.74434 -0.29524,-0.29524 -0.16219,-1.23675 0.29566,-2.09226 0.45785,-0.8555 1.06452,-3.09025 1.34816,-4.96611 0.28363,-1.87586 0.71128,-4.40502 0.95032,-5.62036 0.23904,-1.21534 0.58864,-3.00521 0.77689,-3.97748 0.18825,-0.97227 0.74919,-3.10522 1.24655,-4.73988 0.49735,-1.63467 0.8721,-3.22566 0.83277,-3.53554 -0.0393,-0.30988 -0.0244,-1.52464 0.0332,-2.69947 0.14029,-2.86294 0.93636,-1.90432 1.4902,1.7945 0.24651,1.64626 0.61148,3.7887 0.81104,4.76097 0.19957,0.97227 0.55345,2.76214 0.7864,3.97748 1.17539,6.13216 1.50083,7.68889 2.03258,9.72272 0.31775,1.21534 0.52741,2.46324 0.46591,2.77312 -0.0615,0.30988 0.2928,1.90087 0.78735,3.53554 1.23007,4.06579 1.76413,6.19263 2.07801,8.27541 0.14652,0.97228 0.34401,1.76777 0.43886,1.76777 0.0948,0 0.34388,1.31769 0.55339,2.92819 0.20951,1.61051 0.77929,3.67254 1.26617,4.58229 0.48689,0.90974 0.88524,2.60831 0.88524,3.77458 0,1.16628 0.28021,2.40071 0.62268,2.74318 0.34247,0.34248 0.76582,1.69153 0.94076,2.99791 0.17495,1.30638 0.73894,2.88233 1.25332,3.50211 0.51438,0.61979 0.69107,1.12689 0.39266,1.12689 -0.71914,0 3.073,10.0081 5.87947,15.51695 l 2.22651,4.37042 -2.65249,2.22312 c -2.10469,1.76399 -2.6525,2.9272 -2.6525,5.6323 0,4.76663 2.44282,7.02329 7.60265,7.02329 4.04404,0 4.78844,0.59892 5.53395,4.45238 0.17594,0.90939 1.90605,4.70223 3.84469,8.42855 1.93864,3.72632 3.52481,7.0231 3.52481,7.32617 0,0.30308 -1.49156,-0.15625 -3.31456,-1.02074 -3.1922,-1.51377 -10.65056,-3.54984 -15.24699,-4.16231 -9.83224,-1.31013 -12.79319,-1.55533 -19.0035,-1.57367 -3.88909,-0.0115 -9.25868,0.2912 -11.93243,0.67266 -2.67374,0.38145 -6.13136,0.83844 -7.68359,1.01552 -3.88476,0.4432 -12.84773,3.09814 -14.19252,4.20402 -0.60767,0.49971 -1.10486,0.61229 -1.10486,0.25017 0,-0.36212 -0.59662,-0.16324 -1.32582,0.44194 -0.72921,0.60519 -1.32583,0.76757 -1.32583,0.36085 z"
       id="path3925"
       inkscape:connector-curvature="0"
       transform="translate(-220,-370)" />
    <path
       style="fill:#28166f;fill-opacity:1;stroke:#28166f;stroke-width:0.88388348;stroke-opacity:1"
       d="m 312.79627,324.57758 c -4.01456,-10.08047 -18.34752,-27.70401 -29.62953,-36.43194 -6.19179,-4.79006 -20.14093,-12.80899 -22.50194,-12.93567 -0.99267,-0.0533 -0.015,-0.44695 2.17262,-0.87486 2.18761,-0.4279 4.5741,-1.0407 5.3033,-1.36177 0.7292,-0.32106 2.10924,-0.73371 3.06675,-0.91699 0.95751,-0.18328 3.80411,-1.27779 6.32577,-2.43225 l 4.58485,-2.09901 2.37368,2.47759 c 1.30553,1.36267 3.43064,2.67964 4.72248,2.92659 2.42078,0.46276 7.12177,-1.68041 7.32028,-3.33731 0.0602,-0.50285 0.20839,-2.46107 0.32921,-4.35158 0.22163,-3.46809 1.6615,-5.02849 5.1615,-5.59357 2.92042,-0.47151 14.72907,-5.6984 14.72907,-6.51957 0,-0.44077 0.29831,-0.72184 0.66291,-0.62459 1.01765,0.27143 9.94369,-4.52897 9.94369,-5.34769 0,-0.39692 0.49719,-0.72645 1.10486,-0.73228 1.91533,-0.0184 33.81779,-20.26221 37.84692,-24.01591 2.88642,-2.68912 3.97523,-2.35987 1.7525,0.52994 -10.63543,13.82734 -34.83198,54.17526 -35.73081,59.58135 -0.10842,0.6521 -0.63988,1.98846 -1.18102,2.96968 -0.54114,0.98122 -1.26233,3.26827 -1.60265,5.08233 -0.65084,3.46925 -1.20711,3.92742 -2.81553,2.31901 -1.37396,-1.37396 -6.9368,0.56214 -8.6523,3.01136 -2.08818,2.98129 -1.5948,5.83342 1.55375,8.98197 l 2.88231,2.88231 -2.3486,5.20522 c -1.29173,2.86287 -2.85562,7.31193 -3.47531,9.88679 -0.61969,2.57487 -1.41432,4.85934 -1.76586,5.07661 -0.35153,0.21726 -1.31134,-1.29283 -2.1329,-3.35576 l 0,0 z"
       id="path3927"
       inkscape:connector-curvature="0"
       transform="translate(-220,-370)" />
    <path
       style="fill:#28166f;fill-opacity:1;stroke:#28166f;stroke-width:0.88388348;stroke-opacity:1"
       d="m 317.23371,405.29359 c 0.3235,-1.24609 0.68565,-2.66337 0.80478,-3.1495 0.11912,-0.48614 0.45866,-1.48051 0.75453,-2.20971 0.72209,-1.77963 2.95515,-11.38193 3.28883,-14.14214 0.5502,-4.55117 0.28907,-29.77391 -0.35091,-33.89519 -0.36598,-2.35681 -1.60405,-7.52577 -2.75127,-11.48659 -1.14721,-3.96082 -1.96599,-7.32134 -1.81951,-7.46782 0.14648,-0.14648 2.79988,1.11127 5.89645,2.79499 3.09657,1.68372 7.32056,3.5552 9.38663,4.15884 3.81407,1.11435 4.18406,1.75592 3.81351,6.61282 -0.0763,0.9997 0.72841,2.91993 1.78816,4.2672 1.66401,2.11544 2.40606,2.39421 5.44016,2.04374 2.1753,-0.25127 4.35836,-1.25088 5.73222,-2.62473 l 2.2189,-2.2189 5.62414,2.63185 c 3.09328,1.44753 6.32736,2.76616 7.18683,2.9303 0.85948,0.16414 1.66212,0.37859 1.78366,0.47655 0.12153,0.098 0.61871,0.27755 1.10485,0.39908 0.48614,0.12153 1.08276,0.32041 1.32582,0.44194 0.24307,0.12154 0.83969,0.32041 1.32583,0.44194 0.48614,0.12154 1.08276,0.32041 1.32582,0.44195 0.24307,0.12153 0.74026,0.30504 1.10486,0.40779 0.3646,0.10275 1.25953,0.44615 1.98874,0.76311 0.7292,0.31696 2.12132,0.69186 3.09359,0.83312 0.97227,0.14125 2.284,0.57887 2.91495,0.97249 0.63095,0.39362 1.72475,0.49403 2.43068,0.22314 0.70592,-0.27089 1.2835,-0.14222 1.2835,0.28593 0,0.64449 2.74257,1.41236 8.39689,2.35097 0.48613,0.0807 1.28163,0.25318 1.76777,0.3833 0.48613,0.13012 1.28163,0.30706 1.76776,0.3932 0.48614,0.0861 2.5993,0.64423 4.69591,1.24021 2.09661,0.59598 5.07972,1.28937 6.62912,1.54085 4.71617,0.76548 5.34092,0.89984 9.07286,1.95108 1.98226,0.55838 5.76086,1.25441 8.3969,1.54673 5.81196,0.64451 8.77963,2.0141 4.79278,2.21189 -1.4584,0.0723 -2.97539,0.076 -3.37109,0.008 -0.3957,-0.0679 -2.38444,0.34496 -4.41942,0.91753 -2.03498,0.57258 -4.29659,1.15268 -5.0258,1.28911 -0.7292,0.13643 -2.32019,0.44724 -3.53553,0.69068 -1.21534,0.24345 -3.4774,0.64414 -5.02681,0.89043 -1.54941,0.24629 -4.53251,0.93461 -6.62913,1.52959 -5.047,1.43226 -6.13522,1.70203 -8.23144,2.04063 -0.97227,0.15705 -1.76777,0.36315 -1.76777,0.458 0,0.0949 -1.35563,0.34803 -3.01251,0.56262 -1.65688,0.21459 -3.48334,0.78092 -4.0588,1.25851 -0.57546,0.47759 -1.24036,0.67427 -1.47756,0.43707 -0.56853,-0.56854 -9.69946,2.13904 -11.11753,3.29666 -0.60767,0.49606 -1.10486,0.67577 -1.10486,0.39936 0,-0.74182 -8.70264,2.38379 -14.38725,5.16727 l -4.94424,2.42096 -2.04571,-2.32527 c -2.67199,-3.03714 -7.79247,-3.76499 -10.58408,-1.50449 -1.58533,1.28372 -1.99985,2.53741 -2.03015,6.14004 -0.0289,3.43142 -0.36121,4.5273 -1.3733,4.52835 -0.73437,7.6e-4 -5.2335,1.91585 -9.99808,4.25574 -8.55067,4.19926 -8.65525,4.22502 -8.07468,1.98874 l 0,0 z"
       id="path3929"
       inkscape:connector-curvature="0"
       transform="translate(-220,-370)" />
    <path
       style="fill:#28166f;fill-opacity:1;stroke:#28166f;stroke-width:0.88388348;stroke-opacity:1"
       d="m 71.034704,518.84607 c 0,-0.3455 2.922721,-4.86868 6.494935,-10.0515 14.539264,-21.09458 30.493791,-49.37575 32.049631,-56.81154 0.16414,-0.78447 0.7032,-2.4909 1.1979,-3.79208 0.76659,-2.01629 1.15886,-2.22695 2.6554,-1.42602 3.46749,1.85574 9.75126,-2.349 9.75126,-6.52499 0,-0.74425 -1.26662,-2.79577 -2.8147,-4.55894 -2.63782,-3.00431 -2.7444,-3.38117 -1.6961,-5.99697 0.61523,-1.53516 2.1324,-5.77431 3.37149,-9.42033 1.23909,-3.64602 2.56846,-6.9765 2.95417,-7.40106 0.3857,-0.42456 1.94143,1.68481 3.45718,4.68748 5.0649,10.03351 16.04745,23.55954 25.85833,31.84693 5.88208,4.96868 20.75848,14.3473 23.3644,14.72977 2.67001,0.39187 2.19355,1.11236 -1.15048,1.7397 -1.87268,0.35132 -3.49956,0.58712 -3.61527,0.524 -0.11573,-0.0631 -3.43147,1.24371 -7.36832,2.90406 l -7.15791,3.01883 -3.59679,-2.60551 c -2.36215,-1.71113 -4.49037,-2.53741 -6.19999,-2.40714 -2.91019,0.22175 -6.14258,3.6093 -5.36859,5.62629 0.27127,0.70691 0.007,2.45816 -0.58638,3.89167 -0.95856,2.31417 -2.18392,3.17573 -5.63916,3.96496 -3.92172,0.89577 -16.9743,7.25523 -23.5346,11.46648 -1.70147,1.09223 -6.0767,3.70681 -9.72272,5.81018 -5.554596,3.20442 -23.528553,14.91067 -30.714948,20.00432 -1.093805,0.77528 -1.988738,1.12692 -1.988738,0.78141 z"
       id="path3931"
       inkscape:connector-curvature="0"
       transform="translate(-220,-370)" />
    <path
       style="fill:#28166f;fill-opacity:1;stroke:#28166f;stroke-width:0.88388348;stroke-opacity:1"
       d="m 219.4884,580.24661 c -0.10278,-0.72921 -0.29926,-2.12132 -0.43662,-3.09359 -0.13735,-0.97228 -1.04641,-5.54637 -2.02012,-10.16466 -0.97371,-4.6183 -1.99345,-9.59014 -2.26609,-11.04855 -0.27264,-1.45841 -1.66843,-7.42462 -3.10176,-13.25825 -1.43332,-5.83363 -2.60439,-10.6066 -2.60236,-10.6066 0.28667,0 -1.56753,-6.14714 -2.45067,-8.12459 -0.693,-1.55171 -1.18916,-3.1427 -1.10257,-3.53553 0.17396,-0.78922 0.0912,-1.0039 -4.5658,-11.84895 -3.08417,-7.18224 -3.17458,-7.65452 -1.64782,-8.60799 0.88846,-0.55485 2.22316,-2.18416 2.96602,-3.62067 2.42714,-4.69358 -1.09468,-9.46952 -7.33344,-9.9449 -1.59637,-0.12164 -3.2215,-0.632 -3.6114,-1.13412 -0.82629,-1.06412 -8.88838,-19.03257 -8.53955,-19.03257 0.12922,0 2.58426,0.82343 5.45564,1.82985 9.89773,3.46915 17.31632,4.52455 32.17915,4.57796 14.51295,0.0522 20.85541,-0.88732 31.26015,-4.63041 2.85208,-1.02603 5.30589,-1.74522 5.45291,-1.59819 0.14702,0.14702 -1.09288,3.20388 -2.75534,6.79303 -1.66246,3.58914 -3.4583,7.97977 -3.99076,9.75695 -0.89303,2.9807 -1.24258,3.24219 -4.50808,3.37241 -8.71874,0.34768 -12.33048,8.69666 -5.65445,13.07096 l 2.20566,1.4452 -2.26558,5.00918 c -2.4858,5.49609 -8.04114,20.63054 -8.73778,23.80437 -0.24161,1.10077 -1.26625,5.476 -2.27698,9.72272 -1.01072,4.24672 -1.99628,8.41737 -2.19012,9.2681 -0.19384,0.85074 -0.51511,2.24286 -0.71392,3.0936 -0.19881,0.85073 -1.24474,5.72314 -2.3243,10.82757 -3.06445,14.48954 -4.22164,19.11348 -4.42402,17.67767 l 0,0 z"
       id="path3933"
       inkscape:connector-curvature="0"
       transform="translate(-220,-370)" />
    <path
       style="fill:#28166f;fill-opacity:1;stroke:#28166f;stroke-width:0.88388348;stroke-opacity:1"
       d="m 113.90305,403.13988 c -10.42463,-4.82893 -10.16466,-4.62433 -10.16466,-7.99982 0,-6.97133 -6.823851,-9.90516 -12.307114,-5.29129 l -2.720032,2.28875 -7.291473,-3.0798 c -4.010311,-1.69389 -8.882465,-3.57155 -10.827008,-4.17259 -1.944544,-0.60103 -3.933282,-1.32768 -4.419418,-1.61478 -0.486136,-0.28709 -1.281631,-0.60429 -1.767767,-0.70489 -3.472491,-0.71856 -9.657714,-2.20075 -14.142135,-3.38894 -7.811713,-2.06979 -8.627634,-2.27251 -11.048544,-2.74507 -1.215339,-0.23724 -3.005204,-0.68973 -3.977475,-1.00555 -2.329257,-0.7566 -2.903392,-0.88221 -7.071068,-1.54704 -1.944544,-0.3102 -4.228181,-0.76542 -5.074749,-1.01159 -0.846569,-0.24618 -2.636433,-0.65861 -3.977476,-0.91652 -1.341043,-0.25791 -3.034882,-0.59951 -3.764086,-0.7591 -0.729203,-0.1596 -2.320194,-0.34582 -3.535533,-0.41382 -2.1137352,-0.11829 -2.1283625,-0.15652 -0.33678,-0.88019 1.030112,-0.4161 3.093908,-0.94897 4.586214,-1.18416 1.492307,-0.23519 3.078239,-0.65317 3.524293,-0.92885 0.446056,-0.27567 2.359735,-0.70563 4.252621,-0.95545 3.901645,-0.51495 6.880686,-1.08736 9.036493,-1.73634 0.811903,-0.24441 2.470556,-0.64212 3.685896,-0.88379 1.21534,-0.24167 4.39732,-1.03238 7.071068,-1.75713 2.673747,-0.72475 5.940124,-1.45567 7.258617,-1.62428 1.318492,-0.1686 2.677462,-0.58675 3.019935,-0.92922 0.342473,-0.34248 1.364428,-0.62268 2.271013,-0.62268 0.906584,0 4.12171,-0.85218 7.144724,-1.89372 3.023014,-1.04155 6.093011,-1.9807 6.822215,-2.08699 1.450193,-0.21139 1.745812,-0.32458 11.665936,-4.46652 6.587976,-2.75067 6.851632,-2.78911 8.282801,-1.20769 2.177257,2.40584 6.74267,3.69354 9.448184,2.6649 2.921458,-1.11073 3.495618,-2.14185 3.900758,-7.00514 0.1843,-2.21228 0.42435,-4.06936 0.53346,-4.12685 2.46954,-1.30121 17.54765,-7.51061 18.23779,-7.51061 1.18372,0 1.20946,0.5416 0.12228,2.57302 -0.46299,0.8651 -1.02517,2.52938 -1.24929,3.6984 -0.36281,1.89246 -1.52943,6.77337 -2.83192,11.84819 -0.24954,0.97227 -0.48419,8.52947 -0.52144,16.79379 -0.0722,16.01273 0.91658,23.91682 4.4504,35.57631 0.47886,1.57994 0.6001,2.83197 0.26943,2.7823 -0.33066,-0.0497 -4.18093,-1.74854 -8.55616,-3.77525 l 0,0 z"
       id="path3935"
       inkscape:connector-curvature="0"
       transform="translate(-220,-370)" />
    <path
       style="fill:#e0bc34;stroke:#f0e060"
       d="m 121.29537,317.57771 c -2.98728,-8.60727 -3.22619,-9.88859 -2.08657,-11.19052 0.70784,-0.80866 1.93182,-2.7437 2.71996,-4.30009 2.61159,-5.15733 -1.53516,-9.85648 -7.8006,-8.83974 -3.05409,0.49561 -3.23644,0.35074 -3.12401,-2.48185 0.01,-0.24816 -0.59483,-1.63611 -1.34373,-3.08433 -0.74891,-1.44822 -1.3619,-2.83238 -1.36222,-3.07591 -0.002,-1.34675 -6.79174,-15.01161 -10.716753,-21.56743 -7.369503,-12.30902 -17.526758,-28.31501 -22.643282,-35.68171 -2.616746,-3.76756 -4.532183,-6.8501 -4.256526,-6.8501 0.275657,0 3.590185,2.21689 7.365617,4.92643 6.389805,4.5858 21.894887,14.42698 34.264814,21.74809 6.0345,3.57151 22.2867,11.46093 27.0391,13.12577 2.89151,1.01295 3.24578,1.51213 3.97747,5.6044 1.28452,7.18416 6.57695,8.79241 12.41338,3.77212 l 2.41327,-2.0758 4.92072,1.95074 c 2.7064,1.0729 5.71621,2.27381 6.68849,2.66869 2.28477,0.92793 2.01933,0.85954 6.54732,1.68697 l 3.89567,0.71189 -7.01348,3.6553 c -16.92707,8.82209 -31.36949,22.25723 -41.32698,38.44468 -3.34271,5.43409 -6.32976,10.03597 -6.63788,10.22641 -0.30812,0.19043 -2.07832,-4.02788 -3.93378,-9.37401 l 0,0 z"
       id="path3027"
       inkscape:connector-curvature="0"
       transform="translate(-220,-370)" />
    <path
       style="fill:#e0bc34;stroke:#f0e060;stroke-width:0.88388354"
       d="m 186.65988,264.06406 c 2.18331,-5.21124 4.09317,-9.59849 4.24413,-9.74945 0.15096,-0.15096 1.47396,-0.42627 2.94002,-0.61182 4.00367,-0.50669 7.70957,-2.73014 8.89808,-5.33865 1.23797,-2.71703 0.43943,-4.72396 -2.93608,-7.37914 l -2.23138,-1.7552 3.88545,-9.58286 c 3.67057,-9.05286 6.66138,-17.77063 8.13936,-23.72499 0.362,-1.45841 0.7716,-3.0494 0.91023,-3.53553 0.66744,-2.34058 1.38444,-5.55346 1.77526,-7.95495 0.23734,-1.45841 0.6471,-3.24828 0.91057,-3.97748 0.26347,-0.7292 0.64655,-2.32019 0.85127,-3.53553 0.20472,-1.21534 0.62916,-3.20408 0.94319,-4.41942 0.8525,-3.2993 0.96395,-3.76421 1.5362,-6.40816 0.91795,-4.24122 1.38146,-6.34709 1.89681,-8.61786 0.27582,-1.21534 0.71425,-3.40295 0.97428,-4.86136 0.26003,-1.45841 0.57788,-2.76098 0.70633,-2.89461 0.20865,-0.21706 2.16627,9.19907 3.63384,17.47869 0.30159,1.70147 0.64846,3.49134 0.77084,3.97747 0.12237,0.48614 0.47942,1.87826 0.79346,3.0936 0.31402,1.21534 0.75358,3.20407 0.97679,4.41941 0.3978,2.16598 0.97313,4.65122 1.79041,7.73398 0.22554,0.85074 1.18025,4.43047 2.12157,7.95496 0.94133,3.52448 1.50359,6.40815 1.24947,6.40815 -0.25412,0 -0.0773,0.49719 0.39292,1.10486 0.47023,0.60767 1.36521,3.09359 1.98885,5.52427 0.62364,2.43068 2.02376,6.40815 3.11138,8.83883 1.08762,2.43068 2.66055,6.25292 3.49541,8.49386 l 1.51791,4.07444 -2.28243,2.46278 c -2.69587,2.90889 -3.04537,7.42908 -0.73564,9.51429 0.85074,0.76804 3.39794,1.86166 5.66045,2.43028 4.03875,1.01502 4.17371,1.16507 7.41315,8.2423 1.81472,3.96465 3.62526,8.33811 4.02341,9.7188 0.62115,2.15395 0.50985,2.4281 -0.78402,1.93112 -2.36955,-0.91015 -13.64605,-4.06723 -16.09202,-4.50527 -6.06615,-1.08637 -26.85089,-1.38328 -33.62078,-0.48028 -9.45144,1.26068 -9.93567,1.36732 -16.23604,3.5756 -2.87138,1.00642 -5.53157,1.82985 -5.91151,1.82985 -0.37995,0 1.09554,-4.26374 3.27886,-9.47498 z"
       id="path3029"
       inkscape:connector-curvature="0"
       transform="translate(-220,-370)" />
    <path
       style="fill:#e0bc34;stroke:#f0e060;stroke-width:0.88388354"
       d="m 112.7998,402.93884 c -4.5931,-2.16923 -8.50458,-4.09755 -8.69218,-4.28515 -0.18759,-0.18759 -0.56073,-1.9787 -0.8292,-3.98023 -0.51197,-3.81708 -3.491707,-7.11345 -6.430169,-7.11345 -0.838876,0 -3.036355,1.02548 -4.883291,2.27885 l -3.358064,2.27884 -7.15091,-2.83739 c -15.625064,-6.19983 -33.13579,-10.99919 -59.91228,-16.42083 -11.6581212,-2.36051 -15.8913876,-3.86677 -10.834049,-3.8549 2.919256,0.007 12.249948,-1.95248 34.427263,-7.22928 15.84386,-3.76984 29.518412,-7.98879 37.882064,-11.68759 l 5.025545,-2.22254 3.197306,2.16975 c 6.133679,4.16243 11.770215,2.04446 11.802985,-4.43507 0.007,-1.47177 0.3087,-3.13991 0.66945,-3.70697 0.75294,-1.18354 16.65668,-8.24976 18.5675,-8.24976 0.85432,0 1.06588,0.50462 0.64852,1.5468 -0.3407,0.85073 -1.60476,5.32539 -2.80903,9.94369 -2.07041,7.93989 -2.1679,9.38306 -1.79138,26.5165 0.34143,15.5359 0.71098,19.34845 2.59167,26.73748 1.40879,5.53492 1.84216,8.59594 1.21142,8.55659 -0.54014,-0.0337 -4.74007,-1.8361 -9.33317,-4.00534 l 0,0 z"
       id="path3031"
       inkscape:connector-curvature="0"
       transform="translate(-220,-370)" />
    <path
       style="fill:#e0bc34;stroke:#f0e060;stroke-width:0.88388354"
       d="m 78.573498,506.77447 c 16.233393,-24.75534 28.197122,-46.15489 31.136742,-55.69434 l 1.53487,-4.98087 3.18513,0.42464 c 2.37731,0.31693 3.8016,-0.0613 5.61581,-1.49145 3.17757,-2.50485 3.15079,-5.80632 -0.0792,-9.76231 l -2.50987,-3.07401 3.61473,-9.94163 c 1.98809,-5.4679 3.87653,-9.94256 4.19652,-9.94369 0.31998,-10e-4 1.98933,2.55864 3.70965,5.68838 10.06798,18.31645 27.73599,35.41168 45.98156,44.49092 l 5.19496,2.58507 -4.30215,1.0833 c -2.36618,0.59581 -7.35765,2.29071 -11.09214,3.76645 l -6.79001,2.68316 -3.02507,-2.30734 c -4.84209,-3.69324 -11.25511,-2.52898 -11.25511,2.04332 0,4.74112 -1.79071,6.91183 -7.3438,8.90222 -10.09754,3.61927 -30.31128,15.09185 -51.802311,29.40112 -6.52209,4.34257 -12.408312,8.10662 -13.080493,8.36457 -0.672182,0.25793 2.527396,-5.24895 7.110172,-12.23751 l 0,0 z"
       id="path3033"
       inkscape:connector-curvature="0"
       transform="translate(-220,-370)" />
    <path
       style="fill:#e0bc34;stroke:#f0e060;stroke-width:0.88388354"
       d="m 186.65988,264.06406 c 2.18331,-5.21124 4.09317,-9.59849 4.24413,-9.74945 0.15096,-0.15096 1.42253,-0.42616 2.82573,-0.61155 4.56736,-0.60345 7.30143,-2.13388 8.72294,-4.88277 1.59966,-3.0934 0.95242,-5.00426 -2.6566,-7.84312 l -2.24135,-1.76304 3.23768,-7.80725 c 5.11811,-12.34168 6.1868,-15.62389 10.60023,-32.556 0.25342,-0.97227 0.66991,-2.96101 0.92553,-4.41941 0.25561,-1.45841 1.04404,-5.03814 1.75207,-7.95495 0.70802,-2.91682 1.46645,-6.0988 1.6854,-7.07107 1.16842,-5.18852 1.42149,-6.37366 1.79308,-8.3969 0.34412,-1.87374 0.92163,-4.27785 1.75167,-7.29204 0.10041,-0.3646 0.23227,-1.52469 0.29304,-2.57799 0.15122,-2.6211 0.72324,-1.80119 1.33608,1.91508 0.65302,3.95986 1.24027,6.82741 1.77934,8.68848 0.23517,0.8119 0.68138,3.06717 0.99158,5.01172 0.3102,1.94454 0.66892,3.93328 0.79717,4.41941 1.00783,3.82036 1.42927,5.59824 1.78093,7.51301 0.44848,2.44194 0.37189,2.13623 3.65366,14.58408 1.28166,4.86136 2.40998,9.23658 2.50737,9.72272 0.44134,2.2028 2.76199,8.68284 6.09166,17.00998 3.21675,8.04475 3.46765,9.17883 2.24874,10.16466 -6.2964,5.09242 -4.01824,12.01031 4.39838,13.35618 3.31075,0.52941 3.56292,0.82141 6.78088,7.85185 4.37468,9.55758 5.23715,12.49422 3.47034,11.81622 -13.29968,-5.10356 -34.39833,-7.19525 -50.43278,-4.99983 -9.05599,1.23993 -9.47512,1.3338 -15.70425,3.51711 -2.87138,1.00642 -5.53157,1.82985 -5.91151,1.82985 -0.37995,0 1.09554,-4.26374 3.27886,-9.47498 z"
       id="path3035"
       inkscape:connector-curvature="0"
       transform="translate(-220,-370)" />
    <path
       style="fill:#e0bc34;stroke:#f0e060;stroke-width:0.88388354"
       d="m 219.33224,573.96498 c -0.22731,-0.67725 -1.25886,-5.60659 -2.29232,-10.95409 -3.0754,-15.91312 -9.33749,-39.04158 -13.67582,-50.5104 l -4.061,-10.73564 2.24545,-3.30887 c 1.23501,-1.81987 2.24546,-4.01834 2.24546,-4.88547 0,-2.6302 -4.27436,-6.90822 -7.50851,-7.51496 -1.64039,-0.30774 -3.57846,-1.21801 -4.30682,-2.02284 -1.64375,-1.81632 -7.79745,-16.04286 -6.93367,-16.02973 0.34616,0.005 2.57794,0.60069 4.95951,1.32318 16.6466,5.05 42.50599,5.23246 58.82598,0.41507 3.13703,-0.926 5.87981,-1.5075 6.09508,-1.29223 0.21527,0.21527 -1.11607,3.98625 -2.95854,8.37996 -2.80609,6.69166 -3.72384,8.06661 -5.65313,8.46934 -9.81468,2.04877 -13.38885,9.30306 -6.96935,14.1453 l 2.06832,1.56014 -4.13665,10.38719 c -4.92795,12.37416 -8.15269,23.7108 -13.17489,46.31666 -2.05203,9.23658 -3.87156,16.95016 -4.04339,17.14127 -0.17183,0.19111 -0.49841,-0.20663 -0.72571,-0.88388 l 0,0 z"
       id="path3037"
       inkscape:connector-curvature="0"
       transform="translate(-220,-370)" />
    <path
       style="fill:#e0bc34;stroke:#f0e060;stroke-width:0.88388354"
       d="m 318.12214,403.94438 c 0.31601,-0.82352 1.40574,-4.74746 2.42161,-8.71986 1.67437,-6.54735 1.81179,-9.08178 1.46993,-27.10994 -0.28511,-15.03559 -0.76116,-21.46097 -1.95133,-26.33748 -0.86583,-3.54755 -1.37874,-6.64558 -1.13981,-6.88451 0.23893,-0.23893 4.01987,1.20806 8.40209,3.21554 7.66411,3.51089 7.98793,3.77661 8.49928,6.97444 0.61092,3.82044 4.31706,8.00816 7.08131,8.00146 1.02752,-0.002 3.39767,-0.93037 5.267,-2.06196 l 3.39879,-2.05743 9.41752,3.51215 c 12.12702,4.52263 29.72255,9.3873 50.89652,14.07146 16.59462,3.67111 16.78844,3.74035 12.4379,4.4427 -16.03879,2.58929 -53.09508,12.32828 -64.67458,16.99751 l -7.63874,3.08019 -2.98129,-1.84254 c -6.55393,-4.05055 -11.8186,-1.9282 -12.96254,5.2256 -0.53053,3.31777 -0.83487,3.58759 -7.41329,6.57239 -9.56131,4.33823 -11.25469,4.80784 -10.53037,2.92028 z"
       id="path3039"
       inkscape:connector-curvature="0"
       transform="translate(-220,-370)" />
    <path
       style="fill:#e0bc34;stroke:#f0e060;stroke-width:0.88388354"
       d="m 308.08607,315.7746 c -4.28299,-6.55596 -9.34539,-12.77732 -14.94666,-18.36847 -8.05248,-8.03793 -21.03341,-17.68125 -27.25258,-20.24549 -3.1155,-1.28455 -3.80333,-2.72007 -1.32583,-2.76704 0.85074,-0.0161 5.06062,-1.36614 9.35528,-3.00003 l 7.80848,-2.9707 3.68201,2.1055 c 6.41072,3.66587 10.83512,2.47899 11.73491,-3.14799 0.69384,-4.33899 2.64746,-6.06496 10.95059,-9.67453 8.81078,-3.83027 26.47351,-13.92353 43.29713,-24.74189 7.52787,-4.84077 13.8374,-8.65104 14.02117,-8.46727 0.18375,0.18376 -3.62877,6.61994 -8.4723,14.3026 -4.84352,7.68267 -10.8859,17.45618 -13.42751,21.71891 -5.05609,8.48 -13.70531,26.18895 -14.67191,30.04021 -0.5288,2.10692 -1.04572,2.42607 -3.92942,2.42607 -4.27846,0 -7.97833,2.80384 -7.97833,6.04616 0,1.31027 1.03406,3.90407 2.29791,5.76399 l 2.29791,3.38168 -1.92217,5.27174 c -1.05719,2.89946 -2.62415,6.83966 -3.48212,8.756 l -1.55995,3.48427 -6.47661,-9.91372 0,0 z"
       id="path3041"
       inkscape:connector-curvature="0"
       transform="translate(-220,-370)" />
    <path
       style="fill:#e0bc34;stroke:#f0e060;stroke-width:0.88388354"
       d=""
       id="path3043"
       inkscape:connector-curvature="0"
       transform="translate(-220,-370)" />
    <path
       style="fill:#e0bc34;stroke:#f0e060;stroke-width:0.88388354"
       d=""
       id="path3045"
       inkscape:connector-curvature="0"
       transform="translate(-220,-370)" />
    <path
       style="fill:#e0bc34;stroke:#f0e060;stroke-width:0.88388354"
       d=""
       id="path3047"
       inkscape:connector-curvature="0"
       transform="translate(-220,-370)" />
    <path
       style="fill:#e0bc34;stroke:#f0e060;stroke-width:0.11048544"
       d="m 155.23882,269.36984 c 0,-0.0454 0.21171,-0.34294 0.47047,-0.66111 0.25876,-0.31817 0.76139,-1.03996 1.11694,-1.60398 0.45217,-0.71727 0.68434,-0.99408 0.77249,-0.921 0.0693,0.0575 1.09553,0.60503 2.28049,1.2168 1.18495,0.61177 2.10193,1.11323 2.03773,1.11435 -0.0642,10e-4 -0.8594,-0.29728 -1.7671,-0.66312 -0.9077,-0.36584 -1.82453,-0.71325 -2.03739,-0.77202 l -0.38701,-0.10686 -1.24331,1.23978 c -0.68382,0.68188 -1.24331,1.2026 -1.24331,1.15716 z"
       id="path3049"
       inkscape:connector-curvature="0"
       transform="translate(-220,-370)" />
    <path
       style="fill:#e0bc34;stroke:#f0e060;stroke-width:0.11048544"
       d="m 252.95723,272.76792 c -7.63716,-2.58823 -11.72066,-3.57752 -17.50598,-4.24106 -5.84946,-0.67091 -15.58423,-0.95476 -23.09146,-0.67332 -9.64923,0.36174 -14.31696,1.23917 -23.7833,4.47074 -3.79088,1.29411 -5.35973,1.73853 -5.81547,1.64738 -0.29818,-0.0596 -0.30431,-0.0755 -0.22428,-0.58184 0.11276,-0.71332 0.84844,-2.53716 2.58323,-6.40416 2.21246,-4.9318 3.62818,-8.39353 4.09553,-10.01445 0.10512,-0.3646 0.33862,-1.01094 0.51889,-1.43631 0.75071,-1.77144 1.23432,-2.02719 4.28482,-2.26606 1.68325,-0.13181 2.65345,-0.3105 3.62074,-0.66686 0.69994,-0.25787 1.62254,-0.71536 2.048,-1.01553 0.1706,-0.12037 0.33762,-0.19143 0.37114,-0.15791 0.0835,0.0835 -0.93758,0.72458 -2.00716,1.26032 -1.14003,0.57102 -2.11761,0.91885 -3.81889,1.35881 -0.75566,0.19541 -1.58093,0.47546 -1.83394,0.62233 -0.55008,0.31932 -1.22397,1.02976 -1.73438,1.82845 -0.98908,1.54774 -3.08053,6.24236 -4.76564,10.6973 -1.14626,3.0304 -1.47975,4.31931 -1.22444,4.73241 0.17663,0.2858 2.19211,0.0191 4.42796,-0.5859 4.38475,-1.1865 5.39759,-1.44712 6.90534,-1.77687 6.6608,-1.45674 13.15709,-2.11996 21.83161,-2.22881 12.25567,-0.15379 21.9839,0.99449 31.69859,3.74158 3.05737,0.86455 5.1967,1.41626 5.4918,1.41626 0.10621,0 0.27528,-0.12542 0.37572,-0.2787 0.17011,-0.25963 0.16955,-0.33335 -0.008,-1.07723 -0.77193,-3.23163 -5.6011,-13.88974 -7.00267,-15.45506 -0.78776,-0.87981 -2.24058,-1.59588 -4.46093,-2.19875 -1.11375,-0.3024 -2.72907,-1.03331 -2.59031,-1.17208 0.0293,-0.0293 0.20999,0.0277 0.40148,0.12673 0.53495,0.27663 1.86671,0.58603 3.35299,0.77897 2.3904,0.31031 3.51493,0.72254 3.97977,1.45888 0.66073,1.04668 3.18436,6.44717 5.95095,12.73491 2.42841,5.51911 2.91384,6.85009 2.49836,6.85009 -0.0884,0 -2.14489,-0.67242 -4.56993,-1.49426 l 0,0 z"
       id="path3051"
       inkscape:connector-curvature="0"
       transform="translate(-220,-370)" />
    <path
       style="fill:#e0bc34;stroke:#f0e060;stroke-width:0.11048544"
       d="m 252.95723,272.76792 c -7.63716,-2.58823 -11.72066,-3.57752 -17.50598,-4.24106 -5.84946,-0.67091 -15.58423,-0.95476 -23.09146,-0.67332 -9.64923,0.36174 -14.31696,1.23917 -23.7833,4.47074 -3.79088,1.29411 -5.35973,1.73853 -5.81547,1.64738 -0.29818,-0.0596 -0.30431,-0.0755 -0.22428,-0.58184 0.11253,-0.71184 0.84603,-2.53125 2.58188,-6.40416 2.27772,-5.08192 3.30654,-7.59439 4.2118,-10.28562 0.98324,-2.92306 1.32674,-3.17193 4.74403,-3.43707 1.63095,-0.12654 2.60495,-0.30711 3.5655,-0.66099 0.69994,-0.25787 1.62254,-0.71536 2.048,-1.01553 0.1706,-0.12037 0.33762,-0.19143 0.37114,-0.15791 0.0835,0.0835 -0.93758,0.72458 -2.00716,1.26032 -1.14003,0.57102 -2.11761,0.91885 -3.81889,1.35881 -0.75566,0.19541 -1.58093,0.47546 -1.83394,0.62233 -0.55008,0.31932 -1.22397,1.02976 -1.73438,1.82845 -0.98908,1.54774 -3.08053,6.24236 -4.76564,10.6973 -1.14626,3.0304 -1.47975,4.31931 -1.22444,4.73241 0.17663,0.2858 2.19211,0.0191 4.42796,-0.5859 4.38475,-1.1865 5.39759,-1.44712 6.90534,-1.77687 6.6608,-1.45674 13.15709,-2.11996 21.83161,-2.22881 12.25567,-0.15379 21.9839,0.99449 31.69859,3.74158 3.05737,0.86455 5.1967,1.41626 5.4918,1.41626 0.10621,0 0.27528,-0.12542 0.37572,-0.2787 0.17011,-0.25963 0.16955,-0.33335 -0.008,-1.07723 -0.77193,-3.23163 -5.6011,-13.88974 -7.00267,-15.45506 -0.78776,-0.87981 -2.24058,-1.59588 -4.46093,-2.19875 -1.11375,-0.3024 -2.72907,-1.03331 -2.59031,-1.17208 0.0293,-0.0293 0.20999,0.0277 0.40148,0.12673 0.53495,0.27663 1.86671,0.58603 3.35299,0.77897 2.3904,0.31031 3.51493,0.72254 3.97977,1.45888 0.66073,1.04668 3.18436,6.44717 5.95095,12.73491 2.42841,5.51911 2.91384,6.85009 2.49836,6.85009 -0.0884,0 -2.14489,-0.67242 -4.56993,-1.49426 l 0,0 z"
       id="path3053"
       inkscape:connector-curvature="0"
       transform="translate(-220,-370)" />
    <path
       style="fill:#e0bc34;stroke:#f0e060;stroke-width:0.11048544"
       d="m 252.95723,272.76792 c -7.63716,-2.58823 -11.72066,-3.57752 -17.50598,-4.24106 -5.84946,-0.67091 -15.58423,-0.95476 -23.09146,-0.67332 -9.64923,0.36174 -14.31696,1.23917 -23.7833,4.47074 -3.79088,1.29411 -5.35973,1.73853 -5.81547,1.64738 -0.29818,-0.0596 -0.30431,-0.0755 -0.22428,-0.58184 0.11253,-0.71184 0.84603,-2.53125 2.58188,-6.40416 2.27772,-5.08192 3.30654,-7.59439 4.2118,-10.28562 0.98324,-2.92306 1.32674,-3.17193 4.74403,-3.43707 1.63095,-0.12654 2.60495,-0.30711 3.5655,-0.66099 0.69994,-0.25787 1.62254,-0.71536 2.048,-1.01553 0.1706,-0.12037 0.33762,-0.19143 0.37114,-0.15791 0.0835,0.0835 -0.93758,0.72458 -2.00716,1.26032 -1.14003,0.57102 -2.11761,0.91885 -3.81889,1.35881 -0.75566,0.19541 -1.58093,0.47546 -1.83394,0.62233 -0.55008,0.31932 -1.22397,1.02976 -1.73438,1.82845 -0.98908,1.54774 -3.08053,6.24236 -4.76564,10.6973 -1.14626,3.0304 -1.47975,4.31931 -1.22444,4.73241 0.17663,0.2858 2.19211,0.0191 4.42796,-0.5859 4.38475,-1.1865 5.39759,-1.44712 6.90534,-1.77687 6.6608,-1.45674 13.15709,-2.11996 21.83161,-2.22881 12.25567,-0.15379 21.9839,0.99449 31.69859,3.74158 3.05737,0.86455 5.1967,1.41626 5.4918,1.41626 0.10621,0 0.27528,-0.12542 0.37572,-0.2787 0.17011,-0.25963 0.16955,-0.33335 -0.008,-1.07723 -0.77193,-3.23163 -5.6011,-13.88974 -7.00267,-15.45506 -0.78776,-0.87981 -2.24058,-1.59588 -4.46093,-2.19875 -1.11375,-0.3024 -2.72907,-1.03331 -2.59031,-1.17208 0.0293,-0.0293 0.20999,0.0277 0.40148,0.12673 0.53495,0.27663 1.86671,0.58603 3.35299,0.77897 2.3904,0.31031 3.51493,0.72254 3.97977,1.45888 0.66073,1.04668 3.18436,6.44717 5.95095,12.73491 2.42841,5.51911 2.91384,6.85009 2.49836,6.85009 -0.0884,0 -2.14489,-0.67242 -4.56993,-1.49426 l 0,0 z"
       id="path3055"
       inkscape:connector-curvature="0"
       transform="translate(-220,-370)" />
  </g>
  <use
     xlink:href="#s3"
     transform="scale(-1)"
     id="use61"
     style="fill:#e0bc34;stroke:#f0e060" />
  <g
     id="flr"
     fill="#da251d"
     stroke="#1f1a17"
     stroke-width="1">
    <path
       d="M 0,-215.7 L 0,-345.3 C 2,-339.3 4.6,-332 6.6,-327.7 C 8.7,-323.1 11.2,-319.7 14.1,-314.9 C 11.3,-311 8.9,-307.5 6,-302.6 C 3.3,-296.9 1.4,-289.8 0.2,-279.8 L 0,-265.5 L 4.1,-265.8 C 9.9,-266.3 8.5,-279.9 10.3,-285.7 C 11.8,-291 13.9,-295.7 18.4,-297.9 C 22.5,-300 27.9,-299.6 32.2,-297.9 C 36.1,-296.5 39,-292.8 41.3,-289.3 C 43,-286.5 43.9,-283.1 44,-279.8 C 44.1,-276.6 43.6,-272.9 41.2,-270 C 38.3,-266.4 35,-265 30.4,-264.8 C 28.5,-269.5 31,-273.7 28.7,-276.3 C 26.5,-278.8 21.1,-280 18,-278.7 C 15.1,-277.3 14.2,-273.1 13.3,-270 C 12.1,-265.9 13.6,-260.9 10.9,-257.5 C 9.2,-255.4 6.9,-255.1 4.3,-255 L 0,-255 L 0,-250.8 C 0,-247.5 5.9,-249.3 8.5,-247.1 C 10.7,-245.3 10.4,-239.1 12.9,-237.7 C 16.9,-235.5 22.7,-239.1 26.7,-236.9 C 29.6,-235.3 30.9,-232 32.7,-229.2 C 34.6,-226.4 35.7,-223.6 36.9,-220.4 C 38.4,-216.1 43.2,-203.1 37.3,-210.6 C 35.1,-213.4 31.2,-214.4 28.3,-216.5 C 24.9,-218.8 21.9,-221.5 18.4,-223.6 C 15.6,-225.3 12.2,-226.1 9.4,-227.9 L 0,-233.7 L 0,-228.6 C 0,-220.4 16,-220.4 20.8,-213.7 C 22.7,-211.1 14.2,-214.7 11,-214.9 z"
       stroke="#1f1a17"
       stroke-width=".7"
       fill="#28166f"
       id="path64" />
    <circle
       r="8"
       cx="37.2"
       cy="-248.2"
       id="circle66"
       d="m 45.200001,-248.2 c 0,4.41828 -3.581722,8 -8,8 -4.418278,0 -8,-3.58172 -8,-8 0,-4.41827 3.581722,-8 8,-8 4.418278,0 8,3.58173 8,8 z" />
    <circle
       r="8"
       cx="27.9"
       cy="-312.7"
       id="circle68"
       d="m 35.9,-312.70001 c 0,4.41828 -3.581722,8 -8,8 -4.418278,0 -8,-3.58172 -8,-8 0,-4.41828 3.581722,-8 8,-8 4.418278,0 8,3.58172 8,8 z" />
  </g>
  <circle
     r="8"
     cy="-360"
     fill="#da251d"
     stroke="#1f1a17"
     stroke-width="1"
     id="circle70" />
  <use
     xlink:href="#flr"
     transform="scale(-1,1)"
     id="use72" />
  <path
     style="fill:#e0bc34;stroke:#f0e060;stroke-width:0.15625"
     d="M 220.28125 159.125 C 220.07275 159.15642 219.90193 159.55206 219.53125 160.75 C 218.94004 162.66061 217.95579 167.00434 215.40625 178.84375 C 214.12934 184.77343 212.43013 192.29687 211.65625 195.5625 C 210.88237 198.82812 209.78905 203.49936 209.21875 205.9375 C 207.95554 211.33803 207.76235 212.01718 206.15625 216.625 C 203.56991 224.04514 200.72502 231.29295 198.28125 236.6875 C 197.62974 238.12569 197.13235 239.2933 197.15625 239.3125 C 197.18013 239.33173 197.91003 239.83696 198.78125 240.40625 C 201.20405 241.98943 202.33005 243.3856 202.75 245.34375 C 202.95574 246.30311 202.76351 247.66369 202.25 248.75 C 202.05655 249.15923 201.87515 249.5391 201.84375 249.625 C 201.66286 250.12019 202.53891 248.8738 202.875 248.15625 C 203.20264 247.45678 203.28172 247.04867 203.28125 246.03125 C 203.28029 243.95129 202.43929 242.67657 199.71875 240.53125 C 198.79492 239.80275 198.0625 239.1426 198.0625 239.0625 C 198.0625 238.98237 199.09 236.34273 200.34375 233.1875 C 201.5975 230.03228 203.13473 226.03125 203.78125 224.3125 C 207.48629 214.46271 210.52376 203.63235 214.46875 186.1875 C 216.8835 175.50945 218.57283 168.30783 219.03125 166.5625 C 219.4556 164.9469 219.54803 164.7071 219.875 164.625 C 220.08401 164.57255 220.36367 164.60562 220.5 164.71875 C 221.10192 165.21831 221.23491 165.84704 223.21875 175.65625 C 226.07584 189.78328 229.25546 202.40754 233.125 215.1875 C 234.34883 219.22943 234.73505 220.36025 234.78125 219.9375 C 234.86944 219.13003 234.67314 218.36285 233.6875 215.75 C 232.53081 212.68376 231.75614 210.04596 230.65625 205.34375 C 230.26427 203.66797 229.2429 199.37891 228.375 195.8125 C 227.5071 192.2461 226.52253 188.09766 226.1875 186.59375 C 225.12932 181.84365 221.69436 164.88699 221.34375 162.6875 C 220.8233 159.42259 220.7933 159.37038 220.5 159.1875 C 220.40938 159.131 220.35075 159.11453 220.28125 159.125 z "
     transform="translate(-220,-370)"
     id="path3057" />
  <path
     style="fill:#e0bc34;stroke:#f0e060;stroke-width:0.15625"
     d="M 234.78125 220.375 C 234.76924 220.74318 236.84825 226.54877 239.21875 232.8125 C 240.30349 235.67879 241.1875 238.12921 241.1875 238.25 C 241.1875 238.3708 240.5165 239.46365 239.6875 240.6875 C 237.84792 243.40324 236.8075 245.49567 236.8125 246.46875 C 236.81439 246.84553 236.95922 247.44727 237.125 247.8125 C 237.29079 248.17774 237.43905 248.46875 237.46875 248.46875 C 237.49855 248.46875 237.50235 247.82617 237.46875 247.03125 C 237.41779 245.82581 237.46503 245.41257 237.75 244.65625 C 238.26007 243.30253 239.53535 241.52654 240.625 240.625 C 241.84938 239.61204 242.02626 239.2711 241.90625 238.25 C 241.76448 237.04376 241.3194 235.8142 238.375 228.84375 C 236.88666 225.32031 235.45661 221.92578 235.21875 221.28125 C 235.0255 220.75757 234.83983 220.41507 234.78125 220.375 z M 241.34375 235.4375 C 241.34413 235.52108 241.50609 236.05469 241.71875 236.65625 C 242.20783 238.03976 242.22674 239.21491 241.78125 239.78125 C 241.60311 240.00768 241.50355 240.1905 241.53125 240.1875 C 241.55897 240.18488 242.02962 239.96468 242.59375 239.6875 L 243.625 239.15625 L 242.46875 237.21875 C 241.84017 236.14738 241.34338 235.3539 241.34375 235.4375 z M 198.375 252.40625 C 198.19549 252.44447 197.77413 252.56624 196.9375 252.8125 C 196.37085 252.97929 195.01538 253.2095 193.90625 253.3125 C 191.66677 253.52046 190.76962 253.80654 190.28125 254.5 C 190.10719 254.74716 189.69198 255.76172 189.34375 256.75 C 188.31893 259.65848 188.03894 260.3396 185.5625 266.03125 C 182.92236 272.09912 182.66382 272.68141 182.5 273.4375 L 182.40625 273.96875 L 183.25 273.90625 C 183.71946 273.85779 186.09063 273.13142 188.53125 272.3125 C 195.44791 269.9917 198.21428 269.27838 202.71875 268.625 C 207.29664 267.96097 210.47514 267.78025 218.59375 267.78125 C 235.09336 267.78368 240.85993 268.64697 253.4375 272.90625 C 255.58593 273.6338 257.40435 274.243 257.46875 274.25 C 257.53324 274.25668 257.59375 274.13548 257.59375 274 C 257.59375 273.42176 254.97194 267.23446 252.03125 260.8125 C 250.00483 256.38718 249.11467 254.61572 248.71875 254.3125 C 248.16666 253.88967 246.6893 253.43326 245.09375 253.21875 C 244.18363 253.09639 243.20647 252.93235 242.90625 252.84375 C 242.60604 252.75518 242.274 252.6845 242.1875 252.6875 C 241.82671 252.70185 242.9517 253.15843 244.09375 253.46875 C 245.90648 253.9613 247.45703 254.73828 248.25 255.53125 C 249.51658 256.79783 253.57618 265.41856 255.09375 270.0625 C 255.61405 271.65467 255.63884 271.87768 255.34375 272.28125 C 255.09219 272.62527 254.96816 272.62085 250.40625 271.34375 C 244.60201 269.71888 240.7989 268.92765 235.25 268.25 C 228.71844 267.45237 222.49026 267.17182 215.625 267.375 C 205.76681 267.66677 199.58482 268.54863 190.78125 270.90625 C 188.54614 271.50482 186.53425 271.9428 185.8125 272 L 184.625 272.09375 L 184.625 271.4375 C 184.625 270.3486 186.362 265.5998 188.65625 260.4375 C 190.3233 256.68647 191.27652 255.23377 192.5 254.59375 C 192.75233 254.46175 193.56007 254.20136 194.3125 254 C 195.74291 253.61719 197.97302 252.82152 198.375 252.53125 C 198.50879 252.43464 198.55451 252.36803 198.375 252.40625 z M 255 266.75 C 254.98296 266.87316 255.347 267.83684 256 269.34375 C 257.34068 272.43762 257.93525 274.0874 257.84375 274.4375 C 257.80487 274.58618 257.87045 274.74095 257.96875 274.78125 C 258.2468 274.89524 258.33391 274.87265 258.71875 274.71875 C 258.91616 274.6398 259.18985 274.5486 259.34375 274.5 C 259.59285 274.42132 259.58005 274.30201 259.0625 273.5 C 258.07329 271.96709 255.88516 268.32174 255.46875 267.5 C 255.16756 266.90563 255.01022 266.6761 255 266.75 z "
     transform="translate(-220,-370)"
     id="path3060" />
  <path
     style="fill:#e0bc34;stroke:#f0e060;stroke-width:0.15625"
     d=""
     id="path3071"
     inkscape:connector-curvature="0"
     transform="translate(-220,-370)" />
  <path
     style="fill:#e0bc34;stroke:#f0e060;stroke-width:0.15625"
     d=""
     id="path3073"
     inkscape:connector-curvature="0"
     transform="translate(-220,-370)" />
  <path
     style="fill:#e0bc34;stroke:#f0e060;stroke-width:0.15625"
     d=""
     id="path3075"
     inkscape:connector-curvature="0"
     transform="translate(-220,-370)" />
  <path
     style="fill:#e0bc34;stroke:#f0e060;stroke-width:0.15625"
     d="m 143.38444,262.16818 c -0.0957,-0.24192 -0.17624,-0.48802 -0.1791,-0.54687 -0.0105,-0.21554 -0.58585,-0.79411 -1.10366,-1.10979 -0.29247,-0.1783 -0.44282,-0.32445 -0.3341,-0.32477 0.28604,-8.5e-4 2.12463,0.50299 2.2641,0.62043 0.0649,0.0547 -0.015,0.48222 -0.17766,0.95012 l -0.29568,0.85074 -0.1739,-0.43986 z"
     id="path3077"
     inkscape:connector-curvature="0"
     transform="translate(-220,-370)" />
  <path
     style="fill:#e0bc34;stroke:#f0e060;stroke-width:0.15625"
     d=""
     id="path3079"
     inkscape:connector-curvature="0"
     transform="translate(-220,-370)" />
  <path
     style="fill:#e0bc34;stroke:#f0e060;stroke-width:0.15625"
     d="m 143.01443,262.58379 c -0.3498,-0.96561 -0.86313,-1.53842 -1.88223,-2.10033 -0.92297,-0.50891 -0.7859,-0.60218 0.22945,-0.15612 1.25827,0.55279 2.1231,1.72648 1.9773,2.68343 -0.0364,0.2391 -0.12584,0.12146 -0.32452,-0.42698 z"
     id="path3081"
     inkscape:connector-curvature="0"
     transform="translate(-220,-370)" />
  <path
     style="fill:#e0bc34;stroke:#f0e060;stroke-width:0.15625"
     d="m 249.85082,255.83756 c -0.74006,-1.43175 -0.82585,-1.53302 -1.64028,-1.93624 -0.47265,-0.23401 -1.33001,-0.51296 -1.90524,-0.6199 l -1.04587,-0.19443 1.51462,-0.26431 c 0.83304,-0.14537 1.72555,-0.31052 1.98337,-0.36701 l 0.46875,-0.10271 0.74697,2.45349 c 0.41083,1.34941 0.72708,2.47337 0.70277,2.49768 -0.0243,0.0243 -0.3956,-0.63565 -0.82509,-1.46657 l 0,0 z"
     id="path3083"
     inkscape:connector-curvature="0"
     transform="translate(-220,-370)" />
  <path
     style="fill:#e0bc34;stroke:#f0e060;stroke-width:0.15625"
     d="m 190.28919,254.01429 c 0.39356,-1.383 0.48206,-1.64011 0.56327,-1.63635 0.0508,0.002 0.90105,0.16726 1.88933,0.36646 l 1.79687,0.36218 -1.32812,0.11947 c -1.37898,0.12405 -2.19719,0.3756 -2.71036,0.83326 -0.28553,0.25465 -0.29566,0.25249 -0.21099,-0.045 z"
     id="path3085"
     inkscape:connector-curvature="0"
     transform="translate(-220,-370)" />
  <path
     style="fill:#e0bc34;stroke:#f0e060;stroke-width:0.15625"
     d="m 179.71601,275.4596 c 0.0647,-0.10742 0.67673,-1.07422 1.36003,-2.14843 0.6833,-1.07422 1.79465,-2.89771 2.46968,-4.05219 1.3205,-2.25842 1.53742,-2.44862 0.70225,-0.61576 -0.89495,1.96407 -1.97493,4.75999 -1.97493,5.11283 0,0.29068 0.0902,0.33713 0.66406,0.34199 0.61531,0.005 0.52189,0.0626 -1.27251,0.78125 -1.06512,0.42659 -1.96575,0.77563 -2.00141,0.77563 -0.0357,0 -0.0119,-0.0879 0.0528,-0.19532 z"
     id="path3087"
     inkscape:connector-curvature="0"
     transform="translate(-220,-370)" />
  <path
     style="fill:#e0bc34;stroke:#f0e060;stroke-width:0.15625"
     d="m 296.49179,263.02457 c 0,-0.17967 -0.14813,-0.7226 -0.32917,-1.20649 -0.18105,-0.48389 -0.26894,-0.93203 -0.19532,-0.99585 0.0736,-0.0638 0.73153,-0.27232 1.46199,-0.46333 0.73047,-0.191 1.46875,-0.38627 1.64063,-0.43392 0.1894,-0.0525 0.041,0.14902 -0.37673,0.51162 -0.37907,0.32903 -1.02946,1.11944 -1.44531,1.75645 -0.50189,0.76883 -0.75609,1.04838 -0.75609,0.83152 z"
     id="path3089"
     inkscape:connector-curvature="0"
     transform="translate(-220,-370)" />
  <path
     style="fill:#e0bc34;stroke:#f0e060;stroke-width:0.15625"
     d="m 314.14358,327.57908 c -0.71829,-0.81808 -1.58692,-2.19065 -3.60475,-5.69607 -3.72621,-6.47324 -7.28339,-11.57038 -11.70687,-16.77497 -8.54862,-10.05817 -18.54466,-18.51008 -29.27323,-24.75131 -0.93428,-0.54351 -3.72554,-2.02065 -6.2028,-3.28255 l -4.50411,-2.29435 2.1403,-0.51953 c 5.24617,-1.27344 8.77471,-2.44093 16.37497,-5.41798 2.50095,-0.97964 4.60127,-1.78115 4.66739,-1.78115 0.0661,0 1.05635,0.69586 2.20053,1.54637 3.18059,2.36424 4.60126,2.91258 7.24856,2.79775 1.7488,-0.0759 2.62249,-0.40087 3.4963,-1.3006 0.68725,-0.70763 0.82417,-1.16491 1.04075,-3.4758 0.42614,-4.54671 1.91862,-6.04605 8.59617,-8.63568 5.41009,-2.09809 14.91314,-6.96906 24.29688,-12.45383 8.12059,-4.74647 14.04436,-8.45656 26.64063,-16.68518 12.89,-8.42051 13.4375,-8.74182 13.4375,-7.88606 0,0.84208 -2.52133,5.08102 -9.061,15.23365 -11.26081,17.48206 -18.56322,29.87619 -24.02761,40.78125 -3.26021,6.50626 -4.36078,9.1428 -5.90271,14.14063 -0.4905,1.58984 -0.94656,2.95071 -1.01348,3.02416 -0.0669,0.0734 -1.03613,0.0124 -2.15382,-0.13561 -2.74443,-0.36348 -3.91271,-0.28464 -5.1955,0.35061 -2.24321,1.11087 -3.59483,2.93288 -3.60404,4.85833 -0.009,1.86723 0.74227,3.36161 3.2512,6.4677 0.88726,1.09845 1.6132,2.04323 1.6132,2.09952 0,0.19622 -4.57178,12.64932 -5.47091,14.90224 -1.21712,3.04971 -2.07126,4.85906 -2.45297,5.19619 -0.30697,0.27112 -0.32976,0.26268 -0.83058,-0.30773 z m 1.35894,-2.15658 c 0.90562,-2.04345 2.32988,-5.75742 4.58462,-11.95508 1.01609,-2.79297 1.89081,-5.18774 1.94381,-5.32172 0.0639,-0.16148 -0.42563,-0.89337 -1.45216,-2.17117 -0.85168,-1.06017 -1.78489,-2.31758 -2.07378,-2.79425 -1.19778,-1.97633 -1.53006,-4.06067 -0.91107,-5.71507 0.60901,-1.62772 2.79103,-3.58364 4.63236,-4.15237 1.22056,-0.377 1.95526,-0.38961 4.35667,-0.0748 1.00427,0.13164 1.85223,0.21307 1.88435,0.18094 0.0321,-0.0321 0.44802,-1.30851 0.9242,-2.83641 1.07156,-3.43825 1.74898,-5.22113 3.23776,-8.52139 4.95805,-10.9908 13.85845,-26.37309 27.48414,-47.50001 5.33133,-8.26633 7.81036,-12.3701 7.59981,-12.58065 -0.10205,-0.10205 -2.93437,1.7029 -12.78393,8.14682 -9.15183,5.98743 -13.2104,8.5705 -18.67188,11.88365 -13.43084,8.14769 -24.27529,13.88865 -31.69341,16.77824 -3.25851,1.26928 -4.51318,1.92592 -5.59661,2.92898 -1.57252,1.45588 -2.01959,2.55938 -2.29771,5.67149 -0.21847,2.44474 -0.84661,3.42589 -2.75602,4.30488 -0.76202,0.3508 -1.21535,0.44303 -2.42188,0.49275 -2.64629,0.10905 -4.59606,-0.63964 -7.61144,-2.9227 l -1.90833,-1.44487 -4.57605,1.79171 c -6.8162,2.66881 -10.32964,3.86613 -14.09587,4.80361 -1.03754,0.25826 -1.9911,0.50648 -2.11902,0.5516 -0.13231,0.0467 1.51815,0.97559 3.82812,2.15455 4.43795,2.26503 6.88424,3.68448 10.46697,6.07341 11.76634,7.8457 22.85928,18.82936 30.88959,30.58529 1.67158,2.44709 2.94794,4.50413 4.89601,7.89062 1.93781,3.36866 3.23774,5.40184 3.4163,5.34335 0.0767,-0.0251 0.44767,-0.74124 0.82445,-1.59139 l 0,0 z"
     id="path3091"
     inkscape:connector-curvature="0"
     transform="translate(-220,-370)" />
  <path
     style="fill:#e0bc34;stroke:#f0e060;stroke-width:0.15625"
     d="m 314.04414,327.1592 c -0.32957,-0.37578 -1.68118,-2.50273 -3.00357,-4.72657 -1.32239,-2.22383 -3.18293,-5.23865 -4.13453,-6.69959 -8.7683,-13.46152 -21.47832,-25.82209 -35.17987,-34.21261 -2.16604,-1.32643 -7.65892,-4.29379 -10.89844,-5.88754 -0.75195,-0.36994 -1.36707,-0.70968 -1.36692,-0.75498 1.5e-4,-0.0453 1.07242,-0.35541 2.38281,-0.68914 4.7605,-1.21237 7.90352,-2.26287 15.64519,-5.22915 l 4.51265,-1.72905 2.24052,1.56036 c 1.23229,0.8582 2.67133,1.7641 3.19789,2.01312 1.22593,0.57978 2.86066,0.85679 4.27904,0.72511 1.53141,-0.14218 2.13557,-0.33087 2.83779,-0.88632 0.92036,-0.72801 1.25982,-1.41063 1.46094,-2.93782 0.47056,-3.57326 0.86686,-4.73231 2.02669,-5.92743 1.18088,-1.21682 2.74744,-2.07713 6.72871,-3.69523 7.71177,-3.13428 20.05747,-9.74123 32.65626,-17.47638 4.31558,-2.64959 8.31936,-5.20523 17.26562,-11.02071 10.81634,-7.03112 13.60522,-8.77411 14.03913,-8.77411 0.26587,0 -0.0904,0.88559 -1.03722,2.57813 -1.28596,2.29881 -2.90469,4.90185 -9.71658,15.625 -11.38614,17.92385 -17.44392,28.30953 -22.64775,38.82813 -2.67219,5.40135 -3.43731,7.22407 -5.06639,12.06951 l -1.35244,4.02263 -0.70312,0.001 c -0.38672,6.3e-4 -1.45568,-0.0774 -2.37546,-0.17344 -1.97903,-0.2067 -3.20131,-0.046 -4.44839,0.58501 -1.21751,0.616 -2.40967,1.75412 -2.94583,2.81228 -0.4084,0.80604 -0.46466,1.07988 -0.46436,2.26032 3.1e-4,1.25073 0.0421,1.42549 0.60751,2.53937 0.33394,0.65792 1.40406,2.24872 2.37805,3.53513 l 1.7709,2.33892 -1.54294,4.26233 c -3.80787,10.51913 -5.94099,15.74669 -6.42548,15.74669 -0.0667,0 -0.39084,-0.30745 -0.72041,-0.68322 l 0,0 z m 1.17791,-0.84022 c 0.97546,-1.93246 6.89474,-17.59343 6.89474,-18.24179 0,-0.15431 -0.76553,-1.30737 -1.70118,-2.56235 -0.93565,-1.25499 -1.91034,-2.70367 -2.16597,-3.2193 -1.59784,-3.22295 -0.7856,-5.85412 2.48042,-8.03509 1.59189,-1.06302 2.76171,-1.24558 5.76174,-0.89915 1.07421,0.12405 1.99707,0.18109 2.0508,0.12676 0.0537,-0.0543 0.60925,-1.64564 1.23452,-3.53627 1.37401,-4.15464 2.86516,-7.71435 5.23617,-12.5 4.99851,-10.089 12.33829,-22.64512 22.83429,-39.0625 7.17866,-11.22854 10.05047,-15.93537 10.05047,-16.4725 0,-0.31892 -1.53846,0.60682 -8.2061,4.93789 -16.95477,11.01324 -20.53914,13.27682 -28.0439,17.71014 -11.79482,6.9676 -19.55192,10.98944 -27.26563,14.13647 -3.44736,1.40645 -4.53753,2.02288 -5.79028,3.27408 -1.30873,1.30712 -1.60758,2.04952 -2.0158,5.00767 -0.41,2.97104 -1.09376,4.00105 -3.13142,4.71711 -0.97996,0.34437 -3.56577,0.3789 -4.6875,0.0626 -1.53787,-0.43364 -2.96042,-1.28641 -6.49383,-3.89282 -0.2441,-0.18005 -0.93506,0.046 -5.33081,1.74422 -6.20242,2.39616 -9.40979,3.49999 -12.86286,4.42681 -1.46094,0.39213 -2.7468,0.76176 -2.85746,0.82141 -0.3426,0.18466 0.16564,0.50532 4.09633,2.58445 3.92208,2.07458 4.6714,2.48536 5.94863,3.26108 12.65699,7.68712 24.43362,18.58673 33.28517,30.8064 2.28548,3.15514 3.49699,5.03484 6.62283,10.27561 2.32428,3.89687 3.32294,5.42752 3.54114,5.42752 0.0341,0 0.26606,-0.4043 0.51549,-0.89844 z"
     id="path3093"
     inkscape:connector-curvature="0"
     transform="translate(-220,-370)" />
  <path
     style="fill:#e0bc34;stroke:#f0e060;stroke-width:0.15625"
     d=""
     id="path3095"
     inkscape:connector-curvature="0"
     transform="translate(-220,-370)" />
  <path
     style="fill:#e0bc34;stroke:#f0e060;stroke-width:0.15625"
     d=""
     id="path3097"
     inkscape:connector-curvature="0"
     transform="translate(-220,-370)" />
  <path
     style="fill:#e0bc34;stroke:#f0e060;stroke-width:0.15625"
     d="m 282.77189,267.28757 -0.67302,-0.52012 -0.71854,0.30801 c -1.1284,0.48368 -1.06963,0.27829 0.10257,-0.35852 l 1.06506,-0.5786 0.49354,0.79395 c 0.27145,0.43667 0.47327,0.81228 0.44848,0.83468 -0.0248,0.0224 -0.34792,-0.19333 -0.71809,-0.4794 l 0,0 z"
     id="path3101"
     inkscape:connector-curvature="0"
     transform="translate(-220,-370)" />
  <path
     style="fill:#e0bc34;stroke:#f0e060;stroke-width:0.15625"
     d="M 257.40625 465.5 C 257.20412 465.48531 256.98965 465.5435 256.8125 465.65625 C 256.6285 465.77337 256.66382 465.82595 257.0625 465.90625 C 257.47573 465.98953 257.58375 466.07249 257.59375 466.40625 L 257.625 466.8125 L 257.78125 466.40625 C 257.86855 466.16708 257.89215 465.84483 257.84375 465.71875 C 257.79415 465.58954 257.60838 465.51469 257.40625 465.5 z M 258.09375 465.6875 L 258 466.28125 C 257.95649 466.60559 257.35325 468.04946 256.65625 469.5 C 255.95925 470.95055 255.40625 472.25221 255.40625 472.375 C 255.40625 472.4978 255.88917 471.71866 256.5 470.65625 C 257.11082 469.59383 258.03029 468.09109 258.53125 467.3125 C 259.03221 466.53392 259.42235 465.8864 259.40625 465.875 C 259.39017 465.86363 259.10519 465.82655 258.75 465.78125 L 258.09375 465.6875 z "
     transform="translate(-220,-370)"
     id="path3103" />
  <path
     style="fill:#e0bc34;stroke:#f0e060;stroke-width:0.15625"
     d=""
     id="path3108"
     inkscape:connector-curvature="0"
     transform="translate(-220,-370)" />
  <path
     style="fill:#e0bc34;stroke:#f0e060;stroke-width:0.15625"
     d="m 321.17929,434.16787 c 0,-0.0654 0.38477,-0.55717 0.85504,-1.09281 l 0.85503,-0.9739 -0.85795,-2.07474 c -1.29379,-3.12869 -1.18239,-3.17691 0.38928,-0.16848 0.78115,1.49526 1.40148,2.73156 1.3785,2.74735 -0.023,0.0158 -0.46364,0.28805 -0.97927,0.60504 -0.51563,0.317 -1.0957,0.68888 -1.28906,0.82641 -0.19336,0.13752 -0.35157,0.19654 -0.35157,0.13113 z"
     id="path3110"
     inkscape:connector-curvature="0"
     transform="translate(-220,-370)" />
  <path
     style="fill:#e0bc34;stroke:#f0e060;stroke-width:0.15625"
     d=""
     id="path3112"
     inkscape:connector-curvature="0"
     transform="translate(-220,-370)" />
  <path
     style="fill:#e0bc34;stroke:#f0e060;stroke-width:0.15625"
     d="m 321.92042,431.50307 c -0.0482,-0.76726 -0.0765,-1.40616 -0.0628,-1.41978 0.0136,-0.0136 0.208,0.41988 0.43188,0.96331 l 0.40706,0.98807 -0.34424,0.43171 -0.34423,0.43172 -0.0876,-1.39503 z"
     id="path3114"
     inkscape:connector-curvature="0"
     transform="translate(-220,-370)" />
  <path
     style="fill:#e0bc34;stroke:#f0e060;stroke-width:0.15625"
     d="m 330.26159,450.62352 c -0.23946,-0.41607 -0.38722,-0.96541 -0.42798,-1.5911 -0.0342,-0.52559 -0.0337,-0.88531 10e-4,-0.79937 0.18677,0.45901 0.88806,2.93026 0.84404,2.97428 -0.0284,0.0284 -0.21623,-0.23431 -0.41738,-0.58381 z"
     id="path3116"
     inkscape:connector-curvature="0"
     transform="translate(-220,-370)" />
  <path
     style="fill:#e0bc34;stroke:#f0e060;stroke-width:0.15625"
     d=""
     id="path3118"
     inkscape:connector-curvature="0"
     transform="translate(-220,-370)" />
  <path
     style="fill:#e0bc34;stroke:#f0e060;stroke-width:0.15625"
     d="m 247.81992,487.37924 -1.25,-0.27157 1.01562,-0.10959 c 0.5586,-0.0603 1.21954,-0.14896 1.46877,-0.19707 0.37946,-0.0733 0.43663,-0.0444 0.35156,0.17725 -0.0559,0.1456 -0.10158,0.36444 -0.10158,0.48632 0,0.12188 -0.0527,0.21364 -0.11719,0.20391 -0.0644,-0.01 -0.67968,-0.1399 -1.36718,-0.28925 z"
     id="path3120"
     inkscape:connector-curvature="0"
     transform="translate(-220,-370)" />
  <path
     style="fill:#e0bc34;stroke:#f0e060;stroke-width:0.15625"
     d=""
     id="path3122"
     inkscape:connector-curvature="0"
     transform="translate(-220,-370)" />
  <path
     style="fill:#e0bc34;stroke:#f0e060;stroke-width:0.15625"
     d=""
     id="path3124"
     inkscape:connector-curvature="0"
     transform="translate(-220,-370)" />
  <path
     style="fill:#e0bc34;stroke:#f0e060;stroke-width:0.15625"
     d="m 168.67929,468.25099 c 0,-0.14331 5.70101,-1.94049 6.508,-2.05158 0.41669,-0.0574 1.0201,-0.17056 1.3409,-0.25157 1.01135,-0.25537 1.20326,-1.17454 0.41381,-1.982 -0.58663,-0.60003 -0.43909,-0.62423 0.66709,-0.10945 0.4597,0.21394 1.24183,0.46952 1.73807,0.56796 0.49623,0.0984 0.93651,0.23443 0.9784,0.3022 0.0419,0.0678 -0.11803,0.26042 -0.35537,0.4281 -0.42197,0.29812 -1.57998,0.62207 -4.57215,1.27904 -0.81641,0.17926 -2.4336,0.63226 -3.59375,1.00668 -2.22218,0.71716 -3.125,0.95135 -3.125,0.81062 z"
     id="path3126"
     inkscape:connector-curvature="0"
     transform="translate(-220,-370)" />
  <path
     style="fill:#e0bc34;stroke:#f0e060;stroke-width:0.15625"
     d="m 136.64804,480.63797 c 4.31387,-2.27895 5.77023,-3.91076 6.62595,-7.42418 0.43115,-1.77022 0.50421,-1.39359 0.24563,1.26624 -0.38856,3.9968 -1.4502,5.2562 -5.20501,6.17462 -1.08568,0.26556 -2.21894,0.58519 -2.51837,0.7103 -1.25081,0.52263 -0.82388,0.15825 0.8518,-0.72698 z"
     id="path3128"
     inkscape:connector-curvature="0"
     transform="translate(-220,-370)" />
  <path
     style="fill:#e0bc34;stroke:#f0e060;stroke-width:0.15625"
     d="m 70.570092,519.67074 c -0.457941,-0.45795 -0.0047,-1.40502 1.847226,-3.85956 1.455333,-1.92894 3.846,-5.33733 5.562873,-7.93102 0.583561,-0.88159 1.091129,-1.57278 1.127929,-1.53598 0.0368,0.0368 -0.700214,1.35575 -1.637808,2.93101 -3.021852,5.07704 -3.852734,6.68261 -3.592773,6.94258 0.191352,0.19135 2.060391,-0.73169 4.797662,-2.36936 1.655951,-0.99073 3.03633,-1.77582 3.06751,-1.74464 0.03118,0.0312 -0.90751,0.7199 -2.085977,1.53049 -2.767161,1.90334 -4.910357,3.49481 -5.950885,4.41895 -1.522188,1.35192 -2.761887,1.99139 -3.135757,1.61753 z"
     id="path3130"
     inkscape:connector-curvature="0"
     transform="translate(-220,-370)" />
  <path
     style="fill:#e0bc34;stroke:#f0e060;stroke-width:0.15625"
     d=""
     id="path3132"
     inkscape:connector-curvature="0"
     transform="translate(-220,-370)" />
  <path
     style="fill:#e0bc34;stroke:#f0e060;stroke-width:0.15625"
     d="m 184.38307,472.21871 c -0.51852,-1.02324 -2.92101,-4.99731 -3.60648,-5.96564 l -0.51674,-0.72998 0.61663,-0.10418 c 0.38377,-0.0648 0.5772,-0.16798 0.51222,-0.27314 -0.0697,-0.11281 -0.005,-0.12828 0.19464,-0.0466 0.16449,0.0673 0.42806,0.15934 0.58572,0.20448 0.21899,0.0627 0.23827,0.11198 0.0817,0.20876 -0.49488,0.30585 -0.20896,1.29073 1.25741,4.33128 0.80024,1.65931 1.41693,3.05497 1.37044,3.10147 -0.0465,0.0465 -0.26948,-0.28043 -0.49552,-0.7265 z"
     id="path3134"
     inkscape:connector-curvature="0"
     transform="translate(-220,-370)" />
  <path
     style="fill:#e0bc34;stroke:#f0e060;stroke-width:0.15625"
     d="m 157.01801,473.15175 c -0.51025,-0.77105 -0.39198,-0.95585 0.26042,-0.40689 0.56895,0.47874 0.60902,0.48397 1.34683,0.17569 0.96498,-0.40319 0.9531,-0.24779 -0.0241,0.31527 -0.51562,0.29711 -0.98923,0.54107 -1.05247,0.54215 -0.0632,0.001 -0.30204,-0.28072 -0.53068,-0.62622 z"
     id="path3136"
     inkscape:connector-curvature="0"
     transform="translate(-220,-370)" />
  <path
     style="fill:#e0bc34;stroke:#f0e060;stroke-width:0.15625"
     d="m 156.885,471.90754 c -0.51167,-0.51707 -0.88354,-0.94012 -0.82638,-0.94012 0.0572,0 0.52382,0.2461 1.03702,0.54688 0.51321,0.30078 1.03926,0.54687 1.16901,0.54687 0.12975,0 1.26436,-0.39456 2.52137,-0.87681 1.25701,-0.48225 2.31618,-0.84611 2.35371,-0.80858 0.0547,0.0547 -4.15954,2.02731 -5.08775,2.38154 -0.15337,0.0585 -0.56415,-0.24059 -1.16698,-0.84978 z"
     id="path3138"
     inkscape:connector-curvature="0"
     transform="translate(-220,-370)" />
  <path
     style="fill:#e0bc34;stroke:#f0e060;stroke-width:0.15625"
     d=""
     id="path3140"
     inkscape:connector-curvature="0"
     transform="translate(-220,-370)" />
  <path
     style="fill:#e0bc34;stroke:#f0e060;stroke-width:0.15625"
     d=""
     id="path3142"
     inkscape:connector-curvature="0"
     transform="translate(-220,-370)" />
  <path
     style="fill:#e0bc34;stroke:#f0e060;stroke-width:0.15625"
     d=""
     id="path3144"
     inkscape:connector-curvature="0"
     transform="translate(-220,-370)" />
  <path
     style="fill:#e0bc34;stroke:#f0e060;stroke-width:0.15625"
     d=""
     id="path3146"
     inkscape:connector-curvature="0"
     transform="translate(-220,-370)" />
  <path
     style="fill:#e0bc34;stroke:#f0e060;stroke-width:0.15625"
     d="m 141.25741,479.73763 c 0.68422,-0.42495 1.11148,-0.93836 1.71869,-2.06524 0.3651,-0.67756 0.54099,-0.88994 0.54339,-0.65614 0.002,0.19014 0.15104,0.73991 0.33131,1.22172 0.18027,0.48181 0.29988,0.90389 0.26581,0.93797 -0.0781,0.078 -2.96048,0.85326 -3.1717,0.85301 -0.0859,-1.1e-4 0.0547,-0.1312 0.3125,-0.29132 z"
     id="path3148"
     inkscape:connector-curvature="0"
     transform="translate(-220,-370)" />
  <path
     style="fill:#e0bc34;stroke:#f0e060;stroke-width:0.15625"
     d="m 109.38014,452.37367 c 0.25807,-1.2738 1.0807,-4.56913 1.30291,-5.21927 0.14792,-0.4328 0.44255,-0.90029 0.67714,-1.07444 0.40839,-0.30318 0.42524,-0.30343 1.01563,-0.0151 0.69506,0.33945 0.72384,0.55382 0.0962,0.71646 -0.80806,0.20939 -1.27787,0.90922 -1.98589,2.95816 -0.70671,2.04517 -1.24769,3.33365 -1.10598,2.63419 z"
     id="path3150"
     inkscape:connector-curvature="0"
     transform="translate(-220,-370)" />
  <path
     style="fill:#e0bc34;stroke:#f0e060;stroke-width:0.15625"
     d=""
     id="path3152"
     inkscape:connector-curvature="0"
     transform="translate(-220,-370)" />
  <path
     style="fill:#e0bc34;stroke:#f0e060;stroke-width:0.15625"
     d=""
     id="path3154"
     inkscape:connector-curvature="0"
     transform="translate(-220,-370)" />
  <path
     style="fill:#e0bc34;stroke:#f0e060;stroke-width:0.15625"
     d=""
     id="path3156"
     inkscape:connector-curvature="0"
     transform="translate(-220,-370)" />
  <path
     style="fill:#e0bc34;stroke:#f0e060;stroke-width:0.15625"
     d="m 109.00412,453.22003 c 0.007,-0.18202 0.0445,-0.21905 0.0944,-0.0944 0.0451,0.11279 0.0396,0.24756 -0.0123,0.29948 -0.0519,0.0519 -0.0889,-0.0404 -0.0821,-0.20508 z"
     id="path3158"
     inkscape:connector-curvature="0"
     transform="translate(-220,-370)" />
  <path
     style="fill:#e0bc34;stroke:#f0e060;stroke-width:0.15625"
     d="m 123.10558,415.18617 c 0.0317,-0.21484 0.31902,-1.50543 0.63856,-2.86798 0.31954,-1.36254 0.54932,-2.55986 0.51063,-2.66069 -0.0387,-0.10084 -0.95737,-0.73807 -2.04149,-1.41606 -1.08412,-0.678 -1.94759,-1.25626 -1.91882,-1.28502 0.0288,-0.0288 0.43298,0.0776 0.89825,0.23647 0.46527,0.15882 1.14478,0.33562 1.51001,0.39287 l 0.66407,0.1041 0,-0.56145 c 0,-0.3088 -0.20516,-1.41706 -0.45591,-2.46279 -0.95837,-3.9968 -1.03933,-5.00619 -0.17452,-2.17572 0.59469,1.94638 2.41982,6.66213 3.57866,9.24652 0.82214,1.83348 0.95267,2.35786 0.32597,1.30953 -0.83424,-1.3955 -1.6019,-1.80808 -2.08387,-1.11997 -0.1285,0.18346 -0.37097,0.69323 -0.53883,1.13282 -0.82318,2.15576 -0.96596,2.48856 -0.91271,2.12737 z"
     id="path3160"
     inkscape:connector-curvature="0"
     transform="translate(-220,-370)" />
  <path
     style="fill:#e0bc34;stroke:#f0e060;stroke-width:0.15625"
     d=""
     id="path3162"
     inkscape:connector-curvature="0"
     transform="translate(-220,-370)" />
  <path
     style="fill:#e0bc34;stroke:#f0e060;stroke-width:0.15625"
     d="m 121.65861,421.5389 c -0.006,-0.0724 0.23089,-0.91615 0.52602,-1.875 0.29512,-0.95884 0.78981,-2.65742 1.09931,-3.7746 0.61753,-2.22907 1.33734,-3.93595 1.72208,-4.08359 0.29605,-0.11361 0.74262,0.26283 1.32256,1.11484 0.42468,0.62393 2.69993,5.56224 2.60598,5.65618 -0.0273,0.0273 -0.84469,-1.1639 -1.81649,-2.64705 l -1.7669,-2.69663 -0.53937,1.17187 c -0.29665,0.64453 -1.06088,2.40235 -1.6983,3.90625 -1.39571,3.29298 -1.44149,3.39454 -1.45489,3.22773 z"
     id="path3164"
     inkscape:connector-curvature="0"
     transform="translate(-220,-370)" />
  <path
     style="fill:#e0bc34;stroke:#f0e060;stroke-width:0.15625"
     d="m 118.46004,433.63887 -1.37486,-1.38126 1.30486,-2.90896 c 0.71768,-1.59993 1.32438,-2.85124 1.34822,-2.78068 0.0238,0.0706 -0.38439,1.30036 -0.90717,2.7329 l -0.95051,2.60462 1.02838,1.5061 c 0.56562,0.82836 1.00534,1.52915 0.97717,1.55732 -0.0282,0.0282 -0.66991,-0.57034 -1.42609,-1.33004 l 0,0 z"
     id="path3166"
     inkscape:connector-curvature="0"
     transform="translate(-220,-370)" />
  <path
     style="fill:#e0bc34;stroke:#f0e060;stroke-width:0.15625"
     d="m 116.80429,432.96711 c -0.30079,-0.18634 -0.57168,-0.35644 -0.60198,-0.37799 -0.0303,-0.0216 0.24902,-0.60226 0.62073,-1.29045 0.3717,-0.68819 0.70409,-1.22299 0.73863,-1.18845 0.0345,0.0345 -0.097,0.51536 -0.29222,1.06848 -0.36104,1.02267 -0.35348,1.15925 0.0986,1.78091 0.32049,0.44074 0.13948,0.44314 -0.56372,0.007 z"
     id="path3168"
     inkscape:connector-curvature="0"
     transform="translate(-220,-370)" />
  <path
     style="fill:#e0bc34;stroke:#f0e060;stroke-width:0.15625"
     d=""
     id="path3170"
     inkscape:connector-curvature="0"
     transform="translate(-220,-370)" />
  <path
     style="fill:#e0bc34;stroke:#f0e060;stroke-width:0.15625"
     d="m 107.27304,400.40656 c -2.28759,-0.80913 -3.0776,-1.30475 -3.54206,-2.22215 -0.3955,-0.78118 -0.60572,-2.62358 -0.40449,-3.54511 l 0.13647,-0.625 0.19452,1.01562 c 0.53217,2.77853 1.19727,3.5965 4.16243,5.1192 1.03125,0.52958 1.76953,0.95958 1.64063,0.95557 -0.12891,-0.004 -1.11329,-0.31817 -2.1875,-0.69813 l 0,0 z"
     id="path3172"
     inkscape:connector-curvature="0"
     transform="translate(-220,-370)" />
  <path
     style="fill:#e0bc34;stroke:#f0e060;stroke-width:0.15625"
     d="m 103.58653,399.58811 -1.26464,-0.41756 0.20345,-0.78019 c 0.1119,-0.4291 0.25438,-1.16738 0.31662,-1.64063 l 0.11317,-0.86043 0.2012,1.16739 c 0.26301,1.52611 0.46069,1.97203 0.96718,2.18182 0.22958,0.0951 0.62784,0.3116 0.88503,0.48113 0.66578,0.43884 0.16513,0.39253 -1.42201,-0.13153 z"
     id="path3174"
     inkscape:connector-curvature="0"
     transform="translate(-220,-370)" />
  <path
     style="fill:#e0bc34;stroke:#f0e060;stroke-width:0.15625"
     d="m 122.15424,407.22286 c -0.9176,-0.33022 -6.77049,-3.32449 -6.67839,-3.41659 0.0323,-0.0323 0.9817,0.30477 2.10977,0.74905 2.5056,0.98679 3.70065,1.27341 3.91254,0.93838 0.32503,-0.51392 0.11159,-2.08672 -0.9429,-6.94815 -0.64566,-2.97668 -1.02785,-5.19708 -0.91413,-5.31081 0.0587,-0.0587 1.44758,5.06406 2.95664,10.90506 0.48954,1.89484 0.71688,3.39296 0.51358,3.38448 -0.0743,-0.003 -0.50505,-0.13874 -0.95711,-0.30142 z"
     id="path3176"
     inkscape:connector-curvature="0"
     transform="translate(-220,-370)" />
  <path
     style="fill:#e0bc34;stroke:#f0e060;stroke-width:0.15625"
     d="m 85.370197,390.92725 c -1.691092,-0.79233 -3.046452,-1.46887 -3.011912,-1.50341 0.03454,-0.0345 1.434641,0.44625 3.111334,1.06844 l 3.048533,1.13124 1.014236,-0.64055 c 0.55783,-0.3523 1.066663,-0.64055 1.13074,-0.64055 0.06408,0 -0.336465,0.45703 -0.890094,1.01563 -0.553628,0.55859 -1.078941,1.01432 -1.167361,1.01272 -0.08842,-0.002 -1.544384,-0.65118 -3.235476,-1.44352 z"
     id="path3178"
     inkscape:connector-curvature="0"
     transform="translate(-220,-370)" />
  <path
     style="fill:#e0bc34;stroke:#f0e060;stroke-width:0.15625"
     d="m 87.618085,392.72951 c -0.798503,-0.47501 -1.424859,-0.89061 -1.3919,-0.92357 0.03296,-0.033 0.572903,0.15161 1.199877,0.41015 0.626974,0.25855 1.208023,0.47008 1.29122,0.47008 0.0832,0 0.363605,-0.17867 0.623129,-0.39705 0.259525,-0.21837 0.502918,-0.36599 0.540874,-0.32803 0.06453,0.0645 -0.695672,1.68053 -0.774945,1.64732 -0.02004,-0.008 -0.689752,-0.4039 -1.488255,-0.8789 z"
     id="path3180"
     inkscape:connector-curvature="0"
     transform="translate(-220,-370)" />
  <path
     style="fill:#e0bc34;stroke:#f0e060;stroke-width:0.15625"
     d="m 30.241782,374.7955 c -1.503907,-0.28038 -3.964844,-0.83055 -5.468751,-1.2226 -3.17271,-0.82708 -6.028253,-1.39032 -9.21875,-1.81834 -4.787577,-0.64227 -5.507075,-0.78427 -6.232393,-1.23001 -0.9069187,-0.55735 -1.109687,-0.87576 -0.7724458,-1.21301 0.3662256,-0.36622 1.3564706,-0.51754 3.4110888,-0.52126 1.754272,-0.003 1.784835,0.003 1.289062,0.24709 -0.549777,0.27102 -0.653457,0.66833 -0.273542,1.04825 0.575284,0.57528 1.812054,0.90127 12.858945,3.38934 4.185451,0.94269 7.680223,1.74296 7.766161,1.77838 0.443672,0.18289 -0.918027,-0.003 -3.359375,-0.45784 z"
     id="path3182"
     inkscape:connector-curvature="0"
     transform="translate(-220,-370)" />
  <path
     style="fill:#e0bc34;stroke:#f0e060;stroke-width:0.15625"
     d=""
     id="path3184"
     inkscape:connector-curvature="0"
     transform="translate(-220,-370)" />
  <path
     style="fill:#e0bc34;stroke:#f0e060;stroke-width:0.15625"
     d="m 42.745955,377.64083 c -2.103173,-0.53219 -3.711739,-0.98922 -3.574591,-1.01564 0.203265,-0.0391 7.487084,1.69575 8.023543,1.91109 0.08594,0.0345 -0.01953,0.0649 -0.234375,0.0674 -0.214843,0.003 -2.111403,-0.4307 -4.214577,-0.96289 l 0,0 z"
     id="path3186"
     inkscape:connector-curvature="0"
     transform="translate(-220,-370)" />
  <path
     style="fill:#e0bc34;stroke:#f0e060;stroke-width:0.15625"
     d=""
     id="path3188"
     inkscape:connector-curvature="0"
     transform="translate(-220,-370)" />
  <path
     style="fill:#e0bc34;stroke:#f0e060;stroke-width:0.15625"
     d=""
     id="path3190"
     inkscape:connector-curvature="0"
     transform="translate(-220,-370)" />
  <path
     style="fill:#e0bc34;stroke:#f0e060;stroke-width:0.15625"
     d="m 21.569906,367.06285 c 3.648954,-0.91923 10.068215,-2.1139 9.752605,-1.81503 -0.09253,0.0876 -8.476477,1.90424 -10.524931,2.28052 -2.691447,0.49439 -2.442578,0.3444 0.772326,-0.46549 z"
     id="path3192"
     inkscape:connector-curvature="0"
     transform="translate(-220,-370)" />
  <path
     style="fill:#e0bc34;stroke:#f0e060;stroke-width:0.15625"
     d=""
     id="path3194"
     inkscape:connector-curvature="0"
     transform="translate(-220,-370)" />
  <path
     style="fill:#e0bc34;stroke:#f0e060;stroke-width:0.15625"
     d=""
     id="path3196"
     inkscape:connector-curvature="0"
     transform="translate(-220,-370)" />
  <path
     style="fill:#e0bc34;stroke:#f0e060;stroke-width:0.15625"
     d="m 85.554284,348.9207 3.203125,-1.56809 0.603448,0.67459 c 1.027857,1.14904 1.851573,2.15897 1.760889,2.15897 -0.04765,0 -0.760343,-0.41496 -1.583762,-0.92214 l -1.497125,-0.92213 -2.681023,1.07838 c -1.474563,0.59312 -2.754745,1.07617 -2.84485,1.07345 -0.0901,-0.003 1.277579,-0.71058 3.039298,-1.57303 z"
     id="path3198"
     inkscape:connector-curvature="0"
     transform="translate(-220,-370)" />
  <path
     style="fill:#e0bc34;stroke:#f0e060;stroke-width:0.15625"
     d="m 89.495376,347.92304 -0.628666,-0.7142 -0.67965,0.15672 c -1.062776,0.24506 -1.061108,0.19862 0.01476,-0.41108 0.686987,-0.38931 1.027411,-0.5091 1.071438,-0.37702 0.03549,0.10647 0.26463,0.59029 0.509197,1.07515 0.244567,0.48485 0.421475,0.90475 0.393129,0.93309 -0.02835,0.0284 -0.334439,-0.26985 -0.680206,-0.66266 z"
     id="path3200"
     inkscape:connector-curvature="0"
     transform="translate(-220,-370)" />
  <path
     style="fill:#e0bc34;stroke:#f0e060;stroke-width:0.15625"
     d="m 102.61302,342.06117 c -0.11117,-0.5586 -0.20199,-1.08223 -0.20183,-1.16365 2.7e-4,-0.13446 2.22612,-0.8674 2.59622,-0.85488 0.0859,0.003 -0.20097,0.16777 -0.63758,0.36637 -0.7077,0.32192 -0.82964,0.45234 -1.12386,1.20194 -0.18151,0.46246 -0.3527,0.98147 -0.38042,1.15334 -0.0277,0.17188 -0.14137,-0.14453 -0.25253,-0.70312 z"
     id="path3202"
     inkscape:connector-curvature="0"
     transform="translate(-220,-370)" />
  <path
     style="fill:#e0bc34;stroke:#f0e060;stroke-width:0.15625"
     d="m 118.84761,350.53875 c -0.036,-1.04447 1.50721,-7.43215 3.19038,-13.20584 0.562,-1.9278 0.57238,-2.00744 0.31329,-2.40286 -0.25219,-0.38489 -0.32451,-0.40433 -1.2278,-0.33001 -1.10453,0.0909 -2.3448,0.54508 -6.81919,2.49727 -4.71274,2.05618 -8.09456,3.73241 -9.02123,4.47143 -1.0577,0.84353 -1.38307,1.51243 -1.86187,3.82759 -0.216,1.04445 -0.42208,1.92834 -0.45794,1.96421 -0.10604,0.10603 -0.0617,-1.82024 0.0806,-3.5025 0.21033,-2.48668 0.69116,-3.27356 2.10769,-3.44926 0.94572,-0.1173 4.26538,-1.56919 10.94965,-4.78895 2.57813,-1.24187 5.06002,-2.38159 5.51533,-2.53273 0.97469,-0.32354 1.55283,-0.22891 1.67927,0.27487 0.10793,0.43002 -0.79394,4.07432 -1.56967,6.34279 -0.70974,2.07548 -1.35198,4.47826 -2.196,8.21578 -0.36872,1.63282 -0.67584,2.81101 -0.68248,2.61821 l 0,0 z"
     id="path3204"
     inkscape:connector-curvature="0"
     transform="translate(-220,-370)" />
  <path
     style="fill:#e0bc34;stroke:#f0e060;stroke-width:0.15625"
     d="m 123.60164,333.93902 c -0.0614,-0.3635 -0.25143,-0.80068 -0.42227,-0.97152 -0.41972,-0.41972 -0.9866,-0.30394 -3.26189,0.66622 -0.99477,0.42416 -1.87204,0.7712 -1.9495,0.7712 -0.0774,0 0.94739,-0.65554 2.27743,-1.45674 3.55004,-2.13853 4.05888,-2.47582 4.05888,-2.69049 0,-0.28265 -0.8587,-4.01498 -1.23797,-5.38088 -0.1785,-0.64281 -0.32178,-1.27562 -0.31842,-1.40625 0.009,-0.34986 0.38191,0.58029 0.59383,1.48123 0.10107,0.42969 0.37142,1.36133 0.60077,2.07032 0.35848,1.10812 0.46626,1.28906 0.76791,1.28906 0.4981,0 1.50301,-1.20784 2.79019,-3.35366 0.59332,-0.98909 1.10563,-1.77148 1.13847,-1.73864 0.0328,0.0328 -0.2612,0.6987 -0.65343,1.47967 -1.02667,2.04423 -2.00433,4.25452 -3.21339,7.26481 l -1.05895,2.63657 -0.11166,-0.6609 z"
     id="path3206"
     inkscape:connector-curvature="0"
     transform="translate(-220,-370)" />
  <path
     style="fill:#e0bc34;stroke:#f0e060;stroke-width:0.15625"
     d="m 124.30008,327.49086 c -0.42845,-0.9439 -0.41035,-1.45847 0.0261,-0.74219 0.18328,0.30078 0.46761,0.6411 0.63186,0.75626 0.23513,0.16486 0.25975,0.25624 0.1158,0.42969 -0.29366,0.35384 -0.45328,0.2623 -0.77377,-0.44376 z"
     id="path3208"
     inkscape:connector-curvature="0"
     transform="translate(-220,-370)" />
  <path
     style="fill:#e0bc34;stroke:#f0e060;stroke-width:0.15625"
     d="m 117.742,309.05335 c -0.21385,-0.5371 -0.38927,-1.01334 -0.38983,-1.0583 -5.5e-4,-0.045 0.17477,-0.30567 0.38962,-0.57936 l 0.39062,-0.49761 0.009,1.55592 c 0.005,0.85575 0.005,1.55592 -8e-4,1.55592 -0.006,0 -0.18505,-0.43946 -0.3989,-0.97657 z"
     id="path3210"
     inkscape:connector-curvature="0"
     transform="translate(-220,-370)" />
  <path
     style="fill:#e0bc34;stroke:#f0e060;stroke-width:0.15625"
     d="m 117.58554,310.22359 c -0.73047,-1.43855 -1.32813,-2.65953 -1.32813,-2.71328 0,-0.11495 2.60658,-1.87903 2.67513,-1.81047 0.0256,0.0256 -0.20385,0.32485 -0.51,0.66491 -0.30614,0.34006 -0.72669,0.83785 -0.93455,1.1062 l -0.37794,0.48791 0.85415,2.02877 c 0.79895,1.89765 1.13702,2.857 1.00546,2.85315 -0.0308,-9.1e-4 -0.65366,-1.17864 -1.38412,-2.61719 z"
     id="path3212"
     inkscape:connector-curvature="0"
     transform="translate(-220,-370)" />
  <path
     style="fill:#e0bc34;stroke:#f0e060;stroke-width:0.15625"
     d=""
     id="path3214"
     inkscape:connector-curvature="0"
     transform="translate(-220,-370)" />
  <path
     style="fill:#e0bc34;stroke:#f0e060;stroke-width:0.15625"
     d=""
     id="path3216"
     inkscape:connector-curvature="0"
     transform="translate(-220,-370)" />
  <path
     style="fill:#204a87;stroke:#204a87;stroke-width:0.31250000000000000"
     d="m 216.73964,376.8226 c -2.76018,-1.3149 -4.26848,-3.7193 -4.26848,-6.80441 0,-4.31089 3.27387,-7.57579 7.57073,-7.55 2.88854,0.0173 4.83901,1.11735 6.50906,3.67091 0.70956,1.08495 0.8181,1.58317 0.82198,3.7731 0.004,2.26686 -0.0916,2.67859 -0.94128,4.05424 -2.01051,3.25492 -6.23912,4.50106 -9.69201,2.85616 l 0,0 z"
     id="path3224"
     inkscape:connector-curvature="0"
     transform="translate(-220,-370)" />
  <path
     style="fill:#204a87;stroke:#204a87;stroke-width:0.44194177"
     d="m 220.82819,55.35056 c -1e-5,-18.900733 0.1319,-26.135717 0.45927,-25.190681 2.92665,8.448592 5.74205,14.574578 9.46218,20.588613 1.31072,2.11894 2.38313,4.025242 2.38313,4.236227 0,0.210986 -1.69267,2.958558 -3.76149,6.105715 -3.97349,6.04459 -5.84315,10.217946 -7.52602,16.799155 l -1.01707,3.977476 0,-26.516505 0,0 z"
     id="path3226"
     inkscape:connector-curvature="0"
     transform="translate(-220,-370)" />
  <path
     style="fill:#204a87;stroke:#204a87;stroke-width:0.44194177"
     d="M 218.06088,77.778419 C 216.443,71.099878 214.67742,67.184223 210.35901,60.697482 l -3.75314,-5.637634 2.3932,-3.86888 c 3.43623,-5.555076 5.39057,-9.582487 8.06097,-16.611671 l 2.35052,-6.187185 0.011,27.068933 c 0.006,14.887913 -0.0387,27.068623 -0.0995,27.068248 -0.0608,-3.76e-4 -0.62832,-2.138269 -1.26122,-4.750874 l 10e-6,0 z"
     id="path3228"
     inkscape:connector-curvature="0"
     transform="translate(-220,-370)" />
  <path
     style="fill:#204a87;stroke:#204a87;stroke-width:0.44194177"
     d="m 211.49266,113.5757 c -2.34712,-1.18403 -3.12979,-2.97881 -3.58497,-8.22091 -0.64328,-7.408424 -2.71185,-12.884644 -5.39015,-14.269647 -2.08204,-1.076664 -6.05231,-0.841624 -8.95154,0.529929 -3.16032,1.495073 -3.74179,2.635707 -3.74956,7.355289 -0.003,2.017379 -0.12934,4.128419 -0.28006,4.691199 -0.24766,0.92477 -0.44908,0.99556 -2.09319,0.73563 -2.79291,-0.44153 -5.31968,-1.82425 -7.34111,-4.01725 -2.34414,-2.54308 -3.11876,-4.432048 -3.41185,-8.31999 -0.43706,-5.797669 1.68877,-11.143228 6.27072,-15.768161 3.58706,-3.620723 6.97702,-4.936173 12.56906,-4.877342 5.61186,0.05904 8.79546,2.166486 11.56709,7.657045 1.72142,3.410118 2.44896,6.415838 3.26888,13.505012 0.73656,6.368362 1.97078,10.410146 3.46885,11.359656 0.52655,0.33373 2.00144,0.74381 3.27755,0.91129 l 2.3202,0.3045 0,4.59892 0,4.59891 -3.20408,-7e-4 c -2.17059,-4.9e-4 -3.69816,-0.24993 -4.73584,-0.7734 l 0,2e-5 z"
     id="path3230"
     inkscape:connector-curvature="0"
     transform="translate(-220,-370)" />
  <path
     style="fill:#204a87;stroke:#204a87;stroke-width:0.44194177"
     d="m 220.7584,109.76464 0,-4.58515 1.38107,-0.27621 c 0.75959,-0.15192 1.81618,-0.27621 2.348,-0.27621 1.45506,0 3.18639,-2.1348 3.94258,-4.861364 0.37077,-1.336874 0.97937,-5.016039 1.35245,-8.175922 0.75814,-6.421238 1.54186,-9.462241 3.35995,-13.037282 2.49844,-4.912868 6.20576,-7.145681 11.84439,-7.133547 5.38006,0.01158 9.38539,1.779692 12.86842,5.680636 2.92323,3.273971 4.74424,7.028979 5.34952,11.030912 1.26944,8.393247 -2.98851,14.863727 -10.71723,16.286127 -1.95954,0.36064 -2.02199,0.20228 -2.21364,-5.613215 -0.1003,-3.043367 -0.31471,-4.092386 -1.03879,-5.08233 -1.1557,-1.580054 -3.46885,-2.736654 -6.39981,-3.199977 -4.64518,-0.734303 -6.99554,0.745174 -8.81606,5.549434 -0.53986,1.42467 -1.15135,3.88299 -1.35887,5.462928 -0.20751,1.57995 -0.56829,4.33479 -0.80174,6.12188 -0.65,4.97596 -2.7584,6.69443 -8.21342,6.69443 l -2.88682,0 0,-4.58514 z"
     id="path3232"
     inkscape:connector-curvature="0"
     transform="translate(-220,-370)" />
  <path
     style="fill:#204a87;stroke:#204a87;stroke-width:0.44194177"
     d="m 257.65525,158.96899 c -0.96937,-0.99904 -3.05516,-2.52926 -4.6351,-3.40049 -1.57994,-0.87123 -5.52889,-3.46548 -8.77545,-5.765 -3.24655,-2.29952 -7.4229,-4.83752 -9.28077,-5.63999 -1.85788,-0.80247 -5.80808,-2.91672 -8.77822,-4.69833 l -5.40027,-3.23928 -0.0135,-7.44981 c -0.0111,-6.1359 0.0934,-7.40876 0.59289,-7.2171 0.33353,0.12798 1.57649,0.37396 2.76214,0.54661 4.15407,0.60491 4.42762,0.90374 6.35958,6.94755 1.39339,4.35896 2.51317,4.79511 10.49671,4.08841 5.74632,-0.50867 6.85885,0.34303 11.88302,9.09703 2.14321,3.73427 7.05789,17.02754 6.69632,18.11225 -0.0797,0.23902 -0.93797,-0.38281 -1.90733,-1.38185 l 0,0 z"
     id="path3234"
     inkscape:connector-curvature="0"
     transform="translate(-220,-370)" />
  <path
     style="fill:#204a87;stroke:#204a87;stroke-width:0.44194177"
     d="m 180.54663,160.04438 c 0.006,-0.99622 2.05037,-7.5414 3.7128,-11.88605 1.58742,-4.14857 6.16974,-11.81846 8.04406,-13.46414 1.99962,-1.75568 2.96674,-1.94611 7.57125,-1.49078 4.51215,0.44619 6.82332,0.17085 8.07514,-0.96203 0.49201,-0.44527 1.39123,-2.43789 1.99827,-4.42805 0.60703,-1.99015 1.46438,-3.94488 1.90522,-4.34383 0.44083,-0.39895 1.97847,-0.93476 3.41696,-1.19068 1.4385,-0.25592 2.96835,-0.5686 3.39968,-0.69486 0.73225,-0.21433 0.7762,0.26073 0.66292,7.16686 l -0.12133,7.39642 -4.19844,2.61919 c -2.30915,1.44056 -6.58493,3.77996 -9.50175,5.19867 -2.93152,1.42586 -7.18096,3.97675 -9.50175,5.70379 -2.30914,1.71837 -5.69,3.96245 -7.51301,4.98683 -1.82301,1.02438 -4.35865,2.84433 -5.63476,4.04433 -1.799,1.69173 -2.31908,1.9937 -2.31526,1.34433 z"
     id="path3236"
     inkscape:connector-curvature="0"
     transform="translate(-220,-370)" />
  <path
     style="fill:#204a87;stroke:#204a87;stroke-width:0.44194177"
     d="m 200.60623,155.49879 c 0.99764,-1.10238 4.94296,-3.17778 9.3246,-4.90512 3.92728,-1.54823 7.00177,-3.1965 8.50738,-4.56092 l 0.99437,-0.90112 0,4.25546 0,4.25546 -1.43632,0.22173 c -0.78997,0.12195 -3.31416,0.34776 -5.60931,0.5018 -2.29515,0.15404 -5.6581,0.65989 -7.47322,1.12412 -1.81512,0.46423 -3.69697,0.84405 -4.1819,0.84405 -0.83666,0 -0.84307,-0.0427 -0.1256,-0.83546 z"
     id="path3238"
     inkscape:connector-curvature="0"
     transform="translate(-220,-370)" />
  <path
     style="fill:#a40000;stroke:#ef2929;stroke-width:0.44194177000000001"
     d="m 234.90054,155.45161 c -1.57994,-0.43539 -4.76193,-0.91968 -7.07107,-1.07619 -2.30915,-0.1565 -4.84479,-0.38542 -5.63476,-0.50871 l -1.43631,-0.22416 0,-4.2611 0,-4.26111 1.21534,1.14005 c 1.39835,1.31171 4.01529,2.67097 9.5174,4.94342 4.11057,1.69772 6.79001,3.21585 7.77893,4.40742 0.52767,0.63581 0.47359,0.71753 -0.44843,0.67752 -0.57666,-0.025 -2.34116,-0.40174 -3.9211,-0.83714 z"
     id="path3240"
     inkscape:connector-curvature="0"
     transform="translate(-220,-370)" />
  <path
     style="fill:#204a87;stroke:#204a87;stroke-width:0.62500000000000000"
     d="m 217.15866,376.65184 c -4.77593,-1.95476 -5.6149,-8.71588 -1.51011,-12.16984 3.10185,-2.61002 7.68692,-1.95643 10.39648,1.482 1.08918,1.38218 0.98077,6.36908 -0.17431,8.01819 -1.89853,2.71053 -5.73778,3.887 -8.71206,2.66965 z"
     id="path3242"
     inkscape:connector-curvature="0"
     transform="translate(-220,-370)" />
  <path
     style="fill:#a40000;stroke:#ef2929;stroke-width:0.62500000000000000"
     d="m 230.90866,154.38389 c -2.75,-0.44545 -6.05469,-0.8282 -7.34375,-0.85056 l -2.34375,-0.0407 0,-3.34011 0,-3.34011 8.125,3.96069 c 4.46875,2.17838 8.125,4.10331 8.125,4.27761 0,0.38223 -0.23067,0.35879 -6.5625,-0.66686 z"
     id="path3244"
     inkscape:connector-curvature="0"
     transform="translate(-220,-370)" />
  <path
     style="fill:#a40000;stroke:#ef2929;stroke-width:0.625"
     d="m 216.37202,376.41442 c -2.6206,-1.4554 -3.54348,-3.61509 -3.34504,-7.82799 0.038,-0.80781 1.02543,-2.425 2.19418,-3.59375 2.41057,-2.41057 5.34701,-2.81797 8.51251,-1.18103 2.38145,1.2315 3.11249,2.70296 3.11249,6.26495 0,2.483 -0.3156,3.23168 -2.125,5.04108 -1.69505,1.69505 -2.61186,2.12052 -4.53125,2.10286 -1.32344,-0.0122 -3.04149,-0.37494 -3.81789,-0.80612 z"
     id="path3246"
     inkscape:connector-curvature="0"
     transform="translate(-220,-370)" />
</svg>
